Amiamie-LightItalic.ufo
<glyph name="exclam" format="2">
	<advance width="227"/>
	<unicode hex="0021"/>
	<note>
		exclam
	</note>
	<outline>
		<contour>
			<point x="61" y="154" type="line"/>
			<point x="118" y="154" type="line"/>
			<point x="241" y="690" type="line"/>
			<point x="166" y="690" type="line"/>
		</contour>
		<contour>
			<point x="43" y="83" type="line"/>
			<point x="23" y="-13" type="line"/>
			<point x="87" y="-13" type="line"/>
			<point x="107" y="83" type="line"/>
		</contour>
	</outline>
</glyph>
<glyph name="ampersand" format="2">
	<advance width="649"/>
	<unicode hex="0026"/>
	<note>
		ampersand
	</note>
	<outline>
		<contour>
			<point x="633" y="322" type="line"/>
			<point x="644" y="374" type="line"/>
			<point x="542" y="374" type="line"/>
			<point x="569" y="501" type="line"/>
			<point x="507" y="501" type="line"/>
			<point x="480" y="374" type="line"/>
			<point x="402" y="374" type="line" smooth="yes"/>
			<point x="380" y="374"/>
			<point x="359" y="374"/>
			<point x="340" y="375" type="curve" smooth="yes"/>
			<point x="265" y="379"/>
			<point x="197" y="405"/>
			<point x="220" y="513" type="curve" smooth="yes"/>
			<point x="238" y="600"/>
			<point x="316" y="654"/>
			<point x="415" y="654" type="curve" smooth="yes"/>
			<point x="464" y="654"/>
			<point x="496" y="651"/>
			<point x="535" y="643" type="curve"/>
			<point x="546" y="694" type="line"/>
			<point x="510" y="701"/>
			<point x="477" y="704"/>
			<point x="428" y="704" type="curve" smooth="yes"/>
			<point x="288" y="704"/>
			<point x="174" y="624"/>
			<point x="150" y="510" type="curve" smooth="yes"/>
			<point x="131" y="418"/>
			<point x="178" y="365"/>
			<point x="254" y="349" type="curve"/>
			<point x="147" y="331"/>
			<point x="65" y="260"/>
			<point x="45" y="167" type="curve" smooth="yes"/>
			<point x="15" y="25"/>
			<point x="116" y="-14"/>
			<point x="277" y="-14" type="curve" smooth="yes"/>
			<point x="335" y="-14"/>
			<point x="404" y="-7"/>
			<point x="464" y="5" type="curve"/>
			<point x="531" y="322" type="line"/>
		</contour>
		<contour>
			<point x="116" y="176" type="curve" smooth="yes"/>
			<point x="134" y="262"/>
			<point x="213" y="310"/>
			<point x="330" y="320" type="curve" smooth="yes"/>
			<point x="350" y="322"/>
			<point x="369" y="322"/>
			<point x="391" y="322" type="curve" smooth="yes"/>
			<point x="469" y="322" type="line"/>
			<point x="410" y="46" type="line"/>
			<point x="370" y="39"/>
			<point x="330" y="36"/>
			<point x="289" y="36" type="curve" smooth="yes"/>
			<point x="156" y="36"/>
			<point x="94" y="71"/>
		</contour>
	</outline>
</glyph>
<glyph name="quotesingle" format="2">
	<advance width="139"/>
	<unicode hex="0027"/>
	<note>
		quotesingle
	</note>
	<outline>
		<contour>
			<point x="89" y="487" type="line"/>
			<point x="139" y="487" type="line"/>
			<point x="199" y="735" type="line"/>
			<point x="135" y="735" type="line"/>
		</contour>
	</outline>
</glyph>
<glyph name="asterisk" format="2">
	<advance width="549"/>
	<unicode hex="002A"/>
	<note>
		asterisk
	</note>
	<outline>
		<contour>
			<point x="465" y="350" type="line"/>
			<point x="296" y="290" type="line"/>
			<point x="343" y="475" type="line"/>
			<point x="296" y="475" type="line"/>
			<point x="263" y="290" type="line"/>
			<point x="119" y="350" type="line"/>
			<point x="95" y="304" type="line"/>
			<point x="245" y="259" type="line"/>
			<point x="102" y="117" type="line"/>
			<point x="135" y="89" type="line"/>
			<point x="269" y="242" type="line"/>
			<point x="340" y="89" type="line"/>
			<point x="385" y="117" type="line"/>
			<point x="302" y="259" type="line"/>
			<point x="470" y="304" type="line"/>
		</contour>
	</outline>
</glyph>
<glyph name="comma" format="2">
	<advance width="194"/>
	<unicode hex="002C"/>
	<note>
		comma
	</note>
	<outline>
		<contour>
			<point x="-44" y="-119" type="line"/>
			<point x="70" y="63" type="line"/>
			<point x="72" y="72" type="line"/>
			<point x="5" y="72" type="line"/>
			<point x="-102" y="-119" type="line"/>
		</contour>
	</outline>
</glyph>
<glyph name="hyphen" format="2">
	<advance width="274"/>
	<unicode hex="002D"/>
	<note>
		hyphen
	</note>
	<outline>
		<contour>
			<point x="31" y="261" type="line"/>
			<point x="241" y="261" type="line"/>
			<point x="250" y="304" type="line"/>
			<point x="40" y="304" type="line"/>
		</contour>
	</outline>
</glyph>
<glyph name="period" format="2">
	<advance width="194"/>
	<unicode hex="002E"/>
	<note>
		period
	</note>
	<outline>
		<contour>
			<point x="0" y="81" type="line"/>
			<point x="-21" y="-15" type="line"/>
			<point x="74" y="-15" type="line"/>
			<point x="95" y="81" type="line"/>
		</contour>
	</outline>
</glyph>
<glyph name="one" format="2">
	<advance width="561"/>
	<unicode hex="0031"/>
	<note>
		one
	</note>
	<outline>
		<contour>
			<point x="329" y="0" type="line"/>
			<point x="475" y="690" type="line"/>
			<point x="436" y="690" type="line" smooth="yes"/>
			<point x="417" y="690"/>
			<point x="398" y="686"/>
			<point x="370" y="670" type="curve" smooth="yes"/>
			<point x="199" y="576" type="line"/>
			<point x="185" y="509" type="line"/>
			<point x="400" y="625" type="line"/>
			<point x="267" y="0" type="line"/>
		</contour>
	</outline>
</glyph>
<glyph name="three" format="2">
	<advance width="561"/>
	<unicode hex="0033"/>
	<note>
		three
	</note>
	<outline>
		<contour>
			<point x="393" y="363" type="curve"/>
			<point x="474" y="384"/>
			<point x="542" y="449"/>
			<point x="559" y="530" type="curve" smooth="yes"/>
			<point x="581" y="632"/>
			<point x="521" y="704"/>
			<point x="395" y="704" type="curve" smooth="yes"/>
			<point x="266" y="704"/>
			<point x="164" y="629"/>
			<point x="126" y="504" type="curve" smooth="yes"/>
			<point x="123" y="494" type="line"/>
			<point x="185" y="494" type="line"/>
			<point x="188" y="504" type="line" smooth="yes"/>
			<point x="218" y="602"/>
			<point x="294" y="654"/>
			<point x="378" y="654" type="curve" smooth="yes"/>
			<point x="458" y="654"/>
			<point x="506" y="606"/>
			<point x="489" y="523" type="curve" smooth="yes"/>
			<point x="469" y="429"/>
			<point x="377" y="377"/>
			<point x="291" y="377" type="curve" smooth="yes"/>
			<point x="274" y="377" type="line"/>
			<point x="263" y="325" type="line"/>
			<point x="280" y="325" type="line" smooth="yes"/>
			<point x="405" y="325"/>
			<point x="449" y="270"/>
			<point x="431" y="186" type="curve" smooth="yes"/>
			<point x="411" y="91"/>
			<point x="328" y="36"/>
			<point x="233" y="36" type="curve" smooth="yes"/>
			<point x="136" y="36"/>
			<point x="81" y="93"/>
			<point x="93" y="194" type="curve" smooth="yes"/>
			<point x="94" y="204" type="line"/>
			<point x="32" y="204" type="line"/>
			<point x="31" y="194" type="line" smooth="yes"/>
			<point x="15" y="50"/>
			<point x="91" y="-14"/>
			<point x="218" y="-14" type="curve" smooth="yes"/>
			<point x="348" y="-14"/>
			<point x="474" y="62"/>
			<point x="501" y="189" type="curve" smooth="yes"/>
			<point x="521" y="284"/>
			<point x="478" y="342"/>
		</contour>
	</outline>
</glyph>
<glyph name="four" format="2">
	<advance width="561"/>
	<unicode hex="0034"/>
	<note>
		four
	</note>
	<outline>
		<contour>
			<point x="423" y="184" type="line"/>
			<point x="515" y="184" type="line"/>
			<point x="526" y="235" type="line"/>
			<point x="434" y="235" type="line"/>
			<point x="530" y="690" type="line"/>
			<point x="470" y="690" type="line"/>
			<point x="19" y="217" type="line"/>
			<point x="12" y="184" type="line"/>
			<point x="361" y="184" type="line"/>
			<point x="322" y="0" type="line"/>
			<point x="384" y="0" type="line"/>
		</contour>
		<contour>
			<point x="451" y="607" type="curve"/>
			<point x="372" y="235" type="line"/>
			<point x="102" y="235" type="line"/>
			<point x="360" y="505" type="line" smooth="yes"/>
			<point x="396" y="544"/>
			<point x="426" y="578"/>
		</contour>
	</outline>
</glyph>
<glyph name="five" format="2">
	<advance width="561"/>
	<unicode hex="0035"/>
	<note>
		five
	</note>
	<outline>
		<contour>
			<point x="333" y="446" type="curve" smooth="yes"/>
			<point x="285" y="446"/>
			<point x="244" y="434"/>
			<point x="203" y="410" type="curve"/>
			<point x="152" y="363" type="line"/>
			<point x="250" y="637" type="line"/>
			<point x="576" y="637" type="line"/>
			<point x="587" y="689" type="line"/>
			<point x="211" y="689" type="line"/>
			<point x="73" y="291" type="line"/>
			<point x="132" y="291" type="line"/>
			<point x="183" y="366"/>
			<point x="243" y="396"/>
			<point x="314" y="396" type="curve" smooth="yes"/>
			<point x="412" y="396"/>
			<point x="460" y="326"/>
			<point x="436" y="215" type="curve" smooth="yes"/>
			<point x="412" y="98"/>
			<point x="322" y="36"/>
			<point x="229" y="36" type="curve" smooth="yes"/>
			<point x="135" y="36"/>
			<point x="96" y="95"/>
			<point x="100" y="181" type="curve" smooth="yes"/>
			<point x="100" y="191" type="line"/>
			<point x="38" y="191" type="line"/>
			<point x="37" y="181" type="line" smooth="yes"/>
			<point x="23" y="49"/>
			<point x="97" y="-14"/>
			<point x="219" y="-14" type="curve" smooth="yes"/>
			<point x="345" y="-14"/>
			<point x="475" y="71"/>
			<point x="506" y="219" type="curve" smooth="yes"/>
			<point x="534" y="348"/>
			<point x="478" y="446"/>
		</contour>
	</outline>
</glyph>
<glyph name="seven" format="2">
	<advance width="561"/>
	<unicode hex="0037"/>
	<note>
		seven
	</note>
	<outline>
		<contour>
			<point x="607" y="661" type="line"/>
			<point x="613" y="690" type="line"/>
			<point x="138" y="690" type="line"/>
			<point x="127" y="638" type="line"/>
			<point x="524" y="638" type="line"/>
			<point x="48" y="0" type="line"/>
			<point x="115" y="0" type="line"/>
		</contour>
	</outline>
</glyph>
<glyph name="eight" format="2">
	<advance width="561"/>
	<unicode hex="0038"/>
	<note>
		eight
	</note>
	<outline>
		<contour>
			<point x="403" y="362" type="curve"/>
			<point x="476" y="384"/>
			<point x="539" y="442"/>
			<point x="555" y="521" type="curve" smooth="yes"/>
			<point x="578" y="629"/>
			<point x="515" y="704"/>
			<point x="380" y="704" type="curve" smooth="yes"/>
			<point x="248" y="704"/>
			<point x="151" y="629"/>
			<point x="128" y="521" type="curve" smooth="yes"/>
			<point x="112" y="443"/>
			<point x="145" y="385"/>
			<point x="206" y="362" type="curve"/>
			<point x="119" y="338"/>
			<point x="43" y="272"/>
			<point x="25" y="186" type="curve" smooth="yes"/>
			<point x="-5" y="46"/>
			<point x="90" y="-15"/>
			<point x="221" y="-15" type="curve" smooth="yes"/>
			<point x="342" y="-15"/>
			<point x="472" y="46"/>
			<point x="502" y="186" type="curve" smooth="yes"/>
			<point x="521" y="273"/>
			<point x="479" y="340"/>
		</contour>
		<contour>
			<point x="195" y="519" type="curve" smooth="yes"/>
			<point x="211" y="596"/>
			<point x="276" y="654"/>
			<point x="370" y="654" type="curve" smooth="yes"/>
			<point x="465" y="654"/>
			<point x="504" y="596"/>
			<point x="488" y="519" type="curve" smooth="yes"/>
			<point x="470" y="434"/>
			<point x="398" y="383"/>
			<point x="312" y="383" type="curve" smooth="yes"/>
			<point x="226" y="383"/>
			<point x="177" y="434"/>
		</contour>
		<contour>
			<point x="234" y="35" type="curve" smooth="yes"/>
			<point x="133" y="35"/>
			<point x="74" y="90"/>
			<point x="94" y="184" type="curve" smooth="yes"/>
			<point x="111" y="266"/>
			<point x="181" y="333"/>
			<point x="297" y="333" type="curve" smooth="yes"/>
			<point x="413" y="333"/>
			<point x="450" y="266"/>
			<point x="433" y="184" type="curve" smooth="yes"/>
			<point x="413" y="90"/>
			<point x="331" y="35"/>
		</contour>
	</outline>
</glyph>
<glyph name="nine" format="2">
	<advance width="561"/>
	<unicode hex="0039"/>
	<note>
		nine
	</note>
	<outline>
		<contour>
			<point x="375" y="704" type="curve" smooth="yes"/>
			<point x="237" y="704"/>
			<point x="116" y="603"/>
			<point x="86" y="463" type="curve" smooth="yes"/>
			<point x="58" y="329"/>
			<point x="118" y="227"/>
			<point x="261" y="227" type="curve" smooth="yes"/>
			<point x="322" y="227"/>
			<point x="378" y="249"/>
			<point x="426" y="293" type="curve"/>
			<point x="471" y="350" type="line"/>
			<point x="413" y="112"/>
			<point x="316" y="36"/>
			<point x="216" y="36" type="curve" smooth="yes"/>
			<point x="136" y="36"/>
			<point x="99" y="80"/>
			<point x="99" y="168" type="curve" smooth="yes"/>
			<point x="100" y="178" type="line"/>
			<point x="34" y="178" type="line"/>
			<point x="33" y="168" type="line" smooth="yes"/>
			<point x="25" y="57"/>
			<point x="83" y="-14"/>
			<point x="202" y="-14" type="curve" smooth="yes"/>
			<point x="347" y="-14"/>
			<point x="484" y="106"/>
			<point x="543" y="383" type="curve" smooth="yes"/>
			<point x="591" y="610"/>
			<point x="522" y="704"/>
		</contour>
		<contour>
			<point x="283" y="277" type="curve" smooth="yes"/>
			<point x="172" y="277"/>
			<point x="134" y="362"/>
			<point x="157" y="470" type="curve" smooth="yes"/>
			<point x="179" y="576"/>
			<point x="264" y="654"/>
			<point x="365" y="654" type="curve" smooth="yes"/>
			<point x="467" y="654"/>
			<point x="511" y="569"/>
			<point x="488" y="462" type="curve" smooth="yes"/>
			<point x="463" y="347"/>
			<point x="373" y="277"/>
		</contour>
	</outline>
</glyph>
<glyph name="colon" format="2">
	<advance width="194"/>
	<unicode hex="003A"/>
	<note>
		colon
	</note>
	<outline>
		<contour>
			<point x="96" y="543" type="line"/>
			<point x="76" y="449" type="line"/>
			<point x="173" y="449" type="line"/>
			<point x="193" y="543" type="line"/>
		</contour>
		<contour>
			<point x="-2" y="81" type="line"/>
			<point x="-22" y="-13" type="line"/>
			<point x="75" y="-13" type="line"/>
			<point x="95" y="81" type="line"/>
		</contour>
	</outline>
</glyph>
<glyph name="semicolon" format="2">
	<advance width="194"/>
	<unicode hex="003B"/>
	<note>
		semicolon
	</note>
	<outline>
		<contour>
			<point x="-44" y="-119" type="line"/>
			<point x="72" y="68" type="line"/>
			<point x="73" y="78" type="line"/>
			<point x="6" y="78" type="line"/>
			<point x="-102" y="-119" type="line"/>
		</contour>
		<contour>
			<point x="98" y="542" type="line"/>
			<point x="77" y="446" type="line"/>
			<point x="172" y="446" type="line"/>
			<point x="193" y="542" type="line"/>
		</contour>
	</outline>
</glyph>
<glyph name="at" format="2">
	<advance width="852"/>
	<unicode hex="0040"/>
	<note>
		at
	</note>
	<outline>
		<contour>
			<point x="554" y="222" type="curve" smooth="yes"/>
			<point x="664" y="465" type="line"/>
			<point x="604" y="465" type="line"/>
			<point x="573" y="400" type="line"/>
			<point x="571" y="451" type="line"/>
			<point x="558" y="471"/>
			<point x="531" y="483"/>
			<point x="494" y="483" type="curve" smooth="yes"/>
			<point x="369" y="483"/>
			<point x="253" y="359"/>
			<point x="224" y="224" type="curve" smooth="yes"/>
			<point x="199" y="103"/>
			<point x="265" y="67"/>
			<point x="325" y="67" type="curve" smooth="yes"/>
			<point x="365" y="67"/>
			<point x="403" y="82"/>
			<point x="444" y="117" type="curve"/>
			<point x="471" y="156" type="line"/>
			<point x="464" y="97"/>
			<point x="504" y="75"/>
			<point x="556" y="75" type="curve" smooth="yes"/>
			<point x="651" y="75"/>
			<point x="770" y="156"/>
			<point x="808" y="334" type="curve" smooth="yes"/>
			<point x="849" y="530"/>
			<point x="746" y="664"/>
			<point x="554" y="664" type="curve" smooth="yes"/>
			<point x="353" y="664"/>
			<point x="108" y="507"/>
			<point x="52" y="243" type="curve" smooth="yes"/>
			<point x="3" y="9"/>
			<point x="145" y="-104"/>
			<point x="318" y="-104" type="curve" smooth="yes"/>
			<point x="405" y="-104"/>
			<point x="500" y="-84"/>
			<point x="617" y="-15" type="curve"/>
			<point x="606" y="23" type="line"/>
			<point x="511" y="-36"/>
			<point x="418" y="-60"/>
			<point x="329" y="-60" type="curve" smooth="yes"/>
			<point x="172" y="-60"/>
			<point x="57" y="43"/>
			<point x="100" y="245" type="curve" smooth="yes"/>
			<point x="150" y="483"/>
			<point x="370" y="620"/>
			<point x="540" y="620" type="curve" smooth="yes"/>
			<point x="698" y="620"/>
			<point x="799" y="518"/>
			<point x="759" y="331" type="curve" smooth="yes"/>
			<point x="730" y="193"/>
			<point x="648" y="119"/>
			<point x="578" y="119" type="curve" smooth="yes"/>
			<point x="539" y="119"/>
			<point x="528" y="140"/>
			<point x="535" y="169" type="curve" smooth="yes"/>
			<point x="537" y="181"/>
			<point x="542" y="195"/>
		</contour>
		<contour>
			<point x="528" y="301" type="curve" smooth="yes"/>
			<point x="510" y="262" type="line" smooth="yes"/>
			<point x="470" y="172"/>
			<point x="407" y="116"/>
			<point x="350" y="116" type="curve" smooth="yes"/>
			<point x="303" y="116"/>
			<point x="276" y="149"/>
			<point x="294" y="230" type="curve" smooth="yes"/>
			<point x="316" y="337"/>
			<point x="399" y="434"/>
			<point x="486" y="434" type="curve" smooth="yes"/>
			<point x="541" y="434"/>
			<point x="567" y="390"/>
		</contour>
	</outline>
</glyph>
<glyph name="A" format="2">
	<advance width="630"/>
	<unicode hex="0041"/>
	<note>
		A
	</note>
	<outline>
		<contour>
			<point x="184" y="253" type="line"/>
			<point x="459" y="253" type="line"/>
			<point x="496" y="0" type="line"/>
			<point x="563" y="0" type="line"/>
			<point x="460" y="690" type="line"/>
			<point x="377" y="690" type="line"/>
			<point x="-24" y="0" type="line"/>
			<point x="42" y="0" type="line"/>
		</contour>
		<contour>
			<point x="453" y="305" type="line"/>
			<point x="214" y="305" type="line"/>
			<point x="407" y="640" type="line"/>
		</contour>
	</outline>
</glyph>
<glyph name="B" format="2">
	<advance width="612"/>
	<unicode hex="0042"/>
	<note>
		B
	</note>
	<outline>
		<contour>
			<point x="446" y="366" type="curve"/>
			<point x="526" y="387"/>
			<point x="585" y="437"/>
			<point x="602" y="521" type="curve" smooth="yes"/>
			<point x="623" y="618"/>
			<point x="570" y="675"/>
			<point x="466" y="687" type="curve" smooth="yes"/>
			<point x="432" y="690"/>
			<point x="411" y="690"/>
			<point x="381" y="690" type="curve" smooth="yes"/>
			<point x="189" y="690" type="line"/>
			<point x="43" y="0" type="line"/>
			<point x="253" y="0" type="line" smooth="yes"/>
			<point x="282" y="0"/>
			<point x="303" y="0"/>
			<point x="335" y="4" type="curve" smooth="yes"/>
			<point x="432" y="15"/>
			<point x="533" y="76"/>
			<point x="558" y="196" type="curve" smooth="yes"/>
			<point x="578" y="290"/>
			<point x="539" y="345"/>
		</contour>
		<contour>
			<point x="187" y="385" type="line"/>
			<point x="240" y="638" type="line"/>
			<point x="374" y="638" type="line" smooth="yes"/>
			<point x="394" y="638"/>
			<point x="413" y="638"/>
			<point x="433" y="637" type="curve" smooth="yes"/>
			<point x="501" y="631"/>
			<point x="552" y="598"/>
			<point x="534" y="514" type="curve" smooth="yes"/>
			<point x="517" y="435"/>
			<point x="460" y="396"/>
			<point x="387" y="388" type="curve" smooth="yes"/>
			<point x="366" y="386"/>
			<point x="349" y="385"/>
			<point x="332" y="385" type="curve" smooth="yes"/>
		</contour>
		<contour>
			<point x="325" y="53" type="curve" smooth="yes"/>
			<point x="312" y="52"/>
			<point x="294" y="52"/>
			<point x="278" y="52" type="curve" smooth="yes"/>
			<point x="116" y="52" type="line"/>
			<point x="176" y="334" type="line"/>
			<point x="332" y="334" type="line" smooth="yes"/>
			<point x="348" y="334"/>
			<point x="362" y="333"/>
			<point x="385" y="331" type="curve" smooth="yes"/>
			<point x="475" y="323"/>
			<point x="508" y="272"/>
			<point x="491" y="190" type="curve" smooth="yes"/>
			<point x="472" y="102"/>
			<point x="399" y="59"/>
		</contour>
	</outline>
</glyph>
<glyph name="I" format="2">
	<advance width="236"/>
	<unicode hex="0049"/>
	<note>
		I
	</note>
	<outline>
		<contour>
			<point x="43" y="0" type="line"/>
			<point x="105" y="0" type="line"/>
			<point x="251" y="690" type="line"/>
			<point x="189" y="690" type="line"/>
		</contour>
	</outline>
</glyph>
<glyph name="K" format="2">
	<advance width="588"/>
	<unicode hex="004B"/>
	<note>
		K
	</note>
	<outline>
		<contour>
			<point x="526" y="0" type="line"/>
			<point x="285" y="354" type="line"/>
			<point x="685" y="690" type="line"/>
			<point x="611" y="690" type="line"/>
			<point x="174" y="324" type="line"/>
			<point x="251" y="690" type="line"/>
			<point x="189" y="690" type="line"/>
			<point x="43" y="0" type="line"/>
			<point x="105" y="0" type="line"/>
			<point x="158" y="252" type="line"/>
			<point x="229" y="313" type="line"/>
			<point x="438" y="0" type="line"/>
		</contour>
	</outline>
</glyph>
<glyph name="M" format="2">
	<advance width="839"/>
	<unicode hex="004D"/>
	<note>
		M
	</note>
	<outline>
		<contour>
			<point x="708" y="0" type="line"/>
			<point x="854" y="690" type="line"/>
			<point x="755" y="690" type="line"/>
			<point x="388" y="52" type="line"/>
			<point x="290" y="690" type="line"/>
			<point x="189" y="690" type="line"/>
			<point x="43" y="0" type="line"/>
			<point x="105" y="0" type="line"/>
			<point x="184" y="372" type="line" smooth="yes"/>
			<point x="202" y="458"/>
			<point x="222" y="554"/>
			<point x="237" y="634" type="curve"/>
			<point x="247" y="555"/>
			<point x="261" y="458"/>
			<point x="274" y="374" type="curve" smooth="yes"/>
			<point x="336" y="0" type="line"/>
			<point x="414" y="0" type="line"/>
			<point x="633" y="373" type="line" smooth="yes"/>
			<point x="683" y="458"/>
			<point x="739" y="555"/>
			<point x="783" y="635" type="curve"/>
			<point x="764" y="555"/>
			<point x="743" y="459"/>
			<point x="725" y="372" type="curve" smooth="yes"/>
			<point x="646" y="0" type="line"/>
		</contour>
	</outline>
</glyph>
<glyph name="Q" format="2">
	<advance width="726"/>
	<unicode hex="0051"/>
	<note>
		Q
	</note>
	<outline>
		<contour>
			<point x="707" y="345" type="curve" smooth="yes"/>
			<point x="752" y="555"/>
			<point x="664" y="704"/>
			<point x="462" y="704" type="curve" smooth="yes"/>
			<point x="261" y="704"/>
			<point x="111" y="555"/>
			<point x="66" y="345" type="curve" smooth="yes"/>
			<point x="22" y="137"/>
			<point x="109" y="-14"/>
			<point x="310" y="-14" type="curve" smooth="yes"/>
			<point x="337" y="-14"/>
			<point x="359" y="-12"/>
			<point x="382" y="-7" type="curve" smooth="yes"/>
			<point x="411" y="-1"/>
			<point x="429" y="2"/>
			<point x="455" y="2" type="curve" smooth="yes"/>
			<point x="496" y="2"/>
			<point x="528" y="-8"/>
			<point x="581" y="-52" type="curve"/>
			<point x="626" y="-9" type="line"/>
			<point x="590" y="28"/>
			<point x="554" y="50"/>
			<point x="505" y="55" type="curve"/>
			<point x="618" y="121"/>
			<point x="682" y="229"/>
		</contour>
		<contour>
			<point x="135" y="345" type="curve" smooth="yes"/>
			<point x="176" y="539"/>
			<point x="304" y="654"/>
			<point x="452" y="654" type="curve" smooth="yes"/>
			<point x="601" y="654"/>
			<point x="679" y="539"/>
			<point x="638" y="345" type="curve" smooth="yes"/>
			<point x="597" y="152"/>
			<point x="469" y="36"/>
			<point x="320" y="36" type="curve" smooth="yes"/>
			<point x="172" y="36"/>
			<point x="94" y="152"/>
		</contour>
	</outline>
</glyph>
<glyph name="S" format="2">
	<advance width="576"/>
	<unicode hex="0053"/>
	<note>
		S
	</note>
	<outline>
		<contour>
			<point x="396" y="704" type="curve" smooth="yes"/>
			<point x="274" y="704"/>
			<point x="157" y="630"/>
			<point x="133" y="518" type="curve" smooth="yes"/>
			<point x="109" y="407"/>
			<point x="177" y="361"/>
			<point x="301" y="327" type="curve" smooth="yes"/>
			<point x="423" y="295"/>
			<point x="467" y="257"/>
			<point x="448" y="168" type="curve" smooth="yes"/>
			<point x="431" y="88"/>
			<point x="347" y="36"/>
			<point x="256" y="36" type="curve" smooth="yes"/>
			<point x="157" y="36"/>
			<point x="93" y="91"/>
			<point x="97" y="190" type="curve"/>
			<point x="31" y="190" type="line"/>
			<point x="18" y="57"/>
			<point x="104" y="-14"/>
			<point x="244" y="-14" type="curve" smooth="yes"/>
			<point x="376" y="-14"/>
			<point x="492" y="64"/>
			<point x="517" y="178" type="curve" smooth="yes"/>
			<point x="541" y="292"/>
			<point x="479" y="348"/>
			<point x="339" y="386" type="curve" smooth="yes"/>
			<point x="227" y="416"/>
			<point x="185" y="447"/>
			<point x="203" y="531" type="curve" smooth="yes"/>
			<point x="220" y="613"/>
			<point x="302" y="654"/>
			<point x="381" y="654" type="curve" smooth="yes"/>
			<point x="472" y="654"/>
			<point x="520" y="599"/>
			<point x="512" y="505" type="curve"/>
			<point x="577" y="505" type="line"/>
			<point x="588" y="617"/>
			<point x="534" y="704"/>
		</contour>
	</outline>
</glyph>
<glyph name="T" format="2">
	<advance width="600"/>
	<unicode hex="0054"/>
	<note>
		T
	</note>
	<outline>
		<contour>
			<point x="427" y="639" type="line"/>
			<point x="680" y="639" type="line"/>
			<point x="691" y="690" type="line"/>
			<point x="123" y="690" type="line"/>
			<point x="112" y="639" type="line"/>
			<point x="365" y="639" type="line"/>
			<point x="230" y="0" type="line"/>
			<point x="292" y="0" type="line"/>
		</contour>
	</outline>
</glyph>
<glyph name="V" format="2">
	<advance width="607"/>
	<unicode hex="0056"/>
	<note>
		V
	</note>
	<outline>
		<contour>
			<point x="223" y="0" type="line"/>
			<point x="306" y="0" type="line"/>
			<point x="708" y="690" type="line"/>
			<point x="641" y="690" type="line"/>
			<point x="276" y="48" type="line"/>
			<point x="187" y="690" type="line"/>
			<point x="120" y="690" type="line"/>
		</contour>
	</outline>
</glyph>
<glyph name="X" format="2">
	<advance width="605"/>
	<unicode hex="0058"/>
	<note>
		X
	</note>
	<outline>
		<contour>
			<point x="318" y="306" type="line"/>
			<point x="468" y="0" type="line"/>
			<point x="542" y="0" type="line"/>
			<point x="365" y="349" type="line"/>
			<point x="684" y="690" type="line"/>
			<point x="611" y="690" type="line"/>
			<point x="339" y="390" type="line"/>
			<point x="204" y="690" type="line"/>
			<point x="134" y="690" type="line"/>
			<point x="290" y="347" type="line"/>
			<point x="-30" y="0" type="line"/>
			<point x="43" y="0" type="line"/>
		</contour>
	</outline>
</glyph>
<glyph name="Z" format="2">
	<advance width="571"/>
	<unicode hex="005A"/>
	<note>
		Z
	</note>
	<outline>
		<contour>
			<point x="492" y="0" type="line"/>
			<point x="503" y="52" type="line"/>
			<point x="71" y="52" type="line"/>
			<point x="621" y="639" type="line"/>
			<point x="632" y="690" type="line"/>
			<point x="160" y="690" type="line"/>
			<point x="149" y="638" type="line"/>
			<point x="549" y="638" type="line"/>
			<point x="-4" y="48" type="line"/>
			<point x="-14" y="0" type="line"/>
		</contour>
	</outline>
</glyph>
<glyph name="bracketright" format="2">
	<advance width="301"/>
	<unicode hex="005D"/>
	<note>
		bracketright
	</note>
	<outline>
		<contour>
			<point x="-42" y="-80" type="line"/>
			<point x="117" y="-80" type="line"/>
			<point x="299" y="780" type="line"/>
			<point x="140" y="780" type="line"/>
			<point x="131" y="737" type="line"/>
			<point x="246" y="737" type="line"/>
			<point x="82" y="-37" type="line"/>
			<point x="-33" y="-37" type="line"/>
		</contour>
	</outline>
</glyph>
<glyph name="underscore" format="2">
	<advance width="500"/>
	<unicode hex="005F"/>
	<note>
		underscore
	</note>
	<outline>
		<contour>
			<point x="-24" y="-84" type="line"/>
			<point x="376" y="-84" type="line"/>
			<point x="385" y="-41" type="line"/>
			<point x="-15" y="-41" type="line"/>
		</contour>
	</outline>
</glyph>
<glyph name="grave" format="2">
	<advance width="300"/>
	<unicode hex="0060"/>
	<note>
		grave
	</note>
	<outline>
		<contour>
			<point x="199" y="580" type="line"/>
			<point x="242" y="580" type="line"/>
			<point x="204" y="690" type="line"/>
			<point x="143" y="690" type="line"/>
		</contour>
	</outline>
</glyph>
<glyph name="j" format="2">
	<advance width="204"/>
	<unicode hex="006A"/>
	<note>
		j
	</note>
	<outline>
		<contour>
			<point x="61" y="-56" type="curve" smooth="yes"/>
			<point x="185" y="529" type="line"/>
			<point x="123" y="529" type="line"/>
			<point x="-3" y="-63" type="line" smooth="yes"/>
			<point x="-6" y="-78"/>
			<point x="-9" y="-91"/>
			<point x="-13" y="-105" type="curve" smooth="yes"/>
			<point x="-26" y="-149"/>
			<point x="-56" y="-163"/>
			<point x="-109" y="-156" type="curve"/>
			<point x="-120" y="-207" type="line"/>
			<point x="-108" y="-210"/>
			<point x="-96" y="-210"/>
			<point x="-82" y="-210" type="curve" smooth="yes"/>
			<point x="-15" y="-210"/>
			<point x="27" y="-178"/>
			<point x="46" y="-116" type="curve" smooth="yes"/>
			<point x="52" y="-98"/>
			<point x="57" y="-76"/>
		</contour>
		<contour>
			<point x="150" y="679" type="line"/>
			<point x="135" y="607" type="line"/>
			<point x="207" y="607" type="line"/>
			<point x="222" y="679" type="line"/>
		</contour>
	</outline>
</glyph>
<glyph name="k" format="2">
	<advance width="498"/>
	<unicode hex="006B"/>
	<note>
		k
	</note>
	<outline>
		<contour>
			<point x="177" y="237" type="line"/>
			<point x="347" y="0" type="line"/>
			<point x="433" y="0" type="line"/>
			<point x="230" y="276" type="line"/>
			<point x="543" y="529" type="line"/>
			<point x="462" y="529" type="line"/>
			<point x="133" y="254" type="line"/>
			<point x="235" y="735" type="line"/>
			<point x="173" y="735" type="line"/>
			<point x="17" y="0" type="line"/>
			<point x="79" y="0" type="line"/>
			<point x="118" y="186" type="line"/>
		</contour>
	</outline>
</glyph>
<glyph name="t" format="2">
	<advance width="284"/>
	<unicode hex="0074"/>
	<note>
		t
	</note>
	<outline>
		<contour>
			<point x="127" y="145" type="curve" smooth="yes"/>
			<point x="198" y="477" type="line"/>
			<point x="299" y="477" type="line"/>
			<point x="309" y="525" type="line"/>
			<point x="208" y="525" type="line"/>
			<point x="233" y="642" type="line"/>
			<point x="171" y="642" type="line"/>
			<point x="146" y="525" type="line"/>
			<point x="78" y="525" type="line"/>
			<point x="68" y="477" type="line"/>
			<point x="136" y="477" type="line"/>
			<point x="65" y="144" type="line" smooth="yes"/>
			<point x="59" y="114"/>
			<point x="55" y="94"/>
			<point x="52" y="76" type="curve" smooth="yes"/>
			<point x="44" y="18"/>
			<point x="70" y="-8"/>
			<point x="129" y="-8" type="curve" smooth="yes"/>
			<point x="150" y="-8"/>
			<point x="172" y="-7"/>
			<point x="194" y="-3" type="curve"/>
			<point x="204" y="43" type="line"/>
			<point x="131" y="34"/>
			<point x="112" y="47"/>
			<point x="119" y="98" type="curve" smooth="yes"/>
			<point x="120" y="112"/>
			<point x="123" y="123"/>
		</contour>
	</outline>
</glyph>
<glyph name="v" format="2">
	<advance width="497"/>
	<unicode hex="0076"/>
	<note>
		v
	</note>
	<outline>
		<contour>
			<point x="230" y="0" type="line"/>
			<point x="546" y="529" type="line"/>
			<point x="480" y="529" type="line"/>
			<point x="203" y="46" type="line"/>
			<point x="130" y="529" type="line"/>
			<point x="62" y="529" type="line"/>
			<point x="153" y="0" type="line"/>
		</contour>
	</outline>
</glyph>
<glyph name="x" format="2">
	<advance width="458"/>
	<unicode hex="0078"/>
	<note>
		x
	</note>
	<outline>
		<contour>
			<point x="389" y="0" type="line"/>
			<point x="259" y="268" type="line"/>
			<point x="500" y="529" type="line"/>
			<point x="428" y="529" type="line"/>
			<point x="233" y="308" type="line"/>
			<point x="134" y="529" type="line"/>
			<point x="61" y="529" type="line"/>
			<point x="186" y="267" type="line"/>
			<point x="-59" y="0" type="line"/>
			<point x="13" y="0" type="line"/>
			<point x="213" y="227" type="line"/>
			<point x="316" y="0" type="line"/>
		</contour>
	</outline>
</glyph>
<glyph name="braceleft" format="2">
	<advance width="300"/>
	<unicode hex="007B"/>
	<note>
		braceleft
	</note>
	<outline>
		<contour>
			<point x="361" y="737" type="curve" smooth="yes"/>
			<point x="375" y="737" type="line"/>
			<point x="384" y="780" type="line"/>
			<point x="371" y="780" type="line" smooth="yes"/>
			<point x="289" y="780"/>
			<point x="233" y="755"/>
			<point x="216" y="672" type="curve" smooth="yes"/>
			<point x="211" y="651"/>
			<point x="209" y="632"/>
			<point x="204" y="565" type="curve" smooth="yes"/>
			<point x="200" y="509"/>
			<point x="197" y="482"/>
			<point x="191" y="455" type="curve" smooth="yes"/>
			<point x="182" y="411"/>
			<point x="153" y="378"/>
			<point x="92" y="372" type="curve"/>
			<point x="82" y="328" type="line"/>
			<point x="141" y="322"/>
			<point x="156" y="289"/>
			<point x="147" y="245" type="curve" smooth="yes"/>
			<point x="141" y="219"/>
			<point x="132" y="191"/>
			<point x="112" y="135" type="curve" smooth="yes"/>
			<point x="89" y="68"/>
			<point x="83" y="49"/>
			<point x="79" y="28" type="curve" smooth="yes"/>
			<point x="61" y="-55"/>
			<point x="107" y="-80"/>
			<point x="189" y="-80" type="curve" smooth="yes"/>
			<point x="202" y="-80" type="line"/>
			<point x="211" y="-37" type="line"/>
			<point x="197" y="-37" type="line" smooth="yes"/>
			<point x="137" y="-37"/>
			<point x="113" y="-18"/>
			<point x="122" y="27" type="curve" smooth="yes"/>
			<point x="127" y="50"/>
			<point x="133" y="65"/>
			<point x="154" y="125" type="curve" smooth="yes"/>
			<point x="178" y="194"/>
			<point x="186" y="219"/>
			<point x="192" y="247" type="curve" smooth="yes"/>
			<point x="203" y="300"/>
			<point x="183" y="344"/>
			<point x="125" y="351" type="curve"/>
			<point x="187" y="358"/>
			<point x="225" y="400"/>
			<point x="236" y="453" type="curve" smooth="yes"/>
			<point x="242" y="481"/>
			<point x="244" y="507"/>
			<point x="250" y="575" type="curve" smooth="yes"/>
			<point x="255" y="635"/>
			<point x="255" y="650"/>
			<point x="260" y="673" type="curve" smooth="yes"/>
			<point x="269" y="718"/>
			<point x="301" y="737"/>
		</contour>
	</outline>
</glyph>
<glyph name="braceright" format="2">
	<advance width="300"/>
	<unicode hex="007D"/>
	<note>
		braceright
	</note>
	<outline>
		<contour>
			<point x="244" y="328" type="curve"/>
			<point x="254" y="372" type="line"/>
			<point x="195" y="378"/>
			<point x="181" y="411"/>
			<point x="190" y="455" type="curve" smooth="yes"/>
			<point x="196" y="482"/>
			<point x="204" y="509"/>
			<point x="224" y="565" type="curve" smooth="yes"/>
			<point x="248" y="632"/>
			<point x="254" y="651"/>
			<point x="259" y="672" type="curve" smooth="yes"/>
			<point x="276" y="755"/>
			<point x="229" y="780"/>
			<point x="147" y="780" type="curve" smooth="yes"/>
			<point x="134" y="780" type="line"/>
			<point x="125" y="737" type="line"/>
			<point x="139" y="737" type="line" smooth="yes"/>
			<point x="200" y="737"/>
			<point x="223" y="718"/>
			<point x="214" y="673" type="curve" smooth="yes"/>
			<point x="209" y="650"/>
			<point x="204" y="635"/>
			<point x="183" y="575" type="curve" smooth="yes"/>
			<point x="158" y="507"/>
			<point x="150" y="481"/>
			<point x="144" y="453" type="curve" smooth="yes"/>
			<point x="133" y="400"/>
			<point x="153" y="356"/>
			<point x="211" y="349" type="curve"/>
			<point x="150" y="342"/>
			<point x="111" y="300"/>
			<point x="100" y="247" type="curve" smooth="yes"/>
			<point x="94" y="219"/>
			<point x="92" y="194"/>
			<point x="87" y="125" type="curve" smooth="yes"/>
			<point x="82" y="65"/>
			<point x="81" y="50"/>
			<point x="76" y="27" type="curve" smooth="yes"/>
			<point x="67" y="-18"/>
			<point x="36" y="-37"/>
			<point x="-25" y="-37" type="curve" smooth="yes"/>
			<point x="-39" y="-37" type="line"/>
			<point x="-48" y="-80" type="line"/>
			<point x="-35" y="-80" type="line" smooth="yes"/>
			<point x="47" y="-80"/>
			<point x="104" y="-55"/>
			<point x="122" y="28" type="curve" smooth="yes"/>
			<point x="126" y="49"/>
			<point x="128" y="68"/>
			<point x="132" y="135" type="curve" smooth="yes"/>
			<point x="136" y="191"/>
			<point x="140" y="219"/>
			<point x="146" y="245" type="curve" smooth="yes"/>
			<point x="155" y="289"/>
			<point x="183" y="322"/>
		</contour>
	</outline>
</glyph>
<glyph name="cent" format="2">
	<advance width="549"/>
	<unicode hex="00A2"/>
	<note>
		cent
	</note>
	<outline>
		<contour>
			<point x="258" y="36" type="curve"/>
			<point x="356" y="494" type="line"/>
			<point x="429" y="488"/>
			<point x="467" y="440"/>
			<point x="467" y="358" type="curve"/>
			<point x="532" y="358" type="line"/>
			<point x="540" y="466"/>
			<point x="479" y="539"/>
			<point x="366" y="544" type="curve"/>
			<point x="382" y="620" type="line"/>
			<point x="338" y="620" type="line"/>
			<point x="322" y="542" type="line"/>
			<point x="200" y="527"/>
			<point x="81" y="426"/>
			<point x="47" y="264" type="curve" smooth="yes"/>
			<point x="9" y="87"/>
			<point x="83" y="-5"/>
			<point x="204" y="-13" type="curve"/>
			<point x="188" y="-90" type="line"/>
			<point x="232" y="-90" type="line"/>
			<point x="248" y="-13" type="line"/>
			<point x="352" y="-4"/>
			<point x="441" y="57"/>
			<point x="486" y="165" type="curve"/>
			<point x="421" y="165" type="line"/>
			<point x="388" y="88"/>
			<point x="327" y="44"/>
		</contour>
		<contour>
			<point x="116" y="270" type="curve" smooth="yes"/>
			<point x="145" y="407"/>
			<point x="230" y="479"/>
			<point x="311" y="493" type="curve"/>
			<point x="215" y="37" type="line"/>
			<point x="137" y="48"/>
			<point x="84" y="121"/>
		</contour>
	</outline>
</glyph>
<glyph name="logicalnot" format="2">
	<advance width="561"/>
	<unicode hex="00AC"/>
	<note>
		logicalnot
	</note>
	<outline>
		<contour>
			<point x="401" y="210" type="line"/>
			<point x="445" y="210" type="line"/>
			<point x="481" y="377" type="line"/>
			<point x="119" y="377" type="line"/>
			<point x="110" y="334" type="line"/>
			<point x="428" y="334" type="line"/>
		</contour>
	</outline>
</glyph>
<glyph name="registered" format="2">
	<advance width="513"/>
	<unicode hex="00AE"/>
	<note>
		registered
	</note>
	<outline>
		<contour>
			<point x="363" y="764" type="curve" smooth="yes"/>
			<point x="240" y="764"/>
			<point x="135" y="677"/>
			<point x="108" y="554" type="curve" smooth="yes"/>
			<point x="82" y="431"/>
			<point x="151" y="344"/>
			<point x="274" y="344" type="curve" smooth="yes"/>
			<point x="397" y="344"/>
			<point x="502" y="431"/>
			<point x="528" y="554" type="curve" smooth="yes"/>
			<point x="555" y="677"/>
			<point x="486" y="764"/>
		</contour>
		<contour>
			<point x="282" y="381" type="curve" smooth="yes"/>
			<point x="181" y="381"/>
			<point x="125" y="453"/>
			<point x="146" y="554" type="curve" smooth="yes"/>
			<point x="168" y="656"/>
			<point x="254" y="727"/>
			<point x="355" y="727" type="curve" smooth="yes"/>
			<point x="455" y="727"/>
			<point x="511" y="656"/>
			<point x="489" y="554" type="curve" smooth="yes"/>
			<point x="468" y="453"/>
			<point x="382" y="381"/>
		</contour>
		<contour>
			<point x="358" y="552" type="curve"/>
			<point x="383" y="559"/>
			<point x="405" y="576"/>
			<point x="411" y="602" type="curve" smooth="yes"/>
			<point x="418" y="638"/>
			<point x="396" y="654"/>
			<point x="360" y="658" type="curve" smooth="yes"/>
			<point x="351" y="659"/>
			<point x="343" y="659"/>
			<point x="335" y="659" type="curve" smooth="yes"/>
			<point x="272" y="659" type="line"/>
			<point x="228" y="455" type="line"/>
			<point x="267" y="455" type="line"/>
			<point x="283" y="528" type="line"/>
			<point x="313" y="528" type="line" smooth="yes"/>
			<point x="330" y="528"/>
			<point x="338" y="521"/>
			<point x="338" y="503" type="curve" smooth="yes"/>
			<point x="335" y="481"/>
			<point x="336" y="467"/>
			<point x="337" y="455" type="curve"/>
			<point x="381" y="455" type="line"/>
			<point x="379" y="466"/>
			<point x="376" y="483"/>
			<point x="378" y="509" type="curve" smooth="yes"/>
			<point x="380" y="530"/>
			<point x="376" y="547"/>
		</contour>
		<contour>
			<point x="313" y="562" type="curve" smooth="yes"/>
			<point x="290" y="562" type="line"/>
			<point x="304" y="627" type="line"/>
			<point x="330" y="627" type="line" smooth="yes"/>
			<point x="338" y="627"/>
			<point x="342" y="627"/>
			<point x="348" y="626" type="curve" smooth="yes"/>
			<point x="361" y="623"/>
			<point x="371" y="614"/>
			<point x="367" y="594" type="curve" smooth="yes"/>
			<point x="363" y="576"/>
			<point x="351" y="566"/>
			<point x="333" y="563" type="curve" smooth="yes"/>
			<point x="327" y="562"/>
			<point x="322" y="562"/>
		</contour>
	</outline>
</glyph>
<glyph name="degree" format="2">
	<advance width="290"/>
	<unicode hex="00B0"/>
	<note>
		degree
	</note>
	<outline>
		<contour>
			<point x="238" y="704" type="curve" smooth="yes"/>
			<point x="171" y="704"/>
			<point x="115" y="658"/>
			<point x="101" y="592" type="curve" smooth="yes"/>
			<point x="86" y="525"/>
			<point x="124" y="480"/>
			<point x="191" y="480" type="curve" smooth="yes"/>
			<point x="257" y="480"/>
			<point x="314" y="525"/>
			<point x="329" y="592" type="curve" smooth="yes"/>
			<point x="343" y="658"/>
			<point x="304" y="704"/>
		</contour>
		<contour>
			<point x="229" y="661" type="curve" smooth="yes"/>
			<point x="268" y="661"/>
			<point x="289" y="633"/>
			<point x="281" y="592" type="curve" smooth="yes"/>
			<point x="272" y="551"/>
			<point x="239" y="522"/>
			<point x="200" y="522" type="curve" smooth="yes"/>
			<point x="161" y="522"/>
			<point x="139" y="551"/>
			<point x="148" y="592" type="curve" smooth="yes"/>
			<point x="156" y="633"/>
			<point x="190" y="661"/>
		</contour>
	</outline>
</glyph>
<glyph name="acute" format="2">
	<advance width="300"/>
	<unicode hex="00B4"/>
	<note>
		acute
	</note>
	<outline>
		<contour>
			<point x="191" y="580" type="line"/>
			<point x="233" y="580" type="line"/>
			<point x="335" y="690" type="line"/>
			<point x="275" y="690" type="line"/>
		</contour>
	</outline>
</glyph>
<glyph name="paragraph" format="2">
	<advance width="552"/>
	<unicode hex="00B6"/>
	<note>
		paragraph
	</note>
	<outline>
		<contour>
			<point x="397" y="-110" type="line"/>
			<point x="567" y="690" type="line"/>
			<point x="349" y="690" type="line" smooth="yes"/>
			<point x="331" y="690"/>
			<point x="310" y="690"/>
			<point x="293" y="689" type="curve" smooth="yes"/>
			<point x="190" y="683"/>
			<point x="117" y="600"/>
			<point x="97" y="505" type="curve" smooth="yes"/>
			<point x="77" y="410"/>
			<point x="114" y="327"/>
			<point x="215" y="321" type="curve" smooth="yes"/>
			<point x="232" y="320"/>
			<point x="253" y="320"/>
			<point x="271" y="320" type="curve" smooth="yes"/>
			<point x="294" y="320" type="line"/>
			<point x="202" y="-110" type="line"/>
			<point x="247" y="-110" type="line"/>
			<point x="408" y="647" type="line"/>
			<point x="513" y="647" type="line"/>
			<point x="352" y="-110" type="line"/>
		</contour>
	</outline>
</glyph>
<glyph name="cedilla" format="2">
	<advance width="300"/>
	<unicode hex="00B8"/>
	<note>
		cedilla
	</note>
	<outline>
		<contour>
			<point x="83" y="-44" type="curve"/>
			<point x="123" y="8" type="line"/>
			<point x="80" y="8" type="line"/>
			<point x="19" y="-75" type="line"/>
			<point x="89" y="-70"/>
			<point x="113" y="-90"/>
			<point x="105" y="-126" type="curve" smooth="yes"/>
			<point x="98" y="-158"/>
			<point x="68" y="-176"/>
			<point x="26" y="-176" type="curve" smooth="yes"/>
			<point x="4" y="-176"/>
			<point x="-11" y="-173"/>
			<point x="-24" y="-165" type="curve"/>
			<point x="-32" y="-201" type="line"/>
			<point x="-19" y="-207"/>
			<point x="-3" y="-210"/>
			<point x="17" y="-210" type="curve" smooth="yes"/>
			<point x="81" y="-210"/>
			<point x="138" y="-182"/>
			<point x="150" y="-125" type="curve" smooth="yes"/>
			<point x="160" y="-77"/>
			<point x="135" y="-50"/>
		</contour>
	</outline>
</glyph>
<glyph name="guillemotright" format="2">
	<advance width="536"/>
	<unicode hex="00BB"/>
	<note>
		guillemotright
	</note>
	<outline>
		<contour>
			<point x="82" y="82" type="line"/>
			<point x="254" y="248" type="line"/>
			<point x="153" y="414" type="line"/>
			<point x="97" y="414" type="line"/>
			<point x="198" y="248" type="line"/>
			<point x="26" y="82" type="line"/>
		</contour>
		<contour>
			<point x="233" y="82" type="line"/>
			<point x="405" y="248" type="line"/>
			<point x="304" y="414" type="line"/>
			<point x="248" y="414" type="line"/>
			<point x="349" y="248" type="line"/>
			<point x="177" y="82" type="line"/>
		</contour>
	</outline>
</glyph>
<glyph name="questiondown" format="2">
	<advance width="484"/>
	<unicode hex="00BF"/>
	<note>
		questiondown
	</note>
	<outline>
		<contour>
			<point x="176" y="-176" type="curve" smooth="yes"/>
			<point x="303" y="-176"/>
			<point x="409" y="-92"/>
			<point x="440" y="34" type="curve"/>
			<point x="375" y="34" type="line"/>
			<point x="348" y="-66"/>
			<point x="278" y="-126"/>
			<point x="189" y="-126" type="curve" smooth="yes"/>
			<point x="106" y="-126"/>
			<point x="65" y="-75"/>
			<point x="82" y="5" type="curve" smooth="yes"/>
			<point x="95" y="67"/>
			<point x="129" y="112"/>
			<point x="211" y="184" type="curve" smooth="yes"/>
			<point x="298" y="259"/>
			<point x="322" y="296"/>
			<point x="342" y="374" type="curve"/>
			<point x="281" y="374" type="line"/>
			<point x="265" y="306"/>
			<point x="243" y="274"/>
			<point x="156" y="203" type="curve" smooth="yes"/>
			<point x="76" y="139"/>
			<point x="28" y="76"/>
			<point x="13" y="5" type="curve" smooth="yes"/>
			<point x="-9" y="-96"/>
			<point x="45" y="-176"/>
		</contour>
		<contour>
			<point x="315" y="543" type="line"/>
			<point x="295" y="447" type="line"/>
			<point x="359" y="447" type="line"/>
			<point x="379" y="543" type="line"/>
		</contour>
	</outline>
</glyph>
<glyph name="Aacute" format="2">
	<advance width="630"/>
	<unicode hex="00C1"/>
	<note>
		Aacute
	</note>
	<outline>
		<contour>
			<point x="403" y="736" type="line"/>
			<point x="445" y="736" type="line"/>
			<point x="537" y="830" type="line"/>
			<point x="477" y="830" type="line"/>
		</contour>
		<contour>
			<point x="184" y="253" type="line"/>
			<point x="459" y="253" type="line"/>
			<point x="496" y="0" type="line"/>
			<point x="563" y="0" type="line"/>
			<point x="460" y="690" type="line"/>
			<point x="377" y="690" type="line"/>
			<point x="-24" y="0" type="line"/>
			<point x="42" y="0" type="line"/>
		</contour>
		<contour>
			<point x="453" y="305" type="line"/>
			<point x="214" y="305" type="line"/>
			<point x="407" y="640" type="line"/>
		</contour>
	</outline>
</glyph>
<glyph name="Atilde" format="2">
	<advance width="630"/>
	<unicode hex="00C3"/>
	<note>
		Atilde
	</note>
	<outline>
		<contour>
			<point x="385" y="776" type="curve" smooth="yes"/>
			<point x="394" y="776"/>
			<point x="405" y="773"/>
			<point x="427" y="765" type="curve" smooth="yes"/>
			<point x="452" y="756"/>
			<point x="467" y="752"/>
			<point x="485" y="752" type="curve" smooth="yes"/>
			<point x="514" y="752"/>
			<point x="534" y="767"/>
			<point x="543" y="811" type="curve"/>
			<point x="512" y="811" type="line"/>
			<point x="509" y="796"/>
			<point x="502" y="791"/>
			<point x="492" y="791" type="curve" smooth="yes"/>
			<point x="483" y="791"/>
			<point x="471" y="794"/>
			<point x="449" y="802" type="curve" smooth="yes"/>
			<point x="424" y="811"/>
			<point x="410" y="815"/>
			<point x="392" y="815" type="curve" smooth="yes"/>
			<point x="363" y="815"/>
			<point x="343" y="800"/>
			<point x="333" y="756" type="curve"/>
			<point x="364" y="756" type="line"/>
			<point x="368" y="771"/>
			<point x="375" y="776"/>
		</contour>
		<contour>
			<point x="184" y="253" type="line"/>
			<point x="459" y="253" type="line"/>
			<point x="496" y="0" type="line"/>
			<point x="563" y="0" type="line"/>
			<point x="460" y="690" type="line"/>
			<point x="377" y="690" type="line"/>
			<point x="-24" y="0" type="line"/>
			<point x="42" y="0" type="line"/>
		</contour>
		<contour>
			<point x="453" y="305" type="line"/>
			<point x="214" y="305" type="line"/>
			<point x="407" y="640" type="line"/>
		</contour>
	</outline>
</glyph>
<glyph name="Adieresis" format="2">
	<advance width="630"/>
	<unicode hex="00C4"/>
	<note>
		Adieresis
	</note>
	<outline>
		<contour>
			<point x="184" y="253" type="line"/>
			<point x="459" y="253" type="line"/>
			<point x="496" y="0" type="line"/>
			<point x="563" y="0" type="line"/>
			<point x="460" y="690" type="line"/>
			<point x="377" y="690" type="line"/>
			<point x="-24" y="0" type="line"/>
			<point x="42" y="0" type="line"/>
		</contour>
		<contour>
			<point x="453" y="305" type="line"/>
			<point x="214" y="305" type="line"/>
			<point x="407" y="640" type="line"/>
		</contour>
		<contour>
			<point x="353" y="819" type="line"/>
			<point x="337" y="747" type="line"/>
			<point x="409" y="747" type="line"/>
			<point x="425" y="819" type="line"/>
		</contour>
		<contour>
			<point x="467" y="819" type="line"/>
			<point x="452" y="747" type="line"/>
			<point x="524" y="747" type="line"/>
			<point x="539" y="819" type="line"/>
		</contour>
	</outline>
</glyph>
<glyph name="AE" format="2">
	<advance width="904"/>
	<unicode hex="00C6"/>
	<note>
		AE
	</note>
	<outline>
		<contour>
			<point x="818" y="0" type="line"/>
			<point x="829" y="51" type="line"/>
			<point x="466" y="51" type="line"/>
			<point x="508" y="319" type="line"/>
			<point x="849" y="319" type="line"/>
			<point x="861" y="371" type="line"/>
			<point x="518" y="371" type="line"/>
			<point x="560" y="639" type="line"/>
			<point x="943" y="639" type="line"/>
			<point x="954" y="690" type="line"/>
			<point x="476" y="690" type="line"/>
			<point x="-82" y="0" type="line"/>
			<point x="-14" y="0" type="line"/>
			<point x="188" y="253" type="line"/>
			<point x="436" y="253" type="line"/>
			<point x="396" y="0" type="line"/>
		</contour>
		<contour>
			<point x="498" y="640" type="line"/>
			<point x="445" y="305" type="line"/>
			<point x="230" y="305" type="line"/>
		</contour>
	</outline>
</glyph>
<glyph name="Edieresis" format="2">
	<advance width="576"/>
	<unicode hex="00CB"/>
	<note>
		Edieresis
	</note>
	<outline>
		<contour>
			<point x="490" y="0" type="line"/>
			<point x="501" y="51" type="line"/>
			<point x="116" y="51" type="line"/>
			<point x="172" y="319" type="line"/>
			<point x="521" y="319" type="line"/>
			<point x="533" y="371" type="line"/>
			<point x="184" y="371" type="line"/>
			<point x="240" y="639" type="line"/>
			<point x="615" y="639" type="line"/>
			<point x="626" y="690" type="line"/>
			<point x="189" y="690" type="line"/>
			<point x="43" y="0" type="line"/>
		</contour>
		<contour>
			<point x="344" y="819" type="line"/>
			<point x="328" y="747" type="line"/>
			<point x="400" y="747" type="line"/>
			<point x="416" y="819" type="line"/>
		</contour>
		<contour>
			<point x="458" y="819" type="line"/>
			<point x="442" y="747" type="line"/>
			<point x="514" y="747" type="line"/>
			<point x="530" y="819" type="line"/>
		</contour>
	</outline>
</glyph>
<glyph name="Igrave" format="2">
	<advance width="236"/>
	<unicode hex="00CC"/>
	<note>
		Igrave
	</note>
	<outline>
		<contour>
			<point x="210" y="736" type="line"/>
			<point x="252" y="736" type="line"/>
			<point x="219" y="830" type="line"/>
			<point x="158" y="830" type="line"/>
		</contour>
		<contour>
			<point x="43" y="0" type="line"/>
			<point x="105" y="0" type="line"/>
			<point x="251" y="690" type="line"/>
			<point x="189" y="690" type="line"/>
		</contour>
	</outline>
</glyph>
<glyph name="Idieresis" format="2">
	<advance width="236"/>
	<unicode hex="00CF"/>
	<note>
		Idieresis
	</note>
	<outline>
		<contour>
			<point x="43" y="0" type="line"/>
			<point x="105" y="0" type="line"/>
			<point x="251" y="690" type="line"/>
			<point x="189" y="690" type="line"/>
		</contour>
		<contour>
			<point x="157" y="821" type="line"/>
			<point x="142" y="749" type="line"/>
			<point x="214" y="749" type="line"/>
			<point x="229" y="821" type="line"/>
		</contour>
		<contour>
			<point x="271" y="821" type="line"/>
			<point x="256" y="749" type="line"/>
			<point x="328" y="749" type="line"/>
			<point x="343" y="821" type="line"/>
		</contour>
	</outline>
</glyph>
<glyph name="Ntilde" format="2">
	<advance width="688"/>
	<unicode hex="00D1"/>
	<note>
		Ntilde
	</note>
	<outline>
		<contour>
			<point x="419" y="815" type="curve" smooth="yes"/>
			<point x="390" y="815"/>
			<point x="370" y="800"/>
			<point x="360" y="756" type="curve"/>
			<point x="391" y="756" type="line"/>
			<point x="395" y="771"/>
			<point x="402" y="776"/>
			<point x="412" y="776" type="curve" smooth="yes"/>
			<point x="421" y="776"/>
			<point x="432" y="773"/>
			<point x="454" y="765" type="curve" smooth="yes"/>
			<point x="479" y="756"/>
			<point x="494" y="752"/>
			<point x="512" y="752" type="curve" smooth="yes"/>
			<point x="541" y="752"/>
			<point x="561" y="767"/>
			<point x="570" y="811" type="curve"/>
			<point x="539" y="811" type="line"/>
			<point x="536" y="796"/>
			<point x="529" y="791"/>
			<point x="519" y="791" type="curve" smooth="yes"/>
			<point x="510" y="791"/>
			<point x="498" y="794"/>
			<point x="476" y="802" type="curve" smooth="yes"/>
			<point x="451" y="811"/>
			<point x="437" y="815"/>
		</contour>
		<contour>
			<point x="461" y="0" type="line"/>
			<point x="556" y="0" type="line"/>
			<point x="701" y="690" type="line"/>
			<point x="640" y="690" type="line"/>
			<point x="565" y="334" type="line" smooth="yes"/>
			<point x="546" y="248"/>
			<point x="526" y="146"/>
			<point x="509" y="60" type="curve"/>
			<point x="283" y="690" type="line"/>
			<point x="189" y="690" type="line"/>
			<point x="43" y="0" type="line"/>
			<point x="105" y="0" type="line"/>
			<point x="180" y="356" type="line" smooth="yes"/>
			<point x="199" y="442"/>
			<point x="220" y="545"/>
			<point x="236" y="630" type="curve"/>
		</contour>
	</outline>
</glyph>
<glyph name="Otilde" format="2">
	<advance width="728"/>
	<unicode hex="00D5"/>
	<note>
		Otilde
	</note>
	<outline>
		<contour>
			<point x="426" y="776" type="curve" smooth="yes"/>
			<point x="435" y="776"/>
			<point x="446" y="773"/>
			<point x="468" y="765" type="curve" smooth="yes"/>
			<point x="493" y="756"/>
			<point x="508" y="752"/>
			<point x="526" y="752" type="curve" smooth="yes"/>
			<point x="555" y="752"/>
			<point x="575" y="767"/>
			<point x="584" y="811" type="curve"/>
			<point x="553" y="811" type="line"/>
			<point x="550" y="796"/>
			<point x="543" y="791"/>
			<point x="533" y="791" type="curve" smooth="yes"/>
			<point x="524" y="791"/>
			<point x="512" y="794"/>
			<point x="490" y="802" type="curve" smooth="yes"/>
			<point x="465" y="811"/>
			<point x="451" y="815"/>
			<point x="433" y="815" type="curve" smooth="yes"/>
			<point x="404" y="815"/>
			<point x="384" y="800"/>
			<point x="374" y="756" type="curve"/>
			<point x="405" y="756" type="line"/>
			<point x="409" y="771"/>
			<point x="416" y="776"/>
		</contour>
		<contour>
			<point x="462" y="704" type="curve" smooth="yes"/>
			<point x="261" y="704"/>
			<point x="111" y="555"/>
			<point x="66" y="345" type="curve" smooth="yes"/>
			<point x="22" y="137"/>
			<point x="109" y="-14"/>
			<point x="310" y="-14" type="curve" smooth="yes"/>
			<point x="512" y="-14"/>
			<point x="663" y="137"/>
			<point x="707" y="345" type="curve" smooth="yes"/>
			<point x="752" y="555"/>
			<point x="664" y="704"/>
		</contour>
		<contour>
			<point x="320" y="36" type="curve" smooth="yes"/>
			<point x="172" y="36"/>
			<point x="94" y="152"/>
			<point x="135" y="345" type="curve" smooth="yes"/>
			<point x="176" y="539"/>
			<point x="304" y="654"/>
			<point x="452" y="654" type="curve" smooth="yes"/>
			<point x="601" y="654"/>
			<point x="679" y="539"/>
			<point x="638" y="345" type="curve" smooth="yes"/>
			<point x="597" y="152"/>
			<point x="469" y="36"/>
		</contour>
	</outline>
</glyph>
<glyph name="multiply" format="2">
	<advance width="561"/>
	<unicode hex="00D7"/>
	<note>
		multiply
	</note>
	<outline>
		<contour>
			<point x="435" y="171" type="line"/>
			<point x="322" y="314" type="line"/>
			<point x="496" y="457" type="line"/>
			<point x="471" y="488" type="line"/>
			<point x="298" y="345" type="line"/>
			<point x="185" y="488" type="line"/>
			<point x="148" y="457" type="line"/>
			<point x="260" y="314" type="line"/>
			<point x="87" y="171" type="line"/>
			<point x="111" y="140" type="line"/>
			<point x="285" y="283" type="line"/>
			<point x="397" y="140" type="line"/>
		</contour>
	</outline>
</glyph>
<glyph name="Oslash" format="2">
	<advance width="733"/>
	<unicode hex="00D8"/>
	<note>
		Oslash
	</note>
	<outline>
		<contour>
			<point x="696" y="573" type="curve"/>
			<point x="779" y="641" type="line"/>
			<point x="755" y="672" type="line"/>
			<point x="677" y="608" type="line"/>
			<point x="635" y="669"/>
			<point x="563" y="704"/>
			<point x="465" y="704" type="curve" smooth="yes"/>
			<point x="263" y="704"/>
			<point x="113" y="555"/>
			<point x="68" y="345" type="curve" smooth="yes"/>
			<point x="49" y="256"/>
			<point x="55" y="178"/>
			<point x="82" y="117" type="curve"/>
			<point x="-1" y="49" type="line"/>
			<point x="23" y="18" type="line"/>
			<point x="101" y="82" type="line"/>
			<point x="143" y="22"/>
			<point x="215" y="-14"/>
			<point x="313" y="-14" type="curve" smooth="yes"/>
			<point x="515" y="-14"/>
			<point x="666" y="137"/>
			<point x="710" y="345" type="curve" smooth="yes"/>
			<point x="729" y="434"/>
			<point x="724" y="513"/>
		</contour>
		<contour>
			<point x="137" y="345" type="curve" smooth="yes"/>
			<point x="178" y="539"/>
			<point x="306" y="654"/>
			<point x="455" y="654" type="curve" smooth="yes"/>
			<point x="533" y="654"/>
			<point x="591" y="622"/>
			<point x="624" y="564" type="curve"/>
			<point x="139" y="164" type="line"/>
			<point x="123" y="212"/>
			<point x="122" y="273"/>
		</contour>
		<contour>
			<point x="641" y="345" type="curve" smooth="yes"/>
			<point x="600" y="152"/>
			<point x="471" y="36"/>
			<point x="323" y="36" type="curve" smooth="yes"/>
			<point x="245" y="36"/>
			<point x="187" y="68"/>
			<point x="154" y="126" type="curve"/>
			<point x="639" y="526" type="line"/>
			<point x="655" y="478"/>
			<point x="656" y="417"/>
		</contour>
	</outline>
</glyph>
<glyph name="aacute" format="2">
	<advance width="517"/>
	<unicode hex="00E1"/>
	<note>
		aacute
	</note>
	<outline>
		<contour>
			<point x="302" y="580" type="line"/>
			<point x="344" y="580" type="line"/>
			<point x="446" y="690" type="line"/>
			<point x="386" y="690" type="line"/>
		</contour>
		<contour>
			<point x="345" y="96" type="line"/>
			<point x="334" y="0" type="line"/>
			<point x="396" y="0" type="line"/>
			<point x="402" y="63"/>
			<point x="407" y="101"/>
			<point x="417" y="148" type="curve" smooth="yes"/>
			<point x="456" y="333" type="line" smooth="yes"/>
			<point x="462" y="358"/>
			<point x="466" y="380"/>
			<point x="469" y="403" type="curve" smooth="yes"/>
			<point x="480" y="490"/>
			<point x="436" y="543"/>
			<point x="319" y="543" type="curve" smooth="yes"/>
			<point x="207" y="543"/>
			<point x="114" y="476"/>
			<point x="85" y="372" type="curve"/>
			<point x="150" y="372" type="line"/>
			<point x="175" y="454"/>
			<point x="235" y="493"/>
			<point x="308" y="493" type="curve" smooth="yes"/>
			<point x="384" y="493"/>
			<point x="414" y="458"/>
			<point x="406" y="397" type="curve" smooth="yes"/>
			<point x="404" y="376"/>
			<point x="399" y="356"/>
			<point x="394" y="332" type="curve" smooth="yes"/>
			<point x="390" y="313" type="line"/>
			<point x="356" y="313" type="line" smooth="yes"/>
			<point x="165" y="313"/>
			<point x="38" y="254"/>
			<point x="12" y="133" type="curve" smooth="yes"/>
			<point x="-8" y="37"/>
			<point x="51" y="-14"/>
			<point x="149" y="-14" type="curve" smooth="yes"/>
			<point x="207" y="-14"/>
			<point x="262" y="3"/>
			<point x="307" y="40" type="curve"/>
		</contour>
		<contour>
			<point x="178" y="35" type="curve" smooth="yes"/>
			<point x="101" y="35"/>
			<point x="67" y="71"/>
			<point x="81" y="138" type="curve" smooth="yes"/>
			<point x="103" y="240"/>
			<point x="233" y="275"/>
			<point x="380" y="265" type="curve"/>
			<point x="367" y="204" type="line" smooth="yes"/>
			<point x="346" y="105"/>
			<point x="270" y="35"/>
		</contour>
	</outline>
</glyph>
<glyph name="aring" format="2">
	<advance width="517"/>
	<unicode hex="00E5"/>
	<note>
		aring
	</note>
	<outline>
		<contour>
			<point x="325" y="568" type="curve" smooth="yes"/>
			<point x="371" y="568"/>
			<point x="412" y="599"/>
			<point x="421" y="643" type="curve" smooth="yes"/>
			<point x="431" y="688"/>
			<point x="404" y="719"/>
			<point x="358" y="719" type="curve" smooth="yes"/>
			<point x="312" y="719"/>
			<point x="271" y="688"/>
			<point x="261" y="643" type="curve" smooth="yes"/>
			<point x="252" y="599"/>
			<point x="279" y="568"/>
		</contour>
		<contour>
			<point x="351" y="689" type="curve" smooth="yes"/>
			<point x="375" y="689"/>
			<point x="387" y="670"/>
			<point x="381" y="643" type="curve" smooth="yes"/>
			<point x="376" y="616"/>
			<point x="356" y="598"/>
			<point x="332" y="598" type="curve" smooth="yes"/>
			<point x="308" y="598"/>
			<point x="296" y="616"/>
			<point x="301" y="643" type="curve" smooth="yes"/>
			<point x="307" y="670"/>
			<point x="327" y="689"/>
		</contour>
		<contour>
			<point x="345" y="96" type="line"/>
			<point x="334" y="0" type="line"/>
			<point x="396" y="0" type="line"/>
			<point x="402" y="63"/>
			<point x="407" y="101"/>
			<point x="417" y="148" type="curve" smooth="yes"/>
			<point x="456" y="333" type="line" smooth="yes"/>
			<point x="462" y="358"/>
			<point x="466" y="380"/>
			<point x="469" y="403" type="curve" smooth="yes"/>
			<point x="480" y="490"/>
			<point x="436" y="543"/>
			<point x="319" y="543" type="curve" smooth="yes"/>
			<point x="207" y="543"/>
			<point x="114" y="476"/>
			<point x="85" y="372" type="curve"/>
			<point x="150" y="372" type="line"/>
			<point x="175" y="454"/>
			<point x="235" y="493"/>
			<point x="308" y="493" type="curve" smooth="yes"/>
			<point x="384" y="493"/>
			<point x="414" y="458"/>
			<point x="406" y="397" type="curve" smooth="yes"/>
			<point x="404" y="376"/>
			<point x="399" y="356"/>
			<point x="394" y="332" type="curve" smooth="yes"/>
			<point x="390" y="313" type="line"/>
			<point x="356" y="313" type="line" smooth="yes"/>
			<point x="165" y="313"/>
			<point x="38" y="254"/>
			<point x="12" y="133" type="curve" smooth="yes"/>
			<point x="-8" y="37"/>
			<point x="51" y="-14"/>
			<point x="149" y="-14" type="curve" smooth="yes"/>
			<point x="207" y="-14"/>
			<point x="262" y="3"/>
			<point x="307" y="40" type="curve"/>
		</contour>
		<contour>
			<point x="178" y="35" type="curve" smooth="yes"/>
			<point x="101" y="35"/>
			<point x="67" y="71"/>
			<point x="81" y="138" type="curve" smooth="yes"/>
			<point x="103" y="240"/>
			<point x="233" y="275"/>
			<point x="380" y="265" type="curve"/>
			<point x="367" y="204" type="line" smooth="yes"/>
			<point x="346" y="105"/>
			<point x="270" y="35"/>
		</contour>
	</outline>
</glyph>
<glyph name="ccedilla" format="2">
	<advance width="525"/>
	<unicode hex="00E7"/>
	<note>
		ccedilla
	</note>
	<outline>
		<contour>
			<point x="220" y="35" type="curve" smooth="yes"/>
			<point x="131" y="35"/>
			<point x="64" y="106"/>
			<point x="99" y="269" type="curve" smooth="yes"/>
			<point x="131" y="422"/>
			<point x="234" y="494"/>
			<point x="323" y="494" type="curve" smooth="yes"/>
			<point x="408" y="494"/>
			<point x="450" y="445"/>
			<point x="449" y="356" type="curve"/>
			<point x="514" y="356" type="line"/>
			<point x="522" y="468"/>
			<point x="457" y="543"/>
			<point x="335" y="543" type="curve" smooth="yes"/>
			<point x="202" y="543"/>
			<point x="67" y="439"/>
			<point x="30" y="264" type="curve" smooth="yes"/>
			<point x="-7" y="93"/>
			<point x="60" y="2"/>
			<point x="173" y="-12" type="curve"/>
			<point x="127" y="-75" type="line"/>
			<point x="197" y="-70"/>
			<point x="221" y="-90"/>
			<point x="213" y="-126" type="curve" smooth="yes"/>
			<point x="206" y="-158"/>
			<point x="176" y="-176"/>
			<point x="134" y="-176" type="curve" smooth="yes"/>
			<point x="112" y="-176"/>
			<point x="97" y="-173"/>
			<point x="84" y="-165" type="curve"/>
			<point x="76" y="-201" type="line"/>
			<point x="89" y="-207"/>
			<point x="105" y="-210"/>
			<point x="125" y="-210" type="curve" smooth="yes"/>
			<point x="189" y="-210"/>
			<point x="246" y="-182"/>
			<point x="258" y="-125" type="curve" smooth="yes"/>
			<point x="268" y="-77"/>
			<point x="243" y="-50"/>
			<point x="191" y="-44" type="curve"/>
			<point x="215" y="-14" type="line"/>
			<point x="325" y="-11"/>
			<point x="422" y="51"/>
			<point x="469" y="165" type="curve"/>
			<point x="405" y="165" type="line"/>
			<point x="368" y="80"/>
			<point x="298" y="35"/>
		</contour>
	</outline>
</glyph>
<glyph name="iacute" format="2">
	<advance width="210"/>
	<unicode hex="00ED"/>
	<note>
		iacute
	</note>
	<outline>
		<contour>
			<point x="145" y="580" type="line"/>
			<point x="187" y="580" type="line"/>
			<point x="289" y="690" type="line"/>
			<point x="229" y="690" type="line"/>
		</contour>
		<contour>
			<point x="17" y="0" type="line"/>
			<point x="79" y="0" type="line"/>
			<point x="191" y="529" type="line"/>
			<point x="129" y="529" type="line"/>
		</contour>
	</outline>
</glyph>
<glyph name="eth" format="2">
	<advance width="561"/>
	<unicode hex="00F0"/>
	<note>
		eth
	</note>
	<outline>
		<contour>
			<point x="500" y="653" type="curve"/>
			<point x="557" y="674" type="line"/>
			<point x="549" y="714" type="line"/>
			<point x="474" y="685" type="line"/>
			<point x="449" y="710"/>
			<point x="418" y="730"/>
			<point x="379" y="745" type="curve"/>
			<point x="331" y="703" type="line"/>
			<point x="363" y="693"/>
			<point x="389" y="679"/>
			<point x="411" y="662" type="curve"/>
			<point x="272" y="609" type="line"/>
			<point x="280" y="569" type="line"/>
			<point x="442" y="630" type="line"/>
			<point x="474" y="587"/>
			<point x="487" y="527"/>
			<point x="477" y="447" type="curve"/>
			<point x="444" y="509" type="line"/>
			<point x="411" y="534"/>
			<point x="377" y="544"/>
			<point x="328" y="544" type="curve" smooth="yes"/>
			<point x="193" y="544"/>
			<point x="65" y="431"/>
			<point x="28" y="257" type="curve" smooth="yes"/>
			<point x="-5" y="102"/>
			<point x="52" y="-14"/>
			<point x="207" y="-14" type="curve" smooth="yes"/>
			<point x="344" y="-14"/>
			<point x="474" y="77"/>
			<point x="523" y="307" type="curve" smooth="yes"/>
			<point x="557" y="469"/>
			<point x="551" y="579"/>
		</contour>
		<contour>
			<point x="454" y="297" type="curve" smooth="yes"/>
			<point x="448" y="271" type="line" smooth="yes"/>
			<point x="415" y="116"/>
			<point x="325" y="35"/>
			<point x="222" y="35" type="curve" smooth="yes"/>
			<point x="116" y="35"/>
			<point x="67" y="120"/>
			<point x="98" y="264" type="curve" smooth="yes"/>
			<point x="128" y="407"/>
			<point x="223" y="495"/>
			<point x="324" y="495" type="curve" smooth="yes"/>
			<point x="413" y="495"/>
			<point x="482" y="430"/>
		</contour>
	</outline>
</glyph>
<glyph name="divide" format="2">
	<advance width="561"/>
	<unicode hex="00F7"/>
	<note>
		divide
	</note>
	<outline>
		<contour>
			<point x="336" y="520" type="curve" smooth="yes"/>
			<point x="310" y="520"/>
			<point x="287" y="501"/>
			<point x="282" y="475" type="curve" smooth="yes"/>
			<point x="276" y="450"/>
			<point x="291" y="430"/>
			<point x="317" y="430" type="curve" smooth="yes"/>
			<point x="343" y="430"/>
			<point x="366" y="450"/>
			<point x="372" y="475" type="curve" smooth="yes"/>
			<point x="377" y="501"/>
			<point x="362" y="520"/>
		</contour>
		<contour>
			<point x="81" y="297" type="line"/>
			<point x="494" y="297" type="line"/>
			<point x="503" y="340" type="line"/>
			<point x="90" y="340" type="line"/>
		</contour>
		<contour>
			<point x="269" y="204" type="curve" smooth="yes"/>
			<point x="243" y="204"/>
			<point x="220" y="185"/>
			<point x="214" y="159" type="curve" smooth="yes"/>
			<point x="209" y="133"/>
			<point x="224" y="114"/>
			<point x="250" y="114" type="curve" smooth="yes"/>
			<point x="276" y="114"/>
			<point x="299" y="133"/>
			<point x="304" y="159" type="curve" smooth="yes"/>
			<point x="310" y="185"/>
			<point x="295" y="204"/>
		</contour>
	</outline>
</glyph>
<glyph name="oslash" format="2">
	<advance width="610"/>
	<unicode hex="00F8"/>
	<note>
		oslash
	</note>
	<outline>
		<contour>
			<point x="546" y="437" type="curve"/>
			<point x="637" y="512" type="line"/>
			<point x="612" y="543" type="line"/>
			<point x="526" y="472" type="line"/>
			<point x="492" y="516"/>
			<point x="436" y="543"/>
			<point x="358" y="543" type="curve" smooth="yes"/>
			<point x="190" y="543"/>
			<point x="75" y="420"/>
			<point x="42" y="264" type="curve" smooth="yes"/>
			<point x="27" y="195"/>
			<point x="32" y="132"/>
			<point x="56" y="84" type="curve"/>
			<point x="-27" y="16" type="line"/>
			<point x="-3" y="-15" type="line"/>
			<point x="78" y="51" type="line"/>
			<point x="111" y="10"/>
			<point x="165" y="-14"/>
			<point x="240" y="-14" type="curve" smooth="yes"/>
			<point x="408" y="-14"/>
			<point x="523" y="109"/>
			<point x="556" y="264" type="curve" smooth="yes"/>
			<point x="570" y="330"/>
			<point x="567" y="390"/>
		</contour>
		<contour>
			<point x="109" y="264" type="curve" smooth="yes"/>
			<point x="139" y="408"/>
			<point x="237" y="493"/>
			<point x="347" y="493" type="curve" smooth="yes"/>
			<point x="404" y="493"/>
			<point x="448" y="470"/>
			<point x="473" y="428" type="curve"/>
			<point x="110" y="129" type="line"/>
			<point x="99" y="165"/>
			<point x="98" y="211"/>
		</contour>
		<contour>
			<point x="488" y="264" type="curve" smooth="yes"/>
			<point x="457" y="120"/>
			<point x="359" y="35"/>
			<point x="250" y="35" type="curve" smooth="yes"/>
			<point x="196" y="35"/>
			<point x="154" y="55"/>
			<point x="128" y="93" type="curve"/>
			<point x="489" y="390" type="line"/>
			<point x="498" y="356"/>
			<point x="498" y="313"/>
		</contour>
	</outline>
</glyph>
<glyph name="ugrave" format="2">
	<advance width="567"/>
	<unicode hex="00F9"/>
	<note>
		ugrave
	</note>
	<outline>
		<contour>
			<point x="267" y="690" type="line"/>
			<point x="323" y="580" type="line"/>
			<point x="366" y="580" type="line"/>
			<point x="328" y="690" type="line"/>
		</contour>
		<contour>
			<point x="436" y="0" type="line"/>
			<point x="548" y="529" type="line"/>
			<point x="486" y="529" type="line"/>
			<point x="430" y="266" type="line" smooth="yes"/>
			<point x="395" y="100"/>
			<point x="306" y="36"/>
			<point x="218" y="36" type="curve" smooth="yes"/>
			<point x="136" y="36"/>
			<point x="101" y="85"/>
			<point x="108" y="155" type="curve" smooth="yes"/>
			<point x="110" y="182"/>
			<point x="115" y="209"/>
			<point x="120" y="234" type="curve" smooth="yes"/>
			<point x="183" y="529" type="line"/>
			<point x="121" y="529" type="line"/>
			<point x="55" y="220" type="line" smooth="yes"/>
			<point x="46" y="177"/>
			<point x="43" y="158"/>
			<point x="41" y="131" type="curve" smooth="yes"/>
			<point x="35" y="47"/>
			<point x="86" y="-14"/>
			<point x="194" y="-14" type="curve" smooth="yes"/>
			<point x="252" y="-14"/>
			<point x="303" y="2"/>
			<point x="354" y="43" type="curve"/>
			<point x="395" y="102" type="line"/>
			<point x="374" y="0" type="line"/>
		</contour>
	</outline>
</glyph>
<glyph name="ucircumflex" format="2">
	<advance width="567"/>
	<unicode hex="00FB"/>
	<note>
		ucircumflex
	</note>
	<outline>
		<contour>
			<point x="257" y="580" type="line"/>
			<point x="305" y="580" type="line"/>
			<point x="361" y="655" type="line"/>
			<point x="386" y="580" type="line"/>
			<point x="435" y="580" type="line"/>
			<point x="391" y="690" type="line"/>
			<point x="346" y="690" type="line"/>
		</contour>
		<contour>
			<point x="436" y="0" type="line"/>
			<point x="548" y="529" type="line"/>
			<point x="486" y="529" type="line"/>
			<point x="430" y="266" type="line" smooth="yes"/>
			<point x="395" y="100"/>
			<point x="306" y="36"/>
			<point x="218" y="36" type="curve" smooth="yes"/>
			<point x="136" y="36"/>
			<point x="101" y="85"/>
			<point x="108" y="155" type="curve" smooth="yes"/>
			<point x="110" y="182"/>
			<point x="115" y="209"/>
			<point x="120" y="234" type="curve" smooth="yes"/>
			<point x="183" y="529" type="line"/>
			<point x="121" y="529" type="line"/>
			<point x="55" y="220" type="line" smooth="yes"/>
			<point x="46" y="177"/>
			<point x="43" y="158"/>
			<point x="41" y="131" type="curve" smooth="yes"/>
			<point x="35" y="47"/>
			<point x="86" y="-14"/>
			<point x="194" y="-14" type="curve" smooth="yes"/>
			<point x="252" y="-14"/>
			<point x="303" y="2"/>
			<point x="354" y="43" type="curve"/>
			<point x="395" y="102" type="line"/>
			<point x="374" y="0" type="line"/>
		</contour>
	</outline>
</glyph>
<glyph name="yacute" format="2">
	<advance width="492"/>
	<unicode hex="00FD"/>
	<note>
		yacute
	</note>
	<outline>
		<contour>
			<point x="288" y="580" type="line"/>
			<point x="330" y="580" type="line"/>
			<point x="432" y="690" type="line"/>
			<point x="372" y="690" type="line"/>
		</contour>
		<contour>
			<point x="211" y="-28" type="curve" smooth="yes"/>
			<point x="541" y="529" type="line"/>
			<point x="473" y="529" type="line"/>
			<point x="200" y="46" type="line"/>
			<point x="132" y="529" type="line"/>
			<point x="62" y="529" type="line"/>
			<point x="154" y="-20" type="line"/>
			<point x="137" y="-48" type="line" smooth="yes"/>
			<point x="85" y="-133"/>
			<point x="44" y="-158"/>
			<point x="-4" y="-158" type="curve" smooth="yes"/>
			<point x="-15" y="-158"/>
			<point x="-25" y="-158"/>
			<point x="-37" y="-156" type="curve"/>
			<point x="-48" y="-207" type="line"/>
			<point x="-37" y="-210"/>
			<point x="-26" y="-210"/>
			<point x="-8" y="-210" type="curve" smooth="yes"/>
			<point x="67" y="-210"/>
			<point x="127" y="-168"/>
		</contour>
	</outline>
</glyph>
<glyph name="Aogonek" format="2">
	<advance width="630"/>
	<unicode hex="0104"/>
	<note>
		Aogonek
	</note>
	<outline>
		<contour>
			<point x="541" y="0" type="curve"/>
			<point x="563" y="0" type="line"/>
			<point x="460" y="690" type="line"/>
			<point x="377" y="690" type="line"/>
			<point x="-24" y="0" type="line"/>
			<point x="42" y="0" type="line"/>
			<point x="184" y="253" type="line"/>
			<point x="459" y="253" type="line"/>
			<point x="494" y="10" type="line"/>
			<point x="425" y="-16"/>
			<point x="362" y="-71"/>
			<point x="346" y="-144" type="curve" smooth="yes"/>
			<point x="333" y="-204"/>
			<point x="365" y="-223"/>
			<point x="411" y="-223" type="curve" smooth="yes"/>
			<point x="443" y="-223"/>
			<point x="472" y="-215"/>
			<point x="499" y="-197" type="curve"/>
			<point x="507" y="-158" type="line"/>
			<point x="483" y="-175"/>
			<point x="464" y="-182"/>
			<point x="443" y="-182" type="curve" smooth="yes"/>
			<point x="414" y="-182"/>
			<point x="401" y="-168"/>
			<point x="409" y="-131" type="curve" smooth="yes"/>
			<point x="422" y="-67"/>
			<point x="479" y="-17"/>
		</contour>
		<contour>
			<point x="453" y="305" type="line"/>
			<point x="214" y="305" type="line"/>
			<point x="407" y="640" type="line"/>
		</contour>
	</outline>
</glyph>
<glyph name="aogonek" format="2">
	<advance width="517"/>
	<unicode hex="0105"/>
	<note>
		aogonek
	</note>
	<outline>
		<contour>
			<point x="378" y="0" type="curve"/>
			<point x="396" y="0" type="line"/>
			<point x="402" y="63"/>
			<point x="407" y="101"/>
			<point x="417" y="148" type="curve" smooth="yes"/>
			<point x="456" y="333" type="line" smooth="yes"/>
			<point x="462" y="358"/>
			<point x="466" y="380"/>
			<point x="469" y="403" type="curve" smooth="yes"/>
			<point x="480" y="490"/>
			<point x="436" y="543"/>
			<point x="319" y="543" type="curve" smooth="yes"/>
			<point x="207" y="543"/>
			<point x="114" y="476"/>
			<point x="85" y="372" type="curve"/>
			<point x="150" y="372" type="line"/>
			<point x="175" y="454"/>
			<point x="235" y="493"/>
			<point x="308" y="493" type="curve" smooth="yes"/>
			<point x="384" y="493"/>
			<point x="414" y="458"/>
			<point x="406" y="397" type="curve" smooth="yes"/>
			<point x="404" y="376"/>
			<point x="399" y="356"/>
			<point x="394" y="332" type="curve" smooth="yes"/>
			<point x="390" y="313" type="line"/>
			<point x="356" y="313" type="line" smooth="yes"/>
			<point x="165" y="313"/>
			<point x="38" y="254"/>
			<point x="12" y="133" type="curve" smooth="yes"/>
			<point x="-8" y="37"/>
			<point x="51" y="-14"/>
			<point x="149" y="-14" type="curve" smooth="yes"/>
			<point x="207" y="-14"/>
			<point x="262" y="3"/>
			<point x="307" y="40" type="curve"/>
			<point x="345" y="96" type="line"/>
			<point x="335" y="12" type="line"/>
			<point x="264" y="-12"/>
			<point x="199" y="-69"/>
			<point x="183" y="-144" type="curve" smooth="yes"/>
			<point x="170" y="-204"/>
			<point x="202" y="-223"/>
			<point x="248" y="-223" type="curve" smooth="yes"/>
			<point x="280" y="-223"/>
			<point x="309" y="-215"/>
			<point x="336" y="-197" type="curve"/>
			<point x="344" y="-158" type="line"/>
			<point x="320" y="-175"/>
			<point x="301" y="-182"/>
			<point x="280" y="-182" type="curve" smooth="yes"/>
			<point x="251" y="-182"/>
			<point x="238" y="-168"/>
			<point x="246" y="-131" type="curve" smooth="yes"/>
			<point x="259" y="-67"/>
			<point x="316" y="-13"/>
		</contour>
		<contour>
			<point x="178" y="35" type="curve" smooth="yes"/>
			<point x="101" y="35"/>
			<point x="67" y="71"/>
			<point x="81" y="138" type="curve" smooth="yes"/>
			<point x="103" y="240"/>
			<point x="233" y="275"/>
			<point x="380" y="265" type="curve"/>
			<point x="367" y="204" type="line" smooth="yes"/>
			<point x="346" y="105"/>
			<point x="270" y="35"/>
		</contour>
	</outline>
</glyph>
<glyph name="Cdotaccent" format="2">
	<advance width="691"/>
	<unicode hex="010A"/>
	<note>
		Cdotaccent
	</note>
	<outline>
		<contour>
			<point x="476" y="819" type="curve" smooth="yes"/>
			<point x="456" y="819"/>
			<point x="436" y="803"/>
			<point x="432" y="783" type="curve" smooth="yes"/>
			<point x="428" y="763"/>
			<point x="440" y="747"/>
			<point x="460" y="747" type="curve" smooth="yes"/>
			<point x="480" y="747"/>
			<point x="500" y="763"/>
			<point x="504" y="783" type="curve" smooth="yes"/>
			<point x="508" y="803"/>
			<point x="496" y="819"/>
		</contour>
		<contour>
			<point x="463" y="704" type="curve" smooth="yes"/>
			<point x="274" y="704"/>
			<point x="110" y="554"/>
			<point x="65" y="342" type="curve" smooth="yes"/>
			<point x="21" y="132"/>
			<point x="108" y="-14"/>
			<point x="297" y="-14" type="curve" smooth="yes"/>
			<point x="473" y="-14"/>
			<point x="585" y="92"/>
			<point x="630" y="219" type="curve" smooth="yes"/>
			<point x="633" y="229" type="line"/>
			<point x="571" y="229" type="line"/>
			<point x="567" y="219" type="line" smooth="yes"/>
			<point x="524" y="113"/>
			<point x="439" y="36"/>
			<point x="311" y="36" type="curve" smooth="yes"/>
			<point x="171" y="36"/>
			<point x="94" y="153"/>
			<point x="135" y="345" type="curve" smooth="yes"/>
			<point x="175" y="533"/>
			<point x="308" y="654"/>
			<point x="450" y="654" type="curve" smooth="yes"/>
			<point x="573" y="654"/>
			<point x="626" y="580"/>
			<point x="625" y="475" type="curve" smooth="yes"/>
			<point x="625" y="465" type="line"/>
			<point x="687" y="465" type="line"/>
			<point x="688" y="475" type="line" smooth="yes"/>
			<point x="697" y="606"/>
			<point x="629" y="704"/>
		</contour>
	</outline>
</glyph>
<glyph name="ccaron" format="2">
	<advance width="525"/>
	<unicode hex="010D"/>
	<note>
		ccaron
	</note>
	<outline>
		<contour>
			<point x="270" y="690" type="line"/>
			<point x="313" y="580" type="line"/>
			<point x="358" y="580" type="line"/>
			<point x="448" y="690" type="line"/>
			<point x="400" y="690" type="line"/>
			<point x="343" y="615" type="line"/>
			<point x="319" y="690" type="line"/>
		</contour>
		<contour>
			<point x="220" y="35" type="curve" smooth="yes"/>
			<point x="131" y="35"/>
			<point x="64" y="106"/>
			<point x="99" y="269" type="curve" smooth="yes"/>
			<point x="131" y="422"/>
			<point x="234" y="494"/>
			<point x="323" y="494" type="curve" smooth="yes"/>
			<point x="408" y="494"/>
			<point x="450" y="445"/>
			<point x="449" y="356" type="curve"/>
			<point x="514" y="356" type="line"/>
			<point x="522" y="468"/>
			<point x="457" y="543"/>
			<point x="335" y="543" type="curve" smooth="yes"/>
			<point x="202" y="543"/>
			<point x="67" y="439"/>
			<point x="30" y="264" type="curve" smooth="yes"/>
			<point x="-10" y="77"/>
			<point x="74" y="-14"/>
			<point x="206" y="-14" type="curve" smooth="yes"/>
			<point x="320" y="-14"/>
			<point x="420" y="48"/>
			<point x="469" y="165" type="curve"/>
			<point x="405" y="165" type="line"/>
			<point x="368" y="80"/>
			<point x="298" y="35"/>
		</contour>
	</outline>
</glyph>
<glyph name="Dcaron" format="2">
	<advance width="698"/>
	<unicode hex="010E"/>
	<note>
		Dcaron
	</note>
	<outline>
		<contour>
			<point x="392" y="830" type="line"/>
			<point x="438" y="736" type="line"/>
			<point x="483" y="736" type="line"/>
			<point x="570" y="830" type="line"/>
			<point x="520" y="830" type="line"/>
			<point x="467" y="764" type="line"/>
			<point x="442" y="830" type="line"/>
		</contour>
		<contour>
			<point x="477" y="687" type="curve" smooth="yes"/>
			<point x="446" y="690"/>
			<point x="430" y="690"/>
			<point x="394" y="690" type="curve" smooth="yes"/>
			<point x="189" y="690" type="line"/>
			<point x="43" y="0" type="line"/>
			<point x="245" y="0" type="line" smooth="yes"/>
			<point x="280" y="0"/>
			<point x="298" y="0"/>
			<point x="334" y="4" type="curve" smooth="yes"/>
			<point x="472" y="21"/>
			<point x="632" y="133"/>
			<point x="678" y="351" type="curve" smooth="yes"/>
			<point x="725" y="571"/>
			<point x="613" y="671"/>
		</contour>
		<contour>
			<point x="339" y="56" type="curve" smooth="yes"/>
			<point x="311" y="52"/>
			<point x="287" y="52"/>
			<point x="253" y="52" type="curve" smooth="yes"/>
			<point x="116" y="52" type="line"/>
			<point x="240" y="638" type="line"/>
			<point x="380" y="638" type="line" smooth="yes"/>
			<point x="416" y="638"/>
			<point x="438" y="638"/>
			<point x="460" y="635" type="curve" smooth="yes"/>
			<point x="570" y="619"/>
			<point x="648" y="528"/>
			<point x="610" y="351" type="curve" smooth="yes"/>
			<point x="572" y="172"/>
			<point x="456" y="73"/>
		</contour>
	</outline>
</glyph>
<glyph name="Dcroat" format="2">
	<advance width="695"/>
	<unicode hex="0110"/>
	<note>
		Dcroat
	</note>
	<outline>
		<contour>
			<point x="474" y="687" type="curve" smooth="yes"/>
			<point x="443" y="690"/>
			<point x="427" y="690"/>
			<point x="392" y="690" type="curve" smooth="yes"/>
			<point x="186" y="690" type="line"/>
			<point x="115" y="355" type="line"/>
			<point x="55" y="355" type="line"/>
			<point x="46" y="312" type="line"/>
			<point x="106" y="312" type="line"/>
			<point x="40" y="0" type="line"/>
			<point x="243" y="0" type="line" smooth="yes"/>
			<point x="278" y="0"/>
			<point x="296" y="0"/>
			<point x="332" y="4" type="curve" smooth="yes"/>
			<point x="469" y="21"/>
			<point x="629" y="133"/>
			<point x="675" y="351" type="curve" smooth="yes"/>
			<point x="722" y="571"/>
			<point x="610" y="671"/>
		</contour>
		<contour>
			<point x="336" y="56" type="curve" smooth="yes"/>
			<point x="309" y="52"/>
			<point x="285" y="52"/>
			<point x="250" y="52" type="curve" smooth="yes"/>
			<point x="113" y="52" type="line"/>
			<point x="168" y="312" type="line"/>
			<point x="322" y="312" type="line"/>
			<point x="331" y="355" type="line"/>
			<point x="177" y="355" type="line"/>
			<point x="237" y="638" type="line"/>
			<point x="378" y="638" type="line" smooth="yes"/>
			<point x="414" y="638"/>
			<point x="435" y="638"/>
			<point x="457" y="635" type="curve" smooth="yes"/>
			<point x="567" y="619"/>
			<point x="645" y="528"/>
			<point x="607" y="351" type="curve" smooth="yes"/>
			<point x="569" y="172"/>
			<point x="453" y="73"/>
		</contour>
	</outline>
</glyph>
<glyph name="Emacron" format="2">
	<advance width="576"/>
	<unicode hex="0112"/>
	<note>
		Emacron
	</note>
	<outline>
		<contour>
			<point x="324" y="763" type="line"/>
			<point x="526" y="763" type="line"/>
			<point x="534" y="803" type="line"/>
			<point x="332" y="803" type="line"/>
		</contour>
		<contour>
			<point x="490" y="0" type="line"/>
			<point x="501" y="51" type="line"/>
			<point x="116" y="51" type="line"/>
			<point x="172" y="319" type="line"/>
			<point x="521" y="319" type="line"/>
			<point x="533" y="371" type="line"/>
			<point x="184" y="371" type="line"/>
			<point x="240" y="639" type="line"/>
			<point x="615" y="639" type="line"/>
			<point x="626" y="690" type="line"/>
			<point x="189" y="690" type="line"/>
			<point x="43" y="0" type="line"/>
		</contour>
	</outline>
</glyph>
<glyph name="emacron" format="2">
	<advance width="539"/>
	<unicode hex="0113"/>
	<note>
		emacron
	</note>
	<outline>
		<contour>
			<point x="241" y="610" type="line"/>
			<point x="443" y="610" type="line"/>
			<point x="452" y="650" type="line"/>
			<point x="250" y="650" type="line"/>
		</contour>
		<contour>
			<point x="503" y="279" type="curve" smooth="yes"/>
			<point x="534" y="425"/>
			<point x="482" y="543"/>
			<point x="334" y="543" type="curve" smooth="yes"/>
			<point x="195" y="543"/>
			<point x="66" y="434"/>
			<point x="30" y="264" type="curve" smooth="yes"/>
			<point x="-10" y="78"/>
			<point x="74" y="-14"/>
			<point x="206" y="-14" type="curve" smooth="yes"/>
			<point x="312" y="-14"/>
			<point x="421" y="44"/>
			<point x="472" y="167" type="curve"/>
			<point x="407" y="167" type="line"/>
			<point x="370" y="80"/>
			<point x="294" y="35"/>
			<point x="220" y="35" type="curve" smooth="yes"/>
			<point x="134" y="35"/>
			<point x="67" y="90"/>
			<point x="93" y="246" type="curve"/>
			<point x="494" y="246" type="line"/>
			<point x="499" y="262"/>
			<point x="501" y="272"/>
		</contour>
		<contour>
			<point x="321" y="493" type="curve" smooth="yes"/>
			<point x="410" y="493"/>
			<point x="465" y="431"/>
			<point x="443" y="295" type="curve"/>
			<point x="103" y="295" type="line"/>
			<point x="140" y="427"/>
			<point x="234" y="493"/>
		</contour>
	</outline>
</glyph>
<glyph name="edotaccent" format="2">
	<advance width="539"/>
	<unicode hex="0117"/>
	<note>
		edotaccent
	</note>
	<outline>
		<contour>
			<point x="340" y="601" type="curve" smooth="yes"/>
			<point x="364" y="601"/>
			<point x="386" y="620"/>
			<point x="391" y="643" type="curve" smooth="yes"/>
			<point x="396" y="667"/>
			<point x="382" y="685"/>
			<point x="358" y="685" type="curve" smooth="yes"/>
			<point x="335" y="685"/>
			<point x="312" y="667"/>
			<point x="307" y="643" type="curve" smooth="yes"/>
			<point x="302" y="620"/>
			<point x="317" y="601"/>
		</contour>
		<contour>
			<point x="503" y="279" type="curve" smooth="yes"/>
			<point x="534" y="425"/>
			<point x="482" y="543"/>
			<point x="334" y="543" type="curve" smooth="yes"/>
			<point x="195" y="543"/>
			<point x="66" y="434"/>
			<point x="30" y="264" type="curve" smooth="yes"/>
			<point x="-10" y="78"/>
			<point x="74" y="-14"/>
			<point x="206" y="-14" type="curve" smooth="yes"/>
			<point x="312" y="-14"/>
			<point x="421" y="44"/>
			<point x="472" y="167" type="curve"/>
			<point x="407" y="167" type="line"/>
			<point x="370" y="80"/>
			<point x="294" y="35"/>
			<point x="220" y="35" type="curve" smooth="yes"/>
			<point x="134" y="35"/>
			<point x="67" y="90"/>
			<point x="93" y="246" type="curve"/>
			<point x="494" y="246" type="line"/>
			<point x="499" y="262"/>
			<point x="501" y="272"/>
		</contour>
		<contour>
			<point x="321" y="493" type="curve" smooth="yes"/>
			<point x="410" y="493"/>
			<point x="465" y="431"/>
			<point x="443" y="295" type="curve"/>
			<point x="103" y="295" type="line"/>
			<point x="140" y="427"/>
			<point x="234" y="493"/>
		</contour>
	</outline>
</glyph>
<glyph name="Ecaron" format="2">
	<advance width="576"/>
	<unicode hex="011A"/>
	<note>
		Ecaron
	</note>
	<outline>
		<contour>
			<point x="351" y="830" type="line"/>
			<point x="397" y="736" type="line"/>
			<point x="442" y="736" type="line"/>
			<point x="529" y="830" type="line"/>
			<point x="479" y="830" type="line"/>
			<point x="426" y="764" type="line"/>
			<point x="401" y="830" type="line"/>
		</contour>
		<contour>
			<point x="490" y="0" type="line"/>
			<point x="501" y="51" type="line"/>
			<point x="116" y="51" type="line"/>
			<point x="172" y="319" type="line"/>
			<point x="521" y="319" type="line"/>
			<point x="533" y="371" type="line"/>
			<point x="184" y="371" type="line"/>
			<point x="240" y="639" type="line"/>
			<point x="615" y="639" type="line"/>
			<point x="626" y="690" type="line"/>
			<point x="189" y="690" type="line"/>
			<point x="43" y="0" type="line"/>
		</contour>
	</outline>
</glyph>
<glyph name="gdotaccent" format="2">
	<advance width="588"/>
	<unicode hex="0121"/>
	<note>
		gdotaccent
	</note>
	<outline>
		<contour>
			<point x="361" y="601" type="curve" smooth="yes"/>
			<point x="385" y="601"/>
			<point x="407" y="620"/>
			<point x="412" y="643" type="curve" smooth="yes"/>
			<point x="417" y="667"/>
			<point x="403" y="685"/>
			<point x="379" y="685" type="curve" smooth="yes"/>
			<point x="356" y="685"/>
			<point x="333" y="667"/>
			<point x="328" y="643" type="curve" smooth="yes"/>
			<point x="323" y="620"/>
			<point x="338" y="601"/>
		</contour>
		<contour>
			<point x="485" y="134" type="curve" smooth="yes"/>
			<point x="569" y="530" type="line"/>
			<point x="507" y="530" type="line"/>
			<point x="488" y="438" type="line"/>
			<point x="467" y="495" type="line"/>
			<point x="441" y="527"/>
			<point x="393" y="543"/>
			<point x="341" y="543" type="curve" smooth="yes"/>
			<point x="207" y="543"/>
			<point x="69" y="450"/>
			<point x="29" y="258" type="curve" smooth="yes"/>
			<point x="-5" y="101"/>
			<point x="59" y="-14"/>
			<point x="207" y="-14" type="curve" smooth="yes"/>
			<point x="268" y="-14"/>
			<point x="323" y="3"/>
			<point x="368" y="40" type="curve"/>
			<point x="416" y="98" type="line"/>
			<point x="413" y="85" type="line" smooth="yes"/>
			<point x="407" y="57"/>
			<point x="402" y="36"/>
			<point x="395" y="7" type="curve" smooth="yes"/>
			<point x="369" y="-98"/>
			<point x="295" y="-165"/>
			<point x="183" y="-165" type="curve" smooth="yes"/>
			<point x="94" y="-165"/>
			<point x="40" y="-123"/>
			<point x="47" y="-45" type="curve" smooth="yes"/>
			<point x="48" y="-33" type="line"/>
			<point x="-14" y="-33" type="line"/>
			<point x="-16" y="-45" type="line" smooth="yes"/>
			<point x="-27" y="-160"/>
			<point x="41" y="-214"/>
			<point x="172" y="-214" type="curve" smooth="yes"/>
			<point x="317" y="-214"/>
			<point x="423" y="-131"/>
			<point x="458" y="10" type="curve" smooth="yes"/>
			<point x="465" y="41"/>
			<point x="474" y="82"/>
		</contour>
		<contour>
			<point x="226" y="35" type="curve" smooth="yes"/>
			<point x="110" y="35"/>
			<point x="71" y="139"/>
			<point x="98" y="266" type="curve" smooth="yes"/>
			<point x="129" y="409"/>
			<point x="224" y="493"/>
			<point x="330" y="493" type="curve" smooth="yes"/>
			<point x="408" y="493"/>
			<point x="489" y="442"/>
			<point x="457" y="292" type="curve" smooth="yes"/>
			<point x="448" y="252" type="line" smooth="yes"/>
			<point x="414" y="92"/>
			<point x="320" y="35"/>
		</contour>
	</outline>
</glyph>
<glyph name="uni0122" format="2">
	<advance width="704"/>
	<unicode hex="0122"/>
	<note>
		Gcommaaccent
	</note>
	<outline>
		<contour>
			<point x="654" y="323" type="line"/>
			<point x="404" y="323" type="line"/>
			<point x="393" y="272" type="line"/>
			<point x="581" y="272" type="line"/>
			<point x="548" y="116"/>
			<point x="422" y="36"/>
			<point x="312" y="36" type="curve" smooth="yes"/>
			<point x="171" y="36"/>
			<point x="94" y="153"/>
			<point x="135" y="345" type="curve" smooth="yes"/>
			<point x="175" y="533"/>
			<point x="309" y="654"/>
			<point x="454" y="654" type="curve" smooth="yes"/>
			<point x="577" y="654"/>
			<point x="630" y="580"/>
			<point x="629" y="475" type="curve" smooth="yes"/>
			<point x="629" y="465" type="line"/>
			<point x="691" y="465" type="line"/>
			<point x="692" y="475" type="line" smooth="yes"/>
			<point x="700" y="606"/>
			<point x="632" y="704"/>
			<point x="466" y="704" type="curve" smooth="yes"/>
			<point x="275" y="704"/>
			<point x="110" y="554"/>
			<point x="65" y="342" type="curve" smooth="yes"/>
			<point x="21" y="132"/>
			<point x="108" y="-14"/>
			<point x="298" y="-14" type="curve" smooth="yes"/>
			<point x="381" y="-14"/>
			<point x="460" y="16"/>
			<point x="520" y="80" type="curve"/>
			<point x="560" y="142" type="line"/>
			<point x="530" y="0" type="line"/>
			<point x="586" y="0" type="line"/>
		</contour>
		<contour>
			<point x="326" y="-51" type="line"/>
			<point x="274" y="-51" type="line"/>
			<point x="196" y="-187" type="line"/>
			<point x="242" y="-187" type="line"/>
			<point x="324" y="-60" type="line"/>
		</contour>
	</outline>
</glyph>
<glyph name="Hbar" format="2">
	<advance width="702"/>
	<unicode hex="0126"/>
	<note>
		Hbar
	</note>
	<outline>
		<contour>
			<point x="679" y="509" type="line"/>
			<point x="719" y="509" type="line"/>
			<point x="728" y="552" type="line"/>
			<point x="688" y="552" type="line"/>
			<point x="717" y="690" type="line"/>
			<point x="655" y="690" type="line"/>
			<point x="626" y="552" type="line"/>
			<point x="222" y="552" type="line"/>
			<point x="251" y="690" type="line"/>
			<point x="189" y="690" type="line"/>
			<point x="160" y="552" type="line"/>
			<point x="120" y="552" type="line"/>
			<point x="111" y="509" type="line"/>
			<point x="151" y="509" type="line"/>
			<point x="43" y="0" type="line"/>
			<point x="105" y="0" type="line"/>
			<point x="171" y="312" type="line"/>
			<point x="575" y="312" type="line"/>
			<point x="509" y="0" type="line"/>
			<point x="571" y="0" type="line"/>
		</contour>
		<contour>
			<point x="213" y="509" type="line"/>
			<point x="617" y="509" type="line"/>
			<point x="586" y="365" type="line"/>
			<point x="182" y="365" type="line"/>
		</contour>
	</outline>
</glyph>
<glyph name="Imacron" format="2">
	<advance width="236"/>
	<unicode hex="012A"/>
	<note>
		Imacron
	</note>
	<outline>
		<contour>
			<point x="134" y="763" type="line"/>
			<point x="336" y="763" type="line"/>
			<point x="344" y="803" type="line"/>
			<point x="142" y="803" type="line"/>
		</contour>
		<contour>
			<point x="43" y="0" type="line"/>
			<point x="105" y="0" type="line"/>
			<point x="251" y="690" type="line"/>
			<point x="189" y="690" type="line"/>
		</contour>
	</outline>
</glyph>
<glyph name="iogonek" format="2">
	<advance width="210"/>
	<unicode hex="012F"/>
	<note>
		iogonek
	</note>
	<outline>
		<contour>
			<point x="175" y="601" type="curve" smooth="yes"/>
			<point x="199" y="601"/>
			<point x="221" y="620"/>
			<point x="226" y="643" type="curve" smooth="yes"/>
			<point x="231" y="667"/>
			<point x="217" y="685"/>
			<point x="193" y="685" type="curve" smooth="yes"/>
			<point x="170" y="685"/>
			<point x="147" y="667"/>
			<point x="142" y="643" type="curve" smooth="yes"/>
			<point x="137" y="620"/>
			<point x="152" y="601"/>
		</contour>
		<contour>
			<point x="191" y="529" type="line"/>
			<point x="129" y="529" type="line"/>
			<point x="19" y="12" type="line"/>
			<point x="-52" y="-11"/>
			<point x="-118" y="-69"/>
			<point x="-134" y="-144" type="curve" smooth="yes"/>
			<point x="-147" y="-204"/>
			<point x="-115" y="-223"/>
			<point x="-69" y="-223" type="curve" smooth="yes"/>
			<point x="-37" y="-223"/>
			<point x="-8" y="-215"/>
			<point x="19" y="-197" type="curve"/>
			<point x="27" y="-158" type="line"/>
			<point x="3" y="-175"/>
			<point x="-16" y="-182"/>
			<point x="-37" y="-182" type="curve" smooth="yes"/>
			<point x="-66" y="-182"/>
			<point x="-79" y="-168"/>
			<point x="-71" y="-131" type="curve" smooth="yes"/>
			<point x="-58" y="-67"/>
			<point x="-1" y="-13"/>
			<point x="61" y="0" type="curve"/>
			<point x="79" y="0" type="line"/>
		</contour>
	</outline>
</glyph>
<glyph name="dotlessi" format="2">
	<advance width="210"/>
	<unicode hex="0131"/>
	<note>
		dotlessi
	</note>
	<outline>
		<contour>
			<point x="17" y="0" type="line"/>
			<point x="79" y="0" type="line"/>
			<point x="191" y="529" type="line"/>
			<point x="129" y="529" type="line"/>
		</contour>
	</outline>
</glyph>
<glyph name="Lacute" format="2">
	<advance width="562"/>
	<unicode hex="0139"/>
	<note>
		Lacute
	</note>
	<outline>
		<contour>
			<point x="204" y="736" type="line"/>
			<point x="246" y="736" type="line"/>
			<point x="338" y="830" type="line"/>
			<point x="278" y="830" type="line"/>
		</contour>
		<contour>
			<point x="490" y="0" type="line"/>
			<point x="501" y="51" type="line"/>
			<point x="116" y="51" type="line"/>
			<point x="251" y="690" type="line"/>
			<point x="189" y="690" type="line"/>
			<point x="43" y="0" type="line"/>
		</contour>
	</outline>
</glyph>
<glyph name="lacute" format="2">
	<advance width="219"/>
	<unicode hex="013A"/>
	<note>
		lacute
	</note>
	<outline>
		<contour>
			<point x="185" y="785" type="line"/>
			<point x="227" y="785" type="line"/>
			<point x="329" y="895" type="line"/>
			<point x="269" y="895" type="line"/>
		</contour>
		<contour>
			<point x="104" y="140" type="curve" smooth="yes"/>
			<point x="231" y="735" type="line"/>
			<point x="169" y="735" type="line"/>
			<point x="42" y="138" type="line" smooth="yes"/>
			<point x="35" y="106"/>
			<point x="31" y="85"/>
			<point x="28" y="67" type="curve" smooth="yes"/>
			<point x="19" y="10"/>
			<point x="47" y="-4"/>
			<point x="88" y="-4" type="curve" smooth="yes"/>
			<point x="104" y="-4"/>
			<point x="121" y="-4"/>
			<point x="137" y="-1" type="curve"/>
			<point x="147" y="45" type="line"/>
			<point x="101" y="40"/>
			<point x="88" y="49"/>
			<point x="93" y="83" type="curve" smooth="yes"/>
			<point x="96" y="99"/>
			<point x="100" y="117"/>
		</contour>
	</outline>
</glyph>
<glyph name="Ldot" format="2">
	<advance width="562"/>
	<unicode hex="013F"/>
	<note>
		Ldot
	</note>
	<outline>
		<contour>
			<point x="490" y="0" type="line"/>
			<point x="501" y="51" type="line"/>
			<point x="116" y="51" type="line"/>
			<point x="251" y="690" type="line"/>
			<point x="189" y="690" type="line"/>
			<point x="43" y="0" type="line"/>
		</contour>
		<contour>
			<point x="389" y="358" type="curve" smooth="yes"/>
			<point x="412" y="358"/>
			<point x="435" y="377"/>
			<point x="440" y="400" type="curve" smooth="yes"/>
			<point x="445" y="424"/>
			<point x="430" y="442"/>
			<point x="407" y="442" type="curve" smooth="yes"/>
			<point x="383" y="442"/>
			<point x="361" y="424"/>
			<point x="356" y="400" type="curve" smooth="yes"/>
			<point x="351" y="377"/>
			<point x="365" y="358"/>
		</contour>
	</outline>
</glyph>
<glyph name="lslash" format="2">
	<advance width="253"/>
	<unicode hex="0142"/>
	<note>
		lslash
	</note>
	<outline>
		<contour>
			<point x="117" y="83" type="curve" smooth="yes"/>
			<point x="120" y="99"/>
			<point x="124" y="117"/>
			<point x="128" y="140" type="curve" smooth="yes"/>
			<point x="166" y="316" type="line"/>
			<point x="236" y="355" type="line"/>
			<point x="247" y="407" type="line"/>
			<point x="177" y="368" type="line"/>
			<point x="255" y="735" type="line"/>
			<point x="193" y="735" type="line"/>
			<point x="107" y="329" type="line"/>
			<point x="36" y="290" type="line"/>
			<point x="25" y="238" type="line"/>
			<point x="96" y="277" type="line"/>
			<point x="66" y="138" type="line" smooth="yes"/>
			<point x="59" y="106"/>
			<point x="55" y="85"/>
			<point x="52" y="67" type="curve" smooth="yes"/>
			<point x="43" y="10"/>
			<point x="71" y="-4"/>
			<point x="112" y="-4" type="curve" smooth="yes"/>
			<point x="128" y="-4"/>
			<point x="145" y="-4"/>
			<point x="161" y="-1" type="curve"/>
			<point x="171" y="45" type="line"/>
			<point x="125" y="40"/>
			<point x="112" y="49"/>
		</contour>
	</outline>
</glyph>
<glyph name="Ncaron" format="2">
	<advance width="688"/>
	<unicode hex="0147"/>
	<note>
		Ncaron
	</note>
	<outline>
		<contour>
			<point x="387" y="830" type="line"/>
			<point x="433" y="736" type="line"/>
			<point x="478" y="736" type="line"/>
			<point x="565" y="830" type="line"/>
			<point x="515" y="830" type="line"/>
			<point x="462" y="764" type="line"/>
			<point x="437" y="830" type="line"/>
		</contour>
		<contour>
			<point x="236" y="630" type="curve"/>
			<point x="461" y="0" type="line"/>
			<point x="556" y="0" type="line"/>
			<point x="701" y="690" type="line"/>
			<point x="640" y="690" type="line"/>
			<point x="565" y="334" type="line" smooth="yes"/>
			<point x="546" y="248"/>
			<point x="526" y="146"/>
			<point x="509" y="60" type="curve"/>
			<point x="283" y="690" type="line"/>
			<point x="189" y="690" type="line"/>
			<point x="43" y="0" type="line"/>
			<point x="105" y="0" type="line"/>
			<point x="180" y="356" type="line" smooth="yes"/>
			<point x="199" y="442"/>
			<point x="220" y="545"/>
		</contour>
	</outline>
</glyph>
<glyph name="Eng" format="2">
	<advance width="688"/>
	<unicode hex="014A"/>
	<note>
		Eng
	</note>
	<outline>
		<contour>
			<point x="541" y="-67" type="curve" smooth="yes"/>
			<point x="702" y="690" type="line"/>
			<point x="640" y="690" type="line"/>
			<point x="567" y="346" type="line" smooth="yes"/>
			<point x="549" y="261"/>
			<point x="531" y="171"/>
			<point x="515" y="85" type="curve"/>
			<point x="283" y="690" type="line"/>
			<point x="189" y="690" type="line"/>
			<point x="43" y="0" type="line"/>
			<point x="105" y="0" type="line"/>
			<point x="180" y="356" type="line" smooth="yes"/>
			<point x="199" y="442"/>
			<point x="218" y="540"/>
			<point x="235" y="625" type="curve"/>
			<point x="488" y="-27" type="line"/>
			<point x="476" y="-83" type="line" smooth="yes"/>
			<point x="463" y="-146"/>
			<point x="431" y="-171"/>
			<point x="369" y="-171" type="curve"/>
			<point x="358" y="-223" type="line"/>
			<point x="446" y="-222"/>
			<point x="506" y="-193"/>
			<point x="532" y="-108" type="curve" smooth="yes"/>
			<point x="536" y="-94"/>
			<point x="538" y="-85"/>
		</contour>
	</outline>
</glyph>
<glyph name="eng" format="2">
	<advance width="569"/>
	<unicode hex="014B"/>
	<note>
		eng
	</note>
	<outline>
		<contour>
			<point x="524" y="385" type="curve" smooth="yes"/>
			<point x="534" y="482"/>
			<point x="483" y="543"/>
			<point x="371" y="543" type="curve" smooth="yes"/>
			<point x="312" y="543"/>
			<point x="262" y="527"/>
			<point x="210" y="484" type="curve"/>
			<point x="169" y="427" type="line"/>
			<point x="191" y="529" type="line"/>
			<point x="129" y="529" type="line"/>
			<point x="17" y="0" type="line"/>
			<point x="79" y="0" type="line"/>
			<point x="135" y="263" type="line" smooth="yes"/>
			<point x="170" y="428"/>
			<point x="260" y="492"/>
			<point x="348" y="492" type="curve" smooth="yes"/>
			<point x="437" y="492"/>
			<point x="466" y="441"/>
			<point x="458" y="369" type="curve" smooth="yes"/>
			<point x="454" y="342"/>
			<point x="449" y="319"/>
			<point x="443" y="289" type="curve" smooth="yes"/>
			<point x="369" y="-59" type="line" smooth="yes"/>
			<point x="367" y="-71"/>
			<point x="364" y="-81"/>
			<point x="361" y="-92" type="curve" smooth="yes"/>
			<point x="346" y="-144"/>
			<point x="313" y="-158"/>
			<point x="254" y="-158" type="curve"/>
			<point x="243" y="-210" type="line"/>
			<point x="337" y="-210"/>
			<point x="398" y="-184"/>
			<point x="422" y="-95" type="curve" smooth="yes"/>
			<point x="426" y="-81"/>
			<point x="428" y="-72"/>
			<point x="432" y="-54" type="curve" smooth="yes"/>
			<point x="507" y="296" type="line" smooth="yes"/>
			<point x="516" y="339"/>
			<point x="520" y="358"/>
		</contour>
	</outline>
</glyph>
<glyph name="OE" format="2">
	<advance width="1098"/>
	<unicode hex="0152"/>
	<note>
		OE
	</note>
	<outline>
		<contour>
			<point x="1013" y="0" type="line"/>
			<point x="1024" y="51" type="line"/>
			<point x="638" y="51" type="line"/>
			<point x="694" y="319" type="line"/>
			<point x="1044" y="319" type="line"/>
			<point x="1056" y="371" type="line"/>
			<point x="706" y="371" type="line"/>
			<point x="762" y="639" type="line"/>
			<point x="1138" y="639" type="line"/>
			<point x="1149" y="690" type="line"/>
			<point x="711" y="690" type="line"/>
			<point x="676" y="524" type="line"/>
			<point x="664" y="599" type="line"/>
			<point x="619" y="675"/>
			<point x="563" y="704"/>
			<point x="456" y="704" type="curve" smooth="yes"/>
			<point x="261" y="704"/>
			<point x="109" y="548"/>
			<point x="66" y="345" type="curve" smooth="yes"/>
			<point x="23" y="143"/>
			<point x="109" y="-14"/>
			<point x="304" y="-14" type="curve" smooth="yes"/>
			<point x="401" y="-14"/>
			<point x="482" y="16"/>
			<point x="556" y="91" type="curve"/>
			<point x="600" y="166" type="line"/>
			<point x="565" y="0" type="line"/>
		</contour>
		<contour>
			<point x="320" y="36" type="curve" smooth="yes"/>
			<point x="172" y="36"/>
			<point x="95" y="157"/>
			<point x="135" y="345" type="curve" smooth="yes"/>
			<point x="175" y="535"/>
			<point x="304" y="654"/>
			<point x="452" y="654" type="curve" smooth="yes"/>
			<point x="604" y="654"/>
			<point x="678" y="535"/>
			<point x="638" y="345" type="curve" smooth="yes"/>
			<point x="598" y="157"/>
			<point x="472" y="36"/>
		</contour>
	</outline>
</glyph>
<glyph name="oe" format="2">
	<advance width="985"/>
	<unicode hex="0153"/>
	<note>
		oe
	</note>
	<outline>
		<contour>
			<point x="949" y="279" type="curve" smooth="yes"/>
			<point x="980" y="425"/>
			<point x="929" y="543"/>
			<point x="781" y="543" type="curve" smooth="yes"/>
			<point x="690" y="543"/>
			<point x="599" y="494"/>
			<point x="538" y="394" type="curve"/>
			<point x="521" y="492"/>
			<point x="454" y="543"/>
			<point x="346" y="543" type="curve" smooth="yes"/>
			<point x="178" y="543"/>
			<point x="63" y="420"/>
			<point x="30" y="264" type="curve" smooth="yes"/>
			<point x="-3" y="109"/>
			<point x="60" y="-14"/>
			<point x="228" y="-14" type="curve" smooth="yes"/>
			<point x="334" y="-14"/>
			<point x="421" y="37"/>
			<point x="479" y="133" type="curve"/>
			<point x="496" y="30"/>
			<point x="565" y="-14"/>
			<point x="653" y="-14" type="curve" smooth="yes"/>
			<point x="758" y="-14"/>
			<point x="867" y="44"/>
			<point x="918" y="167" type="curve"/>
			<point x="853" y="167" type="line"/>
			<point x="816" y="80"/>
			<point x="740" y="35"/>
			<point x="666" y="35" type="curve" smooth="yes"/>
			<point x="581" y="35"/>
			<point x="515" y="95"/>
			<point x="541" y="246" type="curve"/>
			<point x="941" y="246" type="line"/>
			<point x="945" y="262"/>
			<point x="947" y="272"/>
		</contour>
		<contour>
			<point x="238" y="35" type="curve" smooth="yes"/>
			<point x="128" y="35"/>
			<point x="67" y="120"/>
			<point x="98" y="264" type="curve" smooth="yes"/>
			<point x="128" y="408"/>
			<point x="225" y="493"/>
			<point x="335" y="493" type="curve" smooth="yes"/>
			<point x="445" y="493"/>
			<point x="506" y="408"/>
			<point x="476" y="264" type="curve" smooth="yes"/>
			<point x="445" y="120"/>
			<point x="348" y="35"/>
		</contour>
		<contour>
			<point x="889" y="295" type="curve"/>
			<point x="551" y="295" type="line"/>
			<point x="588" y="428"/>
			<point x="679" y="493"/>
			<point x="768" y="493" type="curve" smooth="yes"/>
			<point x="856" y="493"/>
			<point x="911" y="432"/>
		</contour>
	</outline>
</glyph>
<glyph name="racute" format="2">
	<advance width="303"/>
	<unicode hex="0155"/>
	<note>
		racute
	</note>
	<outline>
		<contour>
			<point x="204" y="580" type="line"/>
			<point x="246" y="580" type="line"/>
			<point x="348" y="690" type="line"/>
			<point x="288" y="690" type="line"/>
		</contour>
		<contour>
			<point x="323" y="541" type="curve" smooth="yes"/>
			<point x="289" y="541"/>
			<point x="252" y="526"/>
			<point x="223" y="501" type="curve"/>
			<point x="171" y="433" type="line"/>
			<point x="191" y="529" type="line"/>
			<point x="129" y="529" type="line"/>
			<point x="17" y="0" type="line"/>
			<point x="79" y="0" type="line"/>
			<point x="142" y="297" type="line" smooth="yes"/>
			<point x="172" y="438"/>
			<point x="252" y="495"/>
			<point x="342" y="488" type="curve"/>
			<point x="353" y="537" type="line"/>
			<point x="344" y="540"/>
			<point x="334" y="541"/>
		</contour>
	</outline>
</glyph>
<glyph name="uni0157" format="2">
	<advance width="303"/>
	<unicode hex="0157"/>
	<note>
		rcommaaccent
	</note>
	<outline>
		<contour>
			<point x="323" y="541" type="curve" smooth="yes"/>
			<point x="289" y="541"/>
			<point x="252" y="526"/>
			<point x="223" y="501" type="curve"/>
			<point x="171" y="433" type="line"/>
			<point x="191" y="529" type="line"/>
			<point x="129" y="529" type="line"/>
			<point x="17" y="0" type="line"/>
			<point x="79" y="0" type="line"/>
			<point x="142" y="297" type="line" smooth="yes"/>
			<point x="172" y="438"/>
			<point x="252" y="495"/>
			<point x="342" y="488" type="curve"/>
			<point x="353" y="537" type="line"/>
			<point x="344" y="540"/>
			<point x="334" y="541"/>
		</contour>
		<contour>
			<point x="65" y="-51" type="line"/>
			<point x="13" y="-51" type="line"/>
			<point x="-65" y="-187" type="line"/>
			<point x="-19" y="-187" type="line"/>
			<point x="63" y="-60" type="line"/>
		</contour>
	</outline>
</glyph>
<glyph name="rcaron" format="2">
	<advance width="303"/>
	<unicode hex="0159"/>
	<note>
		rcaron
	</note>
	<outline>
		<contour>
			<point x="165" y="690" type="line"/>
			<point x="208" y="580" type="line"/>
			<point x="253" y="580" type="line"/>
			<point x="343" y="690" type="line"/>
			<point x="295" y="690" type="line"/>
			<point x="238" y="615" type="line"/>
			<point x="214" y="690" type="line"/>
		</contour>
		<contour>
			<point x="323" y="541" type="curve" smooth="yes"/>
			<point x="289" y="541"/>
			<point x="252" y="526"/>
			<point x="223" y="501" type="curve"/>
			<point x="171" y="433" type="line"/>
			<point x="191" y="529" type="line"/>
			<point x="129" y="529" type="line"/>
			<point x="17" y="0" type="line"/>
			<point x="79" y="0" type="line"/>
			<point x="142" y="297" type="line" smooth="yes"/>
			<point x="172" y="438"/>
			<point x="252" y="495"/>
			<point x="342" y="488" type="curve"/>
			<point x="353" y="537" type="line"/>
			<point x="344" y="540"/>
			<point x="334" y="541"/>
		</contour>
	</outline>
</glyph>
<glyph name="scaron" format="2">
	<advance width="450"/>
	<unicode hex="0161"/>
	<note>
		scaron
	</note>
	<outline>
		<contour>
			<point x="227" y="690" type="line"/>
			<point x="270" y="580" type="line"/>
			<point x="315" y="580" type="line"/>
			<point x="405" y="690" type="line"/>
			<point x="357" y="690" type="line"/>
			<point x="300" y="615" type="line"/>
			<point x="276" y="690" type="line"/>
		</contour>
		<contour>
			<point x="243" y="295" type="curve" smooth="yes"/>
			<point x="171" y="314"/>
			<point x="127" y="338"/>
			<point x="139" y="399" type="curve" smooth="yes"/>
			<point x="152" y="457"/>
			<point x="202" y="493"/>
			<point x="266" y="493" type="curve" smooth="yes"/>
			<point x="337" y="493"/>
			<point x="372" y="454"/>
			<point x="372" y="381" type="curve"/>
			<point x="437" y="381" type="line"/>
			<point x="444" y="474"/>
			<point x="397" y="543"/>
			<point x="282" y="543" type="curve" smooth="yes"/>
			<point x="178" y="543"/>
			<point x="93" y="483"/>
			<point x="74" y="392" type="curve" smooth="yes"/>
			<point x="55" y="301"/>
			<point x="122" y="264"/>
			<point x="208" y="240" type="curve" smooth="yes"/>
			<point x="305" y="215"/>
			<point x="337" y="186"/>
			<point x="325" y="127" type="curve" smooth="yes"/>
			<point x="312" y="66"/>
			<point x="250" y="35"/>
			<point x="183" y="35" type="curve" smooth="yes"/>
			<point x="112" y="35"/>
			<point x="62" y="66"/>
			<point x="66" y="156" type="curve"/>
			<point x="2" y="156" type="line"/>
			<point x="-9" y="36"/>
			<point x="64" y="-14"/>
			<point x="169" y="-14" type="curve" smooth="yes"/>
			<point x="278" y="-14"/>
			<point x="369" y="38"/>
			<point x="389" y="132" type="curve" smooth="yes"/>
			<point x="408" y="221"/>
			<point x="359" y="265"/>
		</contour>
	</outline>
</glyph>
<glyph name="uni0162" format="2">
	<advance width="600"/>
	<unicode hex="0162"/>
	<note>
		Tcedilla
	</note>
	<outline>
		<contour>
			<point x="250" y="-44" type="curve"/>
			<point x="285" y="0" type="line"/>
			<point x="292" y="0" type="line"/>
			<point x="427" y="639" type="line"/>
			<point x="680" y="639" type="line"/>
			<point x="691" y="690" type="line"/>
			<point x="123" y="690" type="line"/>
			<point x="112" y="639" type="line"/>
			<point x="365" y="639" type="line"/>
			<point x="230" y="0" type="line"/>
			<point x="242" y="0" type="line"/>
			<point x="186" y="-75" type="line"/>
			<point x="256" y="-70"/>
			<point x="280" y="-90"/>
			<point x="272" y="-126" type="curve" smooth="yes"/>
			<point x="265" y="-158"/>
			<point x="235" y="-176"/>
			<point x="193" y="-176" type="curve" smooth="yes"/>
			<point x="171" y="-176"/>
			<point x="156" y="-173"/>
			<point x="143" y="-165" type="curve"/>
			<point x="135" y="-201" type="line"/>
			<point x="148" y="-207"/>
			<point x="164" y="-210"/>
			<point x="184" y="-210" type="curve" smooth="yes"/>
			<point x="248" y="-210"/>
			<point x="305" y="-182"/>
			<point x="317" y="-125" type="curve" smooth="yes"/>
			<point x="327" y="-77"/>
			<point x="302" y="-50"/>
		</contour>
	</outline>
</glyph>
<glyph name="tcaron" format="2">
	<advance width="272"/>
	<unicode hex="0165"/>
	<note>
		tcaron
	</note>
	<outline>
		<contour>
			<point x="396" y="725" type="line"/>
			<point x="398" y="735" type="line"/>
			<point x="346" y="735" type="line"/>
			<point x="268" y="599" type="line"/>
			<point x="314" y="599" type="line"/>
		</contour>
		<contour>
			<point x="309" y="525" type="line"/>
			<point x="208" y="525" type="line"/>
			<point x="233" y="642" type="line"/>
			<point x="171" y="642" type="line"/>
			<point x="146" y="525" type="line"/>
			<point x="78" y="525" type="line"/>
			<point x="68" y="477" type="line"/>
			<point x="136" y="477" type="line"/>
			<point x="65" y="144" type="line" smooth="yes"/>
			<point x="59" y="114"/>
			<point x="55" y="94"/>
			<point x="52" y="76" type="curve" smooth="yes"/>
			<point x="44" y="18"/>
			<point x="70" y="-8"/>
			<point x="129" y="-8" type="curve" smooth="yes"/>
			<point x="150" y="-8"/>
			<point x="172" y="-7"/>
			<point x="194" y="-3" type="curve"/>
			<point x="204" y="43" type="line"/>
			<point x="131" y="34"/>
			<point x="112" y="47"/>
			<point x="119" y="98" type="curve" smooth="yes"/>
			<point x="120" y="112"/>
			<point x="123" y="123"/>
			<point x="127" y="145" type="curve" smooth="yes"/>
			<point x="198" y="477" type="line"/>
			<point x="299" y="477" type="line"/>
		</contour>
	</outline>
</glyph>
<glyph name="Tbar" format="2">
	<advance width="600"/>
	<unicode hex="0166"/>
	<note>
		Tbar
	</note>
	<outline>
		<contour>
			<point x="367" y="355" type="line"/>
			<point x="427" y="639" type="line"/>
			<point x="680" y="639" type="line"/>
			<point x="691" y="690" type="line"/>
			<point x="123" y="690" type="line"/>
			<point x="112" y="639" type="line"/>
			<point x="365" y="639" type="line"/>
			<point x="305" y="355" type="line"/>
			<point x="181" y="355" type="line"/>
			<point x="172" y="312" type="line"/>
			<point x="296" y="312" type="line"/>
			<point x="230" y="0" type="line"/>
			<point x="292" y="0" type="line"/>
			<point x="358" y="312" type="line"/>
			<point x="482" y="312" type="line"/>
			<point x="491" y="355" type="line"/>
		</contour>
	</outline>
</glyph>
<glyph name="uhungarumlaut" format="2">
	<advance width="567"/>
	<unicode hex="0171"/>
	<note>
		uhungarumlaut
	</note>
	<outline>
		<contour>
			<point x="265" y="580" type="line"/>
			<point x="307" y="580" type="line"/>
			<point x="409" y="690" type="line"/>
			<point x="348" y="690" type="line"/>
		</contour>
		<contour>
			<point x="462" y="690" type="line"/>
			<point x="379" y="580" type="line"/>
			<point x="421" y="580" type="line"/>
			<point x="523" y="690" type="line"/>
		</contour>
		<contour>
			<point x="436" y="0" type="line"/>
			<point x="548" y="529" type="line"/>
			<point x="486" y="529" type="line"/>
			<point x="430" y="266" type="line" smooth="yes"/>
			<point x="395" y="100"/>
			<point x="306" y="36"/>
			<point x="218" y="36" type="curve" smooth="yes"/>
			<point x="136" y="36"/>
			<point x="101" y="85"/>
			<point x="108" y="155" type="curve" smooth="yes"/>
			<point x="110" y="182"/>
			<point x="115" y="209"/>
			<point x="120" y="234" type="curve" smooth="yes"/>
			<point x="183" y="529" type="line"/>
			<point x="121" y="529" type="line"/>
			<point x="55" y="220" type="line" smooth="yes"/>
			<point x="46" y="177"/>
			<point x="43" y="158"/>
			<point x="41" y="131" type="curve" smooth="yes"/>
			<point x="35" y="47"/>
			<point x="86" y="-14"/>
			<point x="194" y="-14" type="curve" smooth="yes"/>
			<point x="252" y="-14"/>
			<point x="303" y="2"/>
			<point x="354" y="43" type="curve"/>
			<point x="395" y="102" type="line"/>
			<point x="374" y="0" type="line"/>
		</contour>
	</outline>
</glyph>
<glyph name="Uogonek" format="2">
	<advance width="651"/>
	<unicode hex="0172"/>
	<note>
		Uogonek
	</note>
	<outline>
		<contour>
			<point x="579" y="247" type="curve" smooth="yes"/>
			<point x="673" y="690" type="line"/>
			<point x="611" y="690" type="line"/>
			<point x="518" y="250" type="line" smooth="yes"/>
			<point x="513" y="228"/>
			<point x="508" y="208"/>
			<point x="502" y="189" type="curve" smooth="yes"/>
			<point x="475" y="102"/>
			<point x="404" y="36"/>
			<point x="289" y="36" type="curve" smooth="yes"/>
			<point x="173" y="36"/>
			<point x="130" y="102"/>
			<point x="141" y="189" type="curve" smooth="yes"/>
			<point x="143" y="208"/>
			<point x="147" y="228"/>
			<point x="152" y="250" type="curve" smooth="yes"/>
			<point x="245" y="690" type="line"/>
			<point x="183" y="690" type="line"/>
			<point x="89" y="247" type="line" smooth="yes"/>
			<point x="85" y="227"/>
			<point x="81" y="207"/>
			<point x="78" y="183" type="curve" smooth="yes"/>
			<point x="63" y="71"/>
			<point x="121" y="-14"/>
			<point x="279" y="-14" type="curve" smooth="yes"/>
			<point x="286" y="-14" type="line"/>
			<point x="237" y="-44"/>
			<point x="199" y="-89"/>
			<point x="187" y="-144" type="curve" smooth="yes"/>
			<point x="174" y="-204"/>
			<point x="206" y="-223"/>
			<point x="252" y="-223" type="curve" smooth="yes"/>
			<point x="284" y="-223"/>
			<point x="313" y="-215"/>
			<point x="340" y="-197" type="curve"/>
			<point x="348" y="-158" type="line"/>
			<point x="324" y="-175"/>
			<point x="305" y="-182"/>
			<point x="284" y="-182" type="curve" smooth="yes"/>
			<point x="255" y="-182"/>
			<point x="242" y="-168"/>
			<point x="250" y="-131" type="curve" smooth="yes"/>
			<point x="263" y="-67"/>
			<point x="320" y="-17"/>
			<point x="382" y="0" type="curve" smooth="yes"/>
			<point x="478" y="29"/>
			<point x="539" y="98"/>
			<point x="563" y="183" type="curve" smooth="yes"/>
			<point x="570" y="207"/>
			<point x="575" y="227"/>
		</contour>
	</outline>
</glyph>
<glyph name="uogonek" format="2">
	<advance width="567"/>
	<unicode hex="0173"/>
	<note>
		uogonek
	</note>
	<outline>
		<contour>
			<point x="436" y="0" type="line"/>
			<point x="548" y="529" type="line"/>
			<point x="486" y="529" type="line"/>
			<point x="430" y="266" type="line" smooth="yes"/>
			<point x="395" y="100"/>
			<point x="306" y="36"/>
			<point x="218" y="36" type="curve" smooth="yes"/>
			<point x="136" y="36"/>
			<point x="101" y="85"/>
			<point x="108" y="155" type="curve" smooth="yes"/>
			<point x="110" y="182"/>
			<point x="115" y="209"/>
			<point x="120" y="234" type="curve" smooth="yes"/>
			<point x="183" y="529" type="line"/>
			<point x="121" y="529" type="line"/>
			<point x="55" y="220" type="line" smooth="yes"/>
			<point x="46" y="177"/>
			<point x="43" y="158"/>
			<point x="41" y="131" type="curve" smooth="yes"/>
			<point x="35" y="47"/>
			<point x="86" y="-14"/>
			<point x="194" y="-14" type="curve" smooth="yes"/>
			<point x="252" y="-14"/>
			<point x="303" y="2"/>
			<point x="354" y="43" type="curve"/>
			<point x="395" y="102" type="line"/>
			<point x="376" y="12" type="line"/>
			<point x="305" y="-11"/>
			<point x="239" y="-69"/>
			<point x="223" y="-144" type="curve" smooth="yes"/>
			<point x="210" y="-204"/>
			<point x="242" y="-223"/>
			<point x="288" y="-223" type="curve" smooth="yes"/>
			<point x="320" y="-223"/>
			<point x="349" y="-215"/>
			<point x="376" y="-197" type="curve"/>
			<point x="384" y="-158" type="line"/>
			<point x="360" y="-175"/>
			<point x="341" y="-182"/>
			<point x="320" y="-182" type="curve" smooth="yes"/>
			<point x="291" y="-182"/>
			<point x="278" y="-168"/>
			<point x="286" y="-131" type="curve" smooth="yes"/>
			<point x="299" y="-67"/>
			<point x="356" y="-13"/>
			<point x="418" y="0" type="curve"/>
		</contour>
	</outline>
</glyph>
<glyph name="wcircumflex" format="2">
	<advance width="759"/>
	<unicode hex="0175"/>
	<note>
		wcircumflex
	</note>
	<outline>
		<contour>
			<point x="360" y="580" type="line"/>
			<point x="408" y="580" type="line"/>
			<point x="464" y="655" type="line"/>
			<point x="489" y="580" type="line"/>
			<point x="538" y="580" type="line"/>
			<point x="494" y="690" type="line"/>
			<point x="449" y="690" type="line"/>
		</contour>
		<contour>
			<point x="529" y="0" type="line"/>
			<point x="808" y="529" type="line"/>
			<point x="742" y="529" type="line"/>
			<point x="508" y="62" type="line"/>
			<point x="477" y="528" type="line"/>
			<point x="398" y="528" type="line"/>
			<point x="169" y="57" type="line"/>
			<point x="133" y="529" type="line"/>
			<point x="62" y="529" type="line"/>
			<point x="118" y="0" type="line"/>
			<point x="194" y="0" type="line"/>
			<point x="423" y="466" type="line"/>
			<point x="454" y="0" type="line"/>
		</contour>
	</outline>
</glyph>
<glyph name="Ydieresis" format="2">
	<advance width="568"/>
	<unicode hex="0178"/>
	<note>
		Ydieresis
	</note>
	<outline>
		<contour>
			<point x="271" y="0" type="line"/>
			<point x="329" y="276" type="line"/>
			<point x="662" y="690" type="line"/>
			<point x="591" y="690" type="line"/>
			<point x="314" y="336" type="line"/>
			<point x="182" y="690" type="line"/>
			<point x="111" y="690" type="line"/>
			<point x="267" y="275" type="line"/>
			<point x="209" y="0" type="line"/>
		</contour>
		<contour>
			<point x="322" y="820" type="line"/>
			<point x="307" y="748" type="line"/>
			<point x="379" y="748" type="line"/>
			<point x="394" y="820" type="line"/>
		</contour>
		<contour>
			<point x="436" y="820" type="line"/>
			<point x="421" y="748" type="line"/>
			<point x="493" y="748" type="line"/>
			<point x="508" y="820" type="line"/>
		</contour>
	</outline>
</glyph>
<glyph name="Zdotaccent" format="2">
	<advance width="571"/>
	<unicode hex="017B"/>
	<note>
		Zdotaccent
	</note>
	<outline>
		<contour>
			<point x="396" y="747" type="curve" smooth="yes"/>
			<point x="416" y="747"/>
			<point x="436" y="763"/>
			<point x="440" y="783" type="curve" smooth="yes"/>
			<point x="444" y="803"/>
			<point x="432" y="819"/>
			<point x="412" y="819" type="curve" smooth="yes"/>
			<point x="392" y="819"/>
			<point x="372" y="803"/>
			<point x="368" y="783" type="curve" smooth="yes"/>
			<point x="364" y="763"/>
			<point x="376" y="747"/>
		</contour>
		<contour>
			<point x="492" y="0" type="line"/>
			<point x="503" y="52" type="line"/>
			<point x="71" y="52" type="line"/>
			<point x="621" y="639" type="line"/>
			<point x="632" y="690" type="line"/>
			<point x="160" y="690" type="line"/>
			<point x="149" y="638" type="line"/>
			<point x="549" y="638" type="line"/>
			<point x="-4" y="48" type="line"/>
			<point x="-14" y="0" type="line"/>
		</contour>
	</outline>
</glyph>
<glyph name="zdotaccent" format="2">
	<advance width="455"/>
	<unicode hex="017C"/>
	<note>
		zdotaccent
	</note>
	<outline>
		<contour>
			<point x="298" y="601" type="curve" smooth="yes"/>
			<point x="322" y="601"/>
			<point x="344" y="620"/>
			<point x="349" y="643" type="curve" smooth="yes"/>
			<point x="354" y="667"/>
			<point x="340" y="685"/>
			<point x="316" y="685" type="curve" smooth="yes"/>
			<point x="293" y="685"/>
			<point x="270" y="667"/>
			<point x="265" y="643" type="curve" smooth="yes"/>
			<point x="260" y="620"/>
			<point x="275" y="601"/>
		</contour>
		<contour>
			<point x="373" y="0" type="line"/>
			<point x="383" y="50" type="line"/>
			<point x="46" y="50" type="line"/>
			<point x="469" y="472" type="line"/>
			<point x="480" y="523" type="line"/>
			<point x="96" y="523" type="line"/>
			<point x="85" y="473" type="line"/>
			<point x="395" y="473" type="line"/>
			<point x="-29" y="48" type="line"/>
			<point x="-39" y="0" type="line"/>
		</contour>
	</outline>
</glyph>
<glyph name="Zcaron" format="2">
	<advance width="571"/>
	<unicode hex="017D"/>
	<note>
		Zcaron
	</note>
	<outline>
		<contour>
			<point x="326" y="830" type="line"/>
			<point x="372" y="736" type="line"/>
			<point x="417" y="736" type="line"/>
			<point x="504" y="830" type="line"/>
			<point x="454" y="830" type="line"/>
			<point x="401" y="764" type="line"/>
			<point x="376" y="830" type="line"/>
		</contour>
		<contour>
			<point x="492" y="0" type="line"/>
			<point x="503" y="52" type="line"/>
			<point x="71" y="52" type="line"/>
			<point x="621" y="639" type="line"/>
			<point x="632" y="690" type="line"/>
			<point x="160" y="690" type="line"/>
			<point x="149" y="638" type="line"/>
			<point x="549" y="638" type="line"/>
			<point x="-4" y="48" type="line"/>
			<point x="-14" y="0" type="line"/>
		</contour>
	</outline>
</glyph>
<glyph name="dotaccent" format="2">
	<advance width="300"/>
	<unicode hex="02D9"/>
	<note>
		dotaccent
	</note>
	<outline>
		<contour>
			<point x="239" y="685" type="curve" smooth="yes"/>
			<point x="216" y="685"/>
			<point x="193" y="667"/>
			<point x="188" y="643" type="curve" smooth="yes"/>
			<point x="183" y="620"/>
			<point x="198" y="601"/>
			<point x="221" y="601" type="curve" smooth="yes"/>
			<point x="245" y="601"/>
			<point x="267" y="620"/>
			<point x="272" y="643" type="curve" smooth="yes"/>
			<point x="277" y="667"/>
			<point x="263" y="685"/>
		</contour>
	</outline>
</glyph>
<glyph name="ring" format="2">
	<advance width="300"/>
	<unicode hex="02DA"/>
	<note>
		ring
	</note>
	<outline>
		<contour>
			<point x="247" y="719" type="curve" smooth="yes"/>
			<point x="201" y="719"/>
			<point x="160" y="688"/>
			<point x="150" y="643" type="curve" smooth="yes"/>
			<point x="141" y="599"/>
			<point x="168" y="568"/>
			<point x="214" y="568" type="curve" smooth="yes"/>
			<point x="260" y="568"/>
			<point x="301" y="599"/>
			<point x="310" y="643" type="curve" smooth="yes"/>
			<point x="320" y="688"/>
			<point x="293" y="719"/>
		</contour>
		<contour>
			<point x="240" y="689" type="curve" smooth="yes"/>
			<point x="264" y="689"/>
			<point x="276" y="670"/>
			<point x="270" y="643" type="curve" smooth="yes"/>
			<point x="265" y="616"/>
			<point x="245" y="598"/>
			<point x="221" y="598" type="curve" smooth="yes"/>
			<point x="197" y="598"/>
			<point x="185" y="616"/>
			<point x="190" y="643" type="curve" smooth="yes"/>
			<point x="196" y="670"/>
			<point x="216" y="689"/>
		</contour>
	</outline>
</glyph>
<glyph name="ogonek" format="2">
	<advance width="300"/>
	<unicode hex="02DB"/>
	<note>
		ogonek
	</note>
	<outline>
		<contour>
			<point x="138" y="0" type="curve"/>
			<point x="96" y="12" type="line"/>
			<point x="25" y="-11"/>
			<point x="-41" y="-69"/>
			<point x="-57" y="-144" type="curve" smooth="yes"/>
			<point x="-70" y="-204"/>
			<point x="-38" y="-223"/>
			<point x="8" y="-223" type="curve" smooth="yes"/>
			<point x="40" y="-223"/>
			<point x="69" y="-215"/>
			<point x="96" y="-197" type="curve"/>
			<point x="104" y="-158" type="line"/>
			<point x="80" y="-175"/>
			<point x="61" y="-182"/>
			<point x="40" y="-182" type="curve" smooth="yes"/>
			<point x="11" y="-182"/>
			<point x="-2" y="-168"/>
			<point x="6" y="-131" type="curve" smooth="yes"/>
			<point x="19" y="-67"/>
			<point x="76" y="-13"/>
		</contour>
	</outline>
</glyph>
<glyph name="Wgrave" format="2">
	<advance width="904"/>
	<unicode hex="1E80"/>
	<note>
		Wgrave
	</note>
	<outline>
		<contour>
			<point x="489" y="830" type="line"/>
			<point x="541" y="736" type="line"/>
			<point x="583" y="736" type="line"/>
			<point x="550" y="830" type="line"/>
		</contour>
		<contour>
			<point x="655" y="0" type="line"/>
			<point x="990" y="690" type="line"/>
			<point x="925" y="690" type="line"/>
			<point x="629" y="56" type="line"/>
			<point x="594" y="680" type="line"/>
			<point x="511" y="680" type="line"/>
			<point x="205" y="56" type="line"/>
			<point x="186" y="690" type="line"/>
			<point x="116" y="690" type="line"/>
			<point x="149" y="0" type="line"/>
			<point x="231" y="0" type="line"/>
			<point x="538" y="618" type="line"/>
			<point x="574" y="0" type="line"/>
		</contour>
	</outline>
</glyph>
<glyph name="wacute" format="2">
	<advance width="759"/>
	<unicode hex="1E83"/>
	<note>
		wacute
	</note>
	<outline>
		<contour>
			<point x="422" y="580" type="line"/>
			<point x="464" y="580" type="line"/>
			<point x="566" y="690" type="line"/>
			<point x="506" y="690" type="line"/>
		</contour>
		<contour>
			<point x="529" y="0" type="line"/>
			<point x="808" y="529" type="line"/>
			<point x="742" y="529" type="line"/>
			<point x="508" y="62" type="line"/>
			<point x="477" y="528" type="line"/>
			<point x="398" y="528" type="line"/>
			<point x="169" y="57" type="line"/>
			<point x="133" y="529" type="line"/>
			<point x="62" y="529" type="line"/>
			<point x="118" y="0" type="line"/>
			<point x="194" y="0" type="line"/>
			<point x="423" y="466" type="line"/>
			<point x="454" y="0" type="line"/>
		</contour>
	</outline>
</glyph>
<glyph name="Ygrave" format="2">
	<advance width="568"/>
	<unicode hex="1EF2"/>
	<note>
		Ygrave
	</note>
	<outline>
		<contour>
			<point x="325" y="830" type="line"/>
			<point x="377" y="736" type="line"/>
			<point x="419" y="736" type="line"/>
			<point x="386" y="830" type="line"/>
		</contour>
		<contour>
			<point x="271" y="0" type="line"/>
			<point x="329" y="276" type="line"/>
			<point x="662" y="690" type="line"/>
			<point x="591" y="690" type="line"/>
			<point x="314" y="336" type="line"/>
			<point x="182" y="690" type="line"/>
			<point x="111" y="690" type="line"/>
			<point x="267" y="275" type="line"/>
			<point x="209" y="0" type="line"/>
		</contour>
	</outline>
</glyph>
<glyph name="endash" format="2">
	<advance width="500"/>
	<unicode hex="2013"/>
	<note>
		endash
	</note>
	<outline>
		<contour>
			<point x="71" y="270" type="line"/>
			<point x="431" y="270" type="line"/>
			<point x="440" y="313" type="line"/>
			<point x="80" y="313" type="line"/>
		</contour>
	</outline>
</glyph>
<glyph name="emdash" format="2">
	<advance width="1000"/>
	<unicode hex="2014"/>
	<note>
		emdash
	</note>
	<outline>
		<contour>
			<point x="71" y="270" type="line"/>
			<point x="931" y="270" type="line"/>
			<point x="940" y="313" type="line"/>
			<point x="80" y="313" type="line"/>
		</contour>
	</outline>
</glyph>
<glyph name="quotesinglbase" format="2">
	<advance width="194"/>
	<unicode hex="201A"/>
	<note>
		quotesinglbase
	</note>
	<outline>
		<contour>
			<point x="-44" y="-119" type="line"/>
			<point x="70" y="63" type="line"/>
			<point x="72" y="72" type="line"/>
			<point x="5" y="72" type="line"/>
			<point x="-102" y="-119" type="line"/>
		</contour>
	</outline>
</glyph>
<glyph name="quotedblright" format="2">
	<advance width="337"/>
	<unicode hex="201D"/>
	<note>
		quotedblright
	</note>
	<outline>
		<contour>
			<point x="119" y="487" type="line"/>
			<point x="256" y="727" type="line"/>
			<point x="258" y="735" type="line"/>
			<point x="191" y="735" type="line"/>
			<point x="63" y="487" type="line"/>
		</contour>
		<contour>
			<point x="259" y="487" type="line"/>
			<point x="396" y="727" type="line"/>
			<point x="398" y="735" type="line"/>
			<point x="331" y="735" type="line"/>
			<point x="203" y="487" type="line"/>
		</contour>
	</outline>
</glyph>
<glyph name="quotedblbase" format="2">
	<advance width="326"/>
	<unicode hex="201E"/>
	<note>
		quotedblbase
	</note>
	<outline>
		<contour>
			<point x="-44" y="-119" type="line"/>
			<point x="70" y="63" type="line"/>
			<point x="72" y="72" type="line"/>
			<point x="5" y="72" type="line"/>
			<point x="-102" y="-119" type="line"/>
		</contour>
		<contour>
			<point x="88" y="-119" type="line"/>
			<point x="203" y="63" type="line"/>
			<point x="204" y="72" type="line"/>
			<point x="137" y="72" type="line"/>
			<point x="30" y="-119" type="line"/>
		</contour>
	</outline>
</glyph>
<glyph name="daggerdbl" format="2">
	<advance width="550"/>
	<unicode hex="2021"/>
	<note>
		daggerdbl
	</note>
	<outline>
		<contour>
			<point x="277" y="139" type="line"/>
			<point x="331" y="390" type="line"/>
			<point x="513" y="385" type="line"/>
			<point x="525" y="442" type="line"/>
			<point x="341" y="437" type="line"/>
			<point x="402" y="690" type="line"/>
			<point x="328" y="690" type="line"/>
			<point x="283" y="437" type="line"/>
			<point x="102" y="442" type="line"/>
			<point x="90" y="385" type="line"/>
			<point x="273" y="390" type="line"/>
			<point x="219" y="139" type="line"/>
			<point x="38" y="144" type="line"/>
			<point x="26" y="87" type="line"/>
			<point x="209" y="92" type="line"/>
			<point x="149" y="-160" type="line"/>
			<point x="222" y="-160" type="line"/>
			<point x="267" y="92" type="line"/>
			<point x="449" y="87" type="line"/>
			<point x="461" y="144" type="line"/>
		</contour>
	</outline>
</glyph>
<glyph name="bullet" format="2">
	<advance width="293"/>
	<unicode hex="2022"/>
	<note>
		bullet
	</note>
	<outline>
		<contour>
			<point x="172" y="387" type="curve" smooth="yes"/>
			<point x="126" y="387"/>
			<point x="83" y="352"/>
			<point x="74" y="305" type="curve" smooth="yes"/>
			<point x="64" y="258"/>
			<point x="91" y="223"/>
			<point x="137" y="223" type="curve" smooth="yes"/>
			<point x="184" y="223"/>
			<point x="227" y="258"/>
			<point x="237" y="305" type="curve" smooth="yes"/>
			<point x="246" y="352"/>
			<point x="219" y="387"/>
		</contour>
	</outline>
</glyph>
<glyph name="ellipsis" format="2">
	<advance width="519"/>
	<unicode hex="2026"/>
	<note>
		ellipsis
	</note>
	<outline>
		<contour>
			<point x="0" y="81" type="line"/>
			<point x="-21" y="-15" type="line"/>
			<point x="74" y="-15" type="line"/>
			<point x="95" y="81" type="line"/>
		</contour>
		<contour>
			<point x="161" y="81" type="line"/>
			<point x="140" y="-15" type="line"/>
			<point x="235" y="-15" type="line"/>
			<point x="256" y="81" type="line"/>
		</contour>
		<contour>
			<point x="323" y="81" type="line"/>
			<point x="303" y="-15" type="line"/>
			<point x="398" y="-15" type="line"/>
			<point x="418" y="81" type="line"/>
		</contour>
	</outline>
</glyph>
<glyph name="perthousand" format="2">
	<advance width="1050"/>
	<unicode hex="2030"/>
	<note>
		perthousand
	</note>
	<outline>
		<contour>
			<point x="392" y="543" type="curve" smooth="yes"/>
			<point x="412" y="638"/>
			<point x="372" y="702"/>
			<point x="286" y="702" type="curve" smooth="yes"/>
			<point x="200" y="702"/>
			<point x="131" y="638"/>
			<point x="111" y="543" type="curve" smooth="yes"/>
			<point x="91" y="449"/>
			<point x="132" y="384"/>
			<point x="218" y="384" type="curve" smooth="yes"/>
			<point x="304" y="384"/>
			<point x="372" y="449"/>
		</contour>
		<contour>
			<point x="115" y="0" type="line"/>
			<point x="709" y="690" type="line"/>
			<point x="644" y="690" type="line"/>
			<point x="51" y="0" type="line"/>
		</contour>
		<contour>
			<point x="173" y="543" type="curve" smooth="yes"/>
			<point x="188" y="614"/>
			<point x="227" y="656"/>
			<point x="276" y="656" type="curve" smooth="yes"/>
			<point x="325" y="656"/>
			<point x="346" y="614"/>
			<point x="331" y="543" type="curve" smooth="yes"/>
			<point x="316" y="473"/>
			<point x="277" y="429"/>
			<point x="228" y="429" type="curve" smooth="yes"/>
			<point x="179" y="429"/>
			<point x="158" y="473"/>
		</contour>
		<contour>
			<point x="540" y="304" type="curve" smooth="yes"/>
			<point x="454" y="304"/>
			<point x="386" y="240"/>
			<point x="365" y="145" type="curve" smooth="yes"/>
			<point x="346" y="51"/>
			<point x="387" y="-14"/>
			<point x="473" y="-14" type="curve" smooth="yes"/>
			<point x="559" y="-14"/>
			<point x="627" y="51"/>
			<point x="646" y="145" type="curve" smooth="yes"/>
			<point x="667" y="240"/>
			<point x="626" y="304"/>
		</contour>
		<contour>
			<point x="866" y="304" type="curve" smooth="yes"/>
			<point x="779" y="304"/>
			<point x="712" y="240"/>
			<point x="691" y="145" type="curve" smooth="yes"/>
			<point x="672" y="51"/>
			<point x="712" y="-14"/>
			<point x="799" y="-14" type="curve" smooth="yes"/>
			<point x="885" y="-14"/>
			<point x="953" y="51"/>
			<point x="972" y="145" type="curve" smooth="yes"/>
			<point x="993" y="240"/>
			<point x="952" y="304"/>
		</contour>
		<contour>
			<point x="482" y="31" type="curve" smooth="yes"/>
			<point x="433" y="31"/>
			<point x="413" y="75"/>
			<point x="427" y="145" type="curve" smooth="yes"/>
			<point x="443" y="216"/>
			<point x="482" y="259"/>
			<point x="531" y="259" type="curve" smooth="yes"/>
			<point x="580" y="259"/>
			<point x="601" y="216"/>
			<point x="585" y="145" type="curve" smooth="yes"/>
			<point x="571" y="75"/>
			<point x="531" y="31"/>
		</contour>
		<contour>
			<point x="808" y="31" type="curve" smooth="yes"/>
			<point x="758" y="31"/>
			<point x="739" y="75"/>
			<point x="753" y="145" type="curve" smooth="yes"/>
			<point x="769" y="216"/>
			<point x="807" y="259"/>
			<point x="857" y="259" type="curve" smooth="yes"/>
			<point x="906" y="259"/>
			<point x="927" y="216"/>
			<point x="911" y="145" type="curve" smooth="yes"/>
			<point x="897" y="75"/>
			<point x="857" y="31"/>
		</contour>
	</outline>
</glyph>
<glyph name="fraction" format="2">
	<advance width="174"/>
	<unicode hex="2044"/>
	<note>
		fraction
	</note>
	<outline>
		<contour>
			<point x="-225" y="0" type="line"/>
			<point x="-161" y="0" type="line"/>
			<point x="433" y="690" type="line"/>
			<point x="369" y="690" type="line"/>
		</contour>
	</outline>
</glyph>
<glyph name="partialdiff" format="2">
	<advance width="561"/>
	<unicode hex="2202"/>
	<note>
		partialdiff
	</note>
	<outline>
		<contour>
			<point x="360" y="758" type="curve" smooth="yes"/>
			<point x="288" y="758"/>
			<point x="232" y="740"/>
			<point x="169" y="695" type="curve"/>
			<point x="189" y="656" type="line"/>
			<point x="241" y="693"/>
			<point x="283" y="709"/>
			<point x="345" y="709" type="curve" smooth="yes"/>
			<point x="479" y="709"/>
			<point x="493" y="566"/>
			<point x="464" y="399" type="curve"/>
			<point x="447" y="447"/>
			<point x="397" y="479"/>
			<point x="327" y="479" type="curve" smooth="yes"/>
			<point x="176" y="479"/>
			<point x="68" y="367"/>
			<point x="37" y="225" type="curve" smooth="yes"/>
			<point x="5" y="73"/>
			<point x="84" y="-14"/>
			<point x="204" y="-14" type="curve" smooth="yes"/>
			<point x="354" y="-14"/>
			<point x="469" y="95"/>
			<point x="521" y="341" type="curve" smooth="yes"/>
			<point x="568" y="560"/>
			<point x="556" y="758"/>
		</contour>
		<contour>
			<point x="219" y="35" type="curve" smooth="yes"/>
			<point x="133" y="35"/>
			<point x="79" y="101"/>
			<point x="106" y="228" type="curve" smooth="yes"/>
			<point x="131" y="347"/>
			<point x="209" y="430"/>
			<point x="319" y="430" type="curve" smooth="yes"/>
			<point x="384" y="430"/>
			<point x="434" y="400"/>
			<point x="452" y="328" type="curve"/>
			<point x="408" y="138"/>
			<point x="333" y="35"/>
		</contour>
	</outline>
</glyph>
<glyph name="product" format="2">
	<advance width="561"/>
	<unicode hex="220F"/>
	<note>
		product
	</note>
	<outline>
		<contour>
			<point x="546" y="638" type="line"/>
			<point x="605" y="638" type="line"/>
			<point x="616" y="690" type="line"/>
			<point x="126" y="690" type="line"/>
			<point x="115" y="638" type="line"/>
			<point x="174" y="638" type="line"/>
			<point x="15" y="-110" type="line"/>
			<point x="77" y="-110" type="line"/>
			<point x="236" y="638" type="line"/>
			<point x="484" y="638" type="line"/>
			<point x="325" y="-110" type="line"/>
			<point x="387" y="-110" type="line"/>
		</contour>
	</outline>
</glyph>
<glyph name="minus" format="2">
	<advance width="561"/>
	<unicode hex="2212"/>
	<note>
		minus
	</note>
	<outline>
		<contour>
			<point x="81" y="297" type="line"/>
			<point x="494" y="297" type="line"/>
			<point x="503" y="340" type="line"/>
			<point x="90" y="340" type="line"/>
		</contour>
	</outline>
</glyph>
<glyph name="infinity" format="2">
	<advance width="989"/>
	<unicode hex="221E"/>
	<note>
		infinity
	</note>
	<outline>
		<contour>
			<point x="779" y="544" type="curve" smooth="yes"/>
			<point x="670" y="544"/>
			<point x="587" y="484"/>
			<point x="517" y="365" type="curve"/>
			<point x="499" y="485"/>
			<point x="432" y="544"/>
			<point x="328" y="544" type="curve" smooth="yes"/>
			<point x="170" y="544"/>
			<point x="63" y="421"/>
			<point x="30" y="265" type="curve" smooth="yes"/>
			<point x="-3" y="109"/>
			<point x="52" y="-14"/>
			<point x="210" y="-14" type="curve" smooth="yes"/>
			<point x="319" y="-14"/>
			<point x="401" y="45"/>
			<point x="472" y="167" type="curve"/>
			<point x="490" y="45"/>
			<point x="557" y="-14"/>
			<point x="661" y="-14" type="curve" smooth="yes"/>
			<point x="819" y="-14"/>
			<point x="926" y="109"/>
			<point x="959" y="265" type="curve" smooth="yes"/>
			<point x="992" y="421"/>
			<point x="937" y="544"/>
		</contour>
		<contour>
			<point x="220" y="35" type="curve" smooth="yes"/>
			<point x="127" y="35"/>
			<point x="67" y="121"/>
			<point x="98" y="265" type="curve" smooth="yes"/>
			<point x="129" y="409"/>
			<point x="225" y="495"/>
			<point x="318" y="495" type="curve" smooth="yes"/>
			<point x="401" y="495"/>
			<point x="463" y="434"/>
			<point x="455" y="265" type="curve"/>
			<point x="401" y="96"/>
			<point x="303" y="35"/>
		</contour>
		<contour>
			<point x="671" y="35" type="curve" smooth="yes"/>
			<point x="588" y="35"/>
			<point x="526" y="96"/>
			<point x="534" y="265" type="curve"/>
			<point x="588" y="434"/>
			<point x="686" y="495"/>
			<point x="769" y="495" type="curve" smooth="yes"/>
			<point x="863" y="495"/>
			<point x="922" y="409"/>
			<point x="891" y="265" type="curve" smooth="yes"/>
			<point x="860" y="121"/>
			<point x="765" y="35"/>
		</contour>
	</outline>
</glyph>
<glyph name="integral" format="2">
	<advance width="561"/>
	<unicode hex="222B"/>
	<note>
		integral
	</note>
	<outline>
		<contour>
			<point x="427" y="754" type="curve" smooth="yes"/>
			<point x="363" y="754"/>
			<point x="297" y="699"/>
			<point x="272" y="580" type="curve" smooth="yes"/>
			<point x="258" y="514"/>
			<point x="256" y="445"/>
			<point x="259" y="292" type="curve" smooth="yes"/>
			<point x="263" y="118"/>
			<point x="257" y="67"/>
			<point x="246" y="14" type="curve" smooth="yes"/>
			<point x="227" y="-75"/>
			<point x="188" y="-117"/>
			<point x="147" y="-117" type="curve" smooth="yes"/>
			<point x="126" y="-117"/>
			<point x="111" y="-113"/>
			<point x="96" y="-96" type="curve"/>
			<point x="73" y="-136" type="line"/>
			<point x="91" y="-154"/>
			<point x="112" y="-160"/>
			<point x="140" y="-160" type="curve" smooth="yes"/>
			<point x="203" y="-160"/>
			<point x="268" y="-105"/>
			<point x="294" y="14" type="curve" smooth="yes"/>
			<point x="308" y="80"/>
			<point x="309" y="149"/>
			<point x="307" y="303" type="curve" smooth="yes"/>
			<point x="303" y="476"/>
			<point x="309" y="528"/>
			<point x="320" y="580" type="curve" smooth="yes"/>
			<point x="339" y="669"/>
			<point x="378" y="711"/>
			<point x="419" y="711" type="curve" smooth="yes"/>
			<point x="440" y="711"/>
			<point x="455" y="707"/>
			<point x="470" y="690" type="curve"/>
			<point x="493" y="730" type="line"/>
			<point x="475" y="748"/>
			<point x="454" y="754"/>
		</contour>
	</outline>
</glyph>
<glyph name="notequal" format="2">
	<advance width="561"/>
	<unicode hex="2260"/>
	<note>
		notequal
	</note>
	<outline>
		<contour>
			<point x="257" y="241" type="line"/>
			<point x="376" y="391" type="line"/>
			<point x="518" y="391" type="line"/>
			<point x="527" y="434" type="line"/>
			<point x="410" y="434" type="line"/>
			<point x="488" y="531" type="line"/>
			<point x="438" y="531" type="line"/>
			<point x="360" y="434" type="line"/>
			<point x="107" y="434" type="line"/>
			<point x="98" y="391" type="line"/>
			<point x="326" y="391" type="line"/>
			<point x="207" y="241" type="line"/>
			<point x="66" y="241" type="line"/>
			<point x="57" y="198" type="line"/>
			<point x="173" y="198" type="line"/>
			<point x="95" y="101" type="line"/>
			<point x="145" y="101" type="line"/>
			<point x="223" y="198" type="line"/>
			<point x="477" y="198" type="line"/>
			<point x="486" y="241" type="line"/>
		</contour>
	</outline>
</glyph>
<glyph name="lozenge" format="2">
	<advance width="496"/>
	<unicode hex="25CA"/>
	<note>
		lozenge
	</note>
	<outline>
		<contour>
			<point x="217" y="0" type="line"/>
			<point x="457" y="345" type="line"/>
			<point x="363" y="690" type="line"/>
			<point x="313" y="690" type="line"/>
			<point x="73" y="345" type="line"/>
			<point x="167" y="0" type="line"/>
		</contour>
		<contour>
			<point x="329" y="644" type="line"/>
			<point x="406" y="345" type="line"/>
			<point x="201" y="46" type="line"/>
			<point x="123" y="345" type="line"/>
		</contour>
	</outline>
</glyph>
<glyph name="fi" format="2">
	<advance width="475"/>
	<unicode hex="FB01"/>
	<note>
		fi
	</note>
	<outline>
		<contour>
			<point x="343" y="0" type="line"/>
			<point x="454" y="525" type="line"/>
			<point x="197" y="525" type="line"/>
			<point x="204" y="555" type="line" smooth="yes"/>
			<point x="207" y="570"/>
			<point x="211" y="590"/>
			<point x="217" y="607" type="curve" smooth="yes"/>
			<point x="239" y="672"/>
			<point x="299" y="710"/>
			<point x="429" y="697" type="curve"/>
			<point x="440" y="749" type="line"/>
			<point x="423" y="752"/>
			<point x="407" y="754"/>
			<point x="386" y="754" type="curve" smooth="yes"/>
			<point x="261" y="754"/>
			<point x="184" y="699"/>
			<point x="155" y="610" type="curve" smooth="yes"/>
			<point x="149" y="591"/>
			<point x="144" y="568"/>
			<point x="141" y="550" type="curve" smooth="yes"/>
			<point x="135" y="525" type="line"/>
			<point x="78" y="525" type="line"/>
			<point x="68" y="475" type="line"/>
			<point x="125" y="475" type="line"/>
			<point x="24" y="0" type="line"/>
			<point x="86" y="0" type="line"/>
			<point x="187" y="475" type="line"/>
			<point x="382" y="475" type="line"/>
			<point x="281" y="0" type="line"/>
		</contour>
	</outline>
</glyph>
<glyph name="A_E" format="2">
	<advance width="908"/>
	<unicode hex="F1010"/>
	<outline>
		<contour>
			<point x="184" y="253" type="line"/>
			<point x="441" y="253" type="line"/>
			<point x="374" y="-64" type="line"/>
			<point x="821" y="-64" type="line"/>
			<point x="832" y="-13" type="line"/>
			<point x="447" y="-13" type="line"/>
			<point x="504" y="255" type="line"/>
			<point x="853" y="255" type="line"/>
			<point x="864" y="307" type="line"/>
			<point x="516" y="307" type="line"/>
			<point x="516" y="311" type="line"/>
			<point x="572" y="575" type="line"/>
			<point x="947" y="575" type="line"/>
			<point x="958" y="626" type="line"/>
			<point x="521" y="626" type="line"/>
			<point x="490" y="484" type="line"/>
			<point x="460" y="690" type="line"/>
			<point x="377" y="690" type="line"/>
			<point x="-24" y="0" type="line"/>
			<point x="42" y="0" type="line"/>
		</contour>
		<contour>
			<point x="214" y="305" type="line"/>
			<point x="407" y="640" type="line"/>
			<point x="453" y="305" type="line"/>
		</contour>
	</outline>
</glyph>
<glyph name="C_H" format="2">
	<advance width="1121"/>
	<unicode hex="F1410"/>
	<outline>
		<contour>
			<point x="463" y="704" type="curve" smooth="yes"/>
			<point x="274" y="704"/>
			<point x="110" y="554"/>
			<point x="65" y="342" type="curve" smooth="yes"/>
			<point x="21" y="132"/>
			<point x="108" y="-14"/>
			<point x="297" y="-14" type="curve" smooth="yes"/>
			<point x="473" y="-14"/>
			<point x="590" y="91"/>
			<point x="630" y="219" type="curve" smooth="yes"/>
			<point x="633" y="229" type="line"/>
			<point x="571" y="229" type="line"/>
			<point x="567" y="219" type="line" smooth="yes"/>
			<point x="524" y="113"/>
			<point x="439" y="36"/>
			<point x="311" y="36" type="curve" smooth="yes"/>
			<point x="171" y="36"/>
			<point x="94" y="153"/>
			<point x="135" y="345" type="curve" smooth="yes"/>
			<point x="175" y="533"/>
			<point x="308" y="654"/>
			<point x="450" y="654" type="curve" smooth="yes"/>
			<point x="573" y="654"/>
			<point x="626" y="580"/>
			<point x="625" y="475" type="curve" smooth="yes"/>
			<point x="625" y="465" type="line"/>
			<point x="687" y="465" type="line"/>
			<point x="688" y="475" type="line" smooth="yes"/>
			<point x="703" y="607"/>
			<point x="629" y="704"/>
		</contour>
		<contour>
			<point x="590" y="312" type="line"/>
			<point x="994" y="312" type="line"/>
			<point x="928" y="0" type="line"/>
			<point x="990" y="0" type="line"/>
			<point x="1136" y="690" type="line"/>
			<point x="1074" y="690" type="line"/>
			<point x="1005" y="365" type="line"/>
			<point x="601" y="365" type="line"/>
		</contour>
	</outline>
</glyph>
<glyph name="D_E" format="2">
	<advance width="925"/>
	<unicode hex="F1610"/>
	<outline>
		<contour>
			<point x="339" y="56" type="curve" smooth="yes"/>
			<point x="311" y="52"/>
			<point x="287" y="52"/>
			<point x="253" y="52" type="curve" smooth="yes"/>
			<point x="116" y="52" type="line"/>
			<point x="240" y="638" type="line"/>
			<point x="380" y="638" type="line" smooth="yes"/>
			<point x="416" y="638"/>
			<point x="438" y="638"/>
			<point x="460" y="635" type="curve" smooth="yes"/>
			<point x="570" y="619"/>
			<point x="648" y="528"/>
			<point x="610" y="351" type="curve" smooth="yes"/>
			<point x="572" y="172"/>
			<point x="456" y="73"/>
		</contour>
		<contour>
			<point x="43" y="0" type="line"/>
			<point x="839" y="0" type="line"/>
			<point x="850" y="51" type="line"/>
			<point x="471" y="51" type="line"/>
			<point x="557" y="101"/>
			<point x="635" y="189"/>
			<point x="670" y="319" type="curve"/>
			<point x="870" y="319" type="line"/>
			<point x="882" y="371" type="line"/>
			<point x="682" y="371" type="line"/>
			<point x="705" y="504"/>
			<point x="668" y="590"/>
			<point x="604" y="639" type="curve"/>
			<point x="964" y="639" type="line"/>
			<point x="975" y="690" type="line"/>
			<point x="189" y="690" type="line"/>
		</contour>
	</outline>
</glyph>
<glyph name="E_S" format="2">
	<advance width="966"/>
	<unicode hex="F1850"/>
	<outline>
		<contour>
			<point x="787" y="565" type="curve" smooth="yes"/>
			<point x="665" y="565"/>
			<point x="547" y="491"/>
			<point x="523" y="379" type="curve" smooth="yes"/>
			<point x="522" y="371" type="line"/>
			<point x="184" y="371" type="line"/>
			<point x="240" y="639" type="line"/>
			<point x="615" y="639" type="line"/>
			<point x="626" y="690" type="line"/>
			<point x="189" y="690" type="line"/>
			<point x="43" y="0" type="line"/>
			<point x="422" y="0" type="line"/>
			<point x="433" y="-100"/>
			<point x="513" y="-153"/>
			<point x="634" y="-153" type="curve" smooth="yes"/>
			<point x="766" y="-153"/>
			<point x="883" y="-75"/>
			<point x="907" y="39" type="curve" smooth="yes"/>
			<point x="931" y="153"/>
			<point x="869" y="209"/>
			<point x="729" y="247" type="curve" smooth="yes"/>
			<point x="618" y="277"/>
			<point x="575" y="308"/>
			<point x="593" y="392" type="curve" smooth="yes"/>
			<point x="610" y="474"/>
			<point x="692" y="515"/>
			<point x="771" y="515" type="curve" smooth="yes"/>
			<point x="862" y="515"/>
			<point x="910" y="460"/>
			<point x="902" y="366" type="curve"/>
			<point x="967" y="366" type="line"/>
			<point x="978" y="478"/>
			<point x="925" y="565"/>
		</contour>
		<contour>
			<point x="116" y="51" type="line"/>
			<point x="172" y="319" type="line"/>
			<point x="520" y="319" type="line"/>
			<point x="530" y="250"/>
			<point x="593" y="215"/>
			<point x="692" y="188" type="curve" smooth="yes"/>
			<point x="814" y="156"/>
			<point x="858" y="118"/>
			<point x="839" y="29" type="curve" smooth="yes"/>
			<point x="822" y="-51"/>
			<point x="738" y="-103"/>
			<point x="647" y="-103" type="curve" smooth="yes"/>
			<point x="548" y="-103"/>
			<point x="483" y="-48"/>
			<point x="488" y="51" type="curve"/>
		</contour>
	</outline>
</glyph>
<glyph name="e_a" format="2">
	<advance width="958"/>
	<unicode hex="F1910"/>
	<outline>
		<contour>
			<point x="321" y="493" type="curve" smooth="yes"/>
			<point x="410" y="493"/>
			<point x="465" y="431"/>
			<point x="443" y="295" type="curve"/>
			<point x="103" y="295" type="line"/>
			<point x="140" y="427"/>
			<point x="234" y="493"/>
		</contour>
		<contour>
			<point x="30" y="264" type="curve" smooth="yes"/>
			<point x="-10" y="78"/>
			<point x="74" y="-14"/>
			<point x="206" y="-14" type="curve" smooth="yes"/>
			<point x="312" y="-14"/>
			<point x="421" y="44"/>
			<point x="472" y="167" type="curve"/>
			<point x="407" y="167" type="line"/>
			<point x="370" y="80"/>
			<point x="294" y="35"/>
			<point x="220" y="35" type="curve" smooth="yes"/>
			<point x="134" y="35"/>
			<point x="67" y="90"/>
			<point x="93" y="246" type="curve"/>
			<point x="600" y="246" type="line" smooth="yes"/>
			<point x="654" y="248"/>
			<point x="706" y="265"/>
			<point x="748" y="300" type="curve"/>
			<point x="786" y="356" type="line"/>
			<point x="775" y="260" type="line"/>
			<point x="837" y="260" type="line"/>
			<point x="843" y="323"/>
			<point x="848" y="361"/>
			<point x="858" y="408" type="curve" smooth="yes"/>
			<point x="898" y="593" type="line" smooth="yes"/>
			<point x="903" y="618"/>
			<point x="908" y="640"/>
			<point x="911" y="663" type="curve" smooth="yes"/>
			<point x="921" y="750"/>
			<point x="877" y="803"/>
			<point x="760" y="803" type="curve" smooth="yes"/>
			<point x="648" y="803"/>
			<point x="555" y="736"/>
			<point x="526" y="632" type="curve"/>
			<point x="591" y="632" type="line"/>
			<point x="616" y="714"/>
			<point x="677" y="753"/>
			<point x="750" y="753" type="curve" smooth="yes"/>
			<point x="826" y="753"/>
			<point x="855" y="718"/>
			<point x="847" y="657" type="curve" smooth="yes"/>
			<point x="845" y="636"/>
			<point x="841" y="616"/>
			<point x="836" y="592" type="curve" smooth="yes"/>
			<point x="831" y="573" type="line"/>
			<point x="797" y="573" type="line" smooth="yes"/>
			<point x="650" y="573"/>
			<point x="540" y="538"/>
			<point x="486" y="466" type="curve"/>
			<point x="458" y="513"/>
			<point x="408" y="543"/>
			<point x="334" y="543" type="curve" smooth="yes"/>
			<point x="195" y="543"/>
			<point x="66" y="434"/>
		</contour>
		<contour>
			<point x="522" y="398" type="curve" smooth="yes"/>
			<point x="544" y="500"/>
			<point x="674" y="535"/>
			<point x="821" y="525" type="curve"/>
			<point x="808" y="464" type="line" smooth="yes"/>
			<point x="787" y="365"/>
			<point x="711" y="295"/>
			<point x="619" y="295" type="curve" smooth="yes"/>
			<point x="542" y="295"/>
			<point x="508" y="331"/>
		</contour>
	</outline>
</glyph>
<glyph name="e_s" format="2">
	<advance width="893"/>
	<unicode hex="F1950"/>
	<outline>
		<contour>
			<point x="321" y="493" type="curve" smooth="yes"/>
			<point x="410" y="493"/>
			<point x="465" y="431"/>
			<point x="443" y="295" type="curve"/>
			<point x="103" y="295" type="line"/>
			<point x="140" y="427"/>
			<point x="234" y="493"/>
		</contour>
		<contour>
			<point x="30" y="264" type="curve" smooth="yes"/>
			<point x="-10" y="78"/>
			<point x="74" y="-14"/>
			<point x="206" y="-14" type="curve" smooth="yes"/>
			<point x="312" y="-14"/>
			<point x="421" y="44"/>
			<point x="472" y="167" type="curve"/>
			<point x="407" y="167" type="line"/>
			<point x="370" y="80"/>
			<point x="294" y="35"/>
			<point x="220" y="35" type="curve" smooth="yes"/>
			<point x="134" y="35"/>
			<point x="67" y="90"/>
			<point x="93" y="246" type="curve"/>
			<point x="453" y="246" type="line"/>
			<point x="472" y="178"/>
			<point x="532" y="149"/>
			<point x="612" y="149" type="curve" smooth="yes"/>
			<point x="721" y="149"/>
			<point x="812" y="201"/>
			<point x="832" y="295" type="curve" smooth="yes"/>
			<point x="851" y="384"/>
			<point x="803" y="428"/>
			<point x="687" y="458" type="curve" smooth="yes"/>
			<point x="615" y="477"/>
			<point x="570" y="501"/>
			<point x="583" y="562" type="curve" smooth="yes"/>
			<point x="595" y="620"/>
			<point x="646" y="656"/>
			<point x="710" y="656" type="curve" smooth="yes"/>
			<point x="781" y="656"/>
			<point x="816" y="617"/>
			<point x="815" y="544" type="curve"/>
			<point x="880" y="544" type="line"/>
			<point x="888" y="637"/>
			<point x="841" y="706"/>
			<point x="726" y="706" type="curve" smooth="yes"/>
			<point x="622" y="706"/>
			<point x="537" y="646"/>
			<point x="518" y="555" type="curve" smooth="yes"/>
			<point x="498" y="464"/>
			<point x="565" y="427"/>
			<point x="651" y="403" type="curve" smooth="yes"/>
			<point x="749" y="378"/>
			<point x="781" y="349"/>
			<point x="768" y="290" type="curve" smooth="yes"/>
			<point x="755" y="229"/>
			<point x="694" y="198"/>
			<point x="627" y="198" type="curve" smooth="yes"/>
			<point x="556" y="198"/>
			<point x="505" y="229"/>
			<point x="509" y="319" type="curve"/>
			<point x="524" y="446"/>
			<point x="468" y="543"/>
			<point x="334" y="543" type="curve" smooth="yes"/>
			<point x="195" y="543"/>
			<point x="66" y="434"/>
		</contour>
	</outline>
</glyph>
<glyph name="e_u" format="2">
	<advance width="930"/>
	<unicode hex="F19A0"/>
	<outline>
		<contour>
			<point x="503" y="279" type="curve" smooth="yes"/>
			<point x="534" y="425"/>
			<point x="482" y="543"/>
			<point x="334" y="543" type="curve" smooth="yes"/>
			<point x="195" y="543"/>
			<point x="66" y="434"/>
			<point x="30" y="264" type="curve" smooth="yes"/>
			<point x="-10" y="78"/>
			<point x="74" y="-14"/>
			<point x="206" y="-14" type="curve" smooth="yes"/>
			<point x="279" y="-14"/>
			<point x="354" y="14"/>
			<point x="410" y="72" type="curve"/>
			<point x="428" y="20"/>
			<point x="476" y="-14"/>
			<point x="557" y="-14" type="curve" smooth="yes"/>
			<point x="615" y="-14"/>
			<point x="666" y="2"/>
			<point x="717" y="43" type="curve"/>
			<point x="758" y="102" type="line"/>
			<point x="737" y="0" type="line"/>
			<point x="799" y="0" type="line"/>
			<point x="911" y="529" type="line"/>
			<point x="849" y="529" type="line"/>
			<point x="793" y="266" type="line" smooth="yes"/>
			<point x="758" y="100"/>
			<point x="669" y="36"/>
			<point x="581" y="36" type="curve" smooth="yes"/>
			<point x="499" y="36"/>
			<point x="464" y="85"/>
			<point x="471" y="155" type="curve" smooth="yes"/>
			<point x="472" y="167" type="line"/>
			<point x="407" y="167" type="line"/>
			<point x="370" y="80"/>
			<point x="294" y="35"/>
			<point x="220" y="35" type="curve" smooth="yes"/>
			<point x="134" y="35"/>
			<point x="67" y="90"/>
			<point x="93" y="246" type="curve"/>
			<point x="494" y="246" type="line"/>
			<point x="499" y="262"/>
			<point x="501" y="272"/>
		</contour>
		<contour>
			<point x="103" y="295" type="line"/>
			<point x="140" y="427"/>
			<point x="234" y="493"/>
			<point x="321" y="493" type="curve" smooth="yes"/>
			<point x="410" y="493"/>
			<point x="465" y="431"/>
			<point x="443" y="295" type="curve"/>
		</contour>
	</outline>
</glyph>
<glyph name="f_f_e" format="2">
	<advance width="809"/>
	<unicode hex="F2130"/>
	<outline>
		<contour>
			<point x="224" y="641" type="curve" smooth="yes"/>
			<point x="240" y="688"/>
			<point x="285" y="711"/>
			<point x="352" y="697" type="curve"/>
			<point x="363" y="749" type="line"/>
			<point x="346" y="752"/>
			<point x="329" y="754"/>
			<point x="308" y="754" type="curve" smooth="yes"/>
			<point x="243" y="754"/>
			<point x="186" y="716"/>
			<point x="162" y="643" type="curve" smooth="yes"/>
			<point x="156" y="624"/>
			<point x="152" y="602"/>
			<point x="148" y="584" type="curve" smooth="yes"/>
			<point x="135" y="525" type="line"/>
			<point x="78" y="525" type="line"/>
			<point x="68" y="475" type="line"/>
			<point x="125" y="475" type="line"/>
			<point x="24" y="0" type="line"/>
			<point x="86" y="0" type="line"/>
			<point x="187" y="475" type="line"/>
			<point x="348" y="475" type="line"/>
			<point x="247" y="0" type="line"/>
			<point x="309" y="0" type="line"/>
			<point x="357" y="228" type="line"/>
			<point x="764" y="228" type="line"/>
			<point x="770" y="244"/>
			<point x="772" y="254"/>
			<point x="773" y="261" type="curve" smooth="yes"/>
			<point x="804" y="407"/>
			<point x="752" y="525"/>
			<point x="604" y="525" type="curve" smooth="yes"/>
			<point x="420" y="525" type="line"/>
			<point x="434" y="589" type="line" smooth="yes"/>
			<point x="437" y="604"/>
			<point x="441" y="624"/>
			<point x="447" y="641" type="curve" smooth="yes"/>
			<point x="463" y="688"/>
			<point x="508" y="711"/>
			<point x="575" y="697" type="curve"/>
			<point x="586" y="749" type="line"/>
			<point x="569" y="752"/>
			<point x="552" y="754"/>
			<point x="531" y="754" type="curve" smooth="yes"/>
			<point x="466" y="754"/>
			<point x="409" y="716"/>
			<point x="385" y="643" type="curve" smooth="yes"/>
			<point x="379" y="624"/>
			<point x="375" y="602"/>
			<point x="371" y="584" type="curve" smooth="yes"/>
			<point x="358" y="525" type="line"/>
			<point x="197" y="525" type="line"/>
			<point x="211" y="589" type="line" smooth="yes"/>
			<point x="214" y="604"/>
			<point x="218" y="624"/>
		</contour>
		<contour>
			<point x="402" y="438" type="curve"/>
			<point x="410" y="475" type="line"/>
			<point x="446" y="475" type="line"/>
			<point x="431" y="464"/>
			<point x="416" y="452"/>
		</contour>
		<contour>
			<point x="374" y="277" type="line"/>
			<point x="411" y="409"/>
			<point x="505" y="475"/>
			<point x="592" y="475" type="curve" smooth="yes"/>
			<point x="681" y="475"/>
			<point x="735" y="413"/>
			<point x="714" y="277" type="curve"/>
		</contour>
	</outline>
</glyph>
<glyph name="f_v" format="2">
	<advance width="502"/>
	<unicode hex="F2150"/>
	<outline>
		<contour>
			<point x="180" y="641" type="curve" smooth="yes"/>
			<point x="196" y="688"/>
			<point x="241" y="711"/>
			<point x="308" y="697" type="curve"/>
			<point x="319" y="749" type="line"/>
			<point x="302" y="752"/>
			<point x="285" y="754"/>
			<point x="264" y="754" type="curve" smooth="yes"/>
			<point x="199" y="754"/>
			<point x="142" y="716"/>
			<point x="118" y="643" type="curve" smooth="yes"/>
			<point x="112" y="624"/>
			<point x="108" y="602"/>
			<point x="104" y="584" type="curve" smooth="yes"/>
			<point x="91" y="525" type="line"/>
			<point x="34" y="525" type="line"/>
			<point x="24" y="475" type="line"/>
			<point x="78" y="475" type="line"/>
			<point x="158" y="0" type="line"/>
			<point x="235" y="0" type="line"/>
			<point x="551" y="529" type="line"/>
			<point x="485" y="529" type="line"/>
			<point x="208" y="46" type="line"/>
			<point x="145" y="475" type="line"/>
			<point x="251" y="475" type="line"/>
			<point x="261" y="525" type="line"/>
			<point x="153" y="525" type="line"/>
			<point x="167" y="589" type="line" smooth="yes"/>
			<point x="170" y="604"/>
			<point x="174" y="624"/>
		</contour>
	</outline>
</glyph>
<glyph name="I_E" format="2">
	<advance width="780"/>
	<unicode hex="F2610"/>
	<outline>
		<contour>
			<point x="694" y="0" type="line"/>
			<point x="705" y="51" type="line"/>
			<point x="320" y="51" type="line"/>
			<point x="376" y="319" type="line"/>
			<point x="725" y="319" type="line"/>
			<point x="737" y="371" type="line"/>
			<point x="388" y="371" type="line"/>
			<point x="444" y="639" type="line"/>
			<point x="819" y="639" type="line"/>
			<point x="830" y="690" type="line"/>
			<point x="393" y="690" type="line"/>
			<point x="247" y="0" type="line"/>
		</contour>
		<contour>
			<point x="43" y="161" type="line"/>
			<point x="105" y="161" type="line"/>
			<point x="217" y="690" type="line"/>
			<point x="155" y="690" type="line"/>
		</contour>
		<contour>
			<point x="182" y="838" type="line"/>
			<point x="167" y="766" type="line"/>
			<point x="239" y="766" type="line"/>
			<point x="254" y="838" type="line"/>
		</contour>
	</outline>
</glyph>
<glyph name="I_L" format="2">
	<advance width="761"/>
	<unicode hex="F2640"/>
	<outline>
		<contour>
			<point x="689" y="0" type="line"/>
			<point x="700" y="51" type="line"/>
			<point x="315" y="51" type="line"/>
			<point x="450" y="690" type="line"/>
			<point x="388" y="690" type="line"/>
			<point x="242" y="0" type="line"/>
		</contour>
		<contour>
			<point x="43" y="161" type="line"/>
			<point x="105" y="161" type="line"/>
			<point x="217" y="690" type="line"/>
			<point x="155" y="690" type="line"/>
		</contour>
		<contour>
			<point x="181" y="838" type="line"/>
			<point x="166" y="766" type="line"/>
			<point x="238" y="766" type="line"/>
			<point x="253" y="838" type="line"/>
		</contour>
	</outline>
</glyph>
<glyph name="i_l" format="2">
	<advance width="426"/>
	<unicode hex="F2740"/>
	<outline>
		<contour>
			<point x="17" y="0" type="line"/>
			<point x="79" y="0" type="line"/>
			<point x="191" y="529" type="line"/>
			<point x="129" y="529" type="line"/>
		</contour>
		<contour>
			<point x="140" y="605" type="line"/>
			<point x="212" y="605" type="line"/>
			<point x="228" y="677" type="line"/>
			<point x="156" y="677" type="line"/>
		</contour>
		<contour>
			<point x="160" y="0" type="curve"/>
			<point x="169" y="46" type="line"/>
			<point x="212" y="41"/>
			<point x="229" y="50"/>
			<point x="239" y="84" type="curve" smooth="yes"/>
			<point x="243" y="100"/>
			<point x="247" y="118"/>
			<point x="252" y="141" type="curve" smooth="yes"/>
			<point x="378" y="736" type="line"/>
			<point x="438" y="736" type="line"/>
			<point x="311" y="139" type="line" smooth="yes"/>
			<point x="304" y="107"/>
			<point x="300" y="86"/>
			<point x="295" y="68" type="curve" smooth="yes"/>
			<point x="280" y="11"/>
			<point x="247" y="-3"/>
			<point x="207" y="-3" type="curve" smooth="yes"/>
			<point x="191" y="-3"/>
			<point x="175" y="-3"/>
		</contour>
	</outline>
</glyph>
<glyph name="L_E" format="2">
	<advance width="787"/>
	<unicode hex="F3210"/>
	<outline>
		<contour>
			<point x="43" y="0" type="line"/>
			<point x="701" y="0" type="line"/>
			<point x="712" y="51" type="line"/>
			<point x="327" y="51" type="line"/>
			<point x="383" y="319" type="line"/>
			<point x="732" y="319" type="line"/>
			<point x="744" y="371" type="line"/>
			<point x="395" y="371" type="line"/>
			<point x="451" y="639" type="line"/>
			<point x="826" y="639" type="line"/>
			<point x="837" y="690" type="line"/>
			<point x="400" y="690" type="line"/>
			<point x="265" y="51" type="line"/>
			<point x="116" y="51" type="line"/>
			<point x="251" y="690" type="line"/>
			<point x="189" y="690" type="line"/>
		</contour>
	</outline>
</glyph>
<glyph name="M_P" format="2">
	<advance width="1172"/>
	<unicode hex="F3410"/>
	<outline>
		<contour>
			<point x="708" y="0" type="line"/>
			<point x="770" y="292" type="line"/>
			<point x="899" y="292" type="line" smooth="yes"/>
			<point x="934" y="292"/>
			<point x="961" y="292"/>
			<point x="993" y="296" type="curve" smooth="yes"/>
			<point x="1092" y="309"/>
			<point x="1184" y="375"/>
			<point x="1209" y="493" type="curve" smooth="yes"/>
			<point x="1234" y="610"/>
			<point x="1177" y="672"/>
			<point x="1075" y="686" type="curve" smooth="yes"/>
			<point x="1045" y="690"/>
			<point x="1018" y="690"/>
			<point x="983" y="690" type="curve" smooth="yes"/>
			<point x="755" y="690" type="line"/>
			<point x="388" y="52" type="line"/>
			<point x="290" y="690" type="line"/>
			<point x="189" y="690" type="line"/>
			<point x="43" y="0" type="line"/>
			<point x="105" y="0" type="line"/>
			<point x="184" y="372" type="line" smooth="yes"/>
			<point x="202" y="458"/>
			<point x="222" y="554"/>
			<point x="237" y="634" type="curve"/>
			<point x="247" y="555"/>
			<point x="260" y="458"/>
			<point x="274" y="374" type="curve" smooth="yes"/>
			<point x="336" y="0" type="line"/>
			<point x="414" y="0" type="line"/>
			<point x="633" y="373" type="line" smooth="yes"/>
			<point x="682" y="456"/>
			<point x="736" y="550"/>
			<point x="779" y="629" type="curve"/>
			<point x="646" y="0" type="line"/>
		</contour>
		<contour>
			<point x="781" y="345" type="line"/>
			<point x="843" y="637" type="line"/>
			<point x="977" y="637" type="line" smooth="yes"/>
			<point x="1010" y="637"/>
			<point x="1037" y="636"/>
			<point x="1059" y="632" type="curve" smooth="yes"/>
			<point x="1120" y="622"/>
			<point x="1161" y="581"/>
			<point x="1142" y="493" type="curve" smooth="yes"/>
			<point x="1123" y="402"/>
			<point x="1064" y="360"/>
			<point x="999" y="350" type="curve" smooth="yes"/>
			<point x="975" y="346"/>
			<point x="948" y="345"/>
			<point x="915" y="345" type="curve" smooth="yes"/>
		</contour>
	</outline>
</glyph>
<glyph name="N_E" format="2">
	<advance width="1028"/>
	<unicode hex="F3620"/>
	<outline>
		<contour>
			<point x="461" y="0" type="line"/>
			<point x="556" y="0" type="line"/>
			<point x="941" y="0" type="line"/>
			<point x="952" y="52" type="line"/>
			<point x="567" y="52" type="line"/>
			<point x="624" y="320" type="line"/>
			<point x="973" y="320" type="line"/>
			<point x="984" y="372" type="line"/>
			<point x="635" y="372" type="line"/>
			<point x="692" y="640" type="line"/>
			<point x="1067" y="640" type="line"/>
			<point x="1078" y="691" type="line"/>
			<point x="641" y="691" type="line"/>
			<point x="508" y="65" type="line"/>
			<point x="283" y="690" type="line"/>
			<point x="189" y="690" type="line"/>
			<point x="43" y="0" type="line"/>
			<point x="105" y="0" type="line"/>
			<point x="180" y="356" type="line" smooth="yes"/>
			<point x="199" y="442"/>
			<point x="220" y="545"/>
			<point x="236" y="630" type="curve"/>
		</contour>
	</outline>
</glyph>
<glyph name="n_a" format="2">
	<advance width="889"/>
	<unicode hex="F3710"/>
	<outline>
		<contour>
			<point x="717" y="96" type="line"/>
			<point x="706" y="0" type="line"/>
			<point x="768" y="0" type="line"/>
			<point x="774" y="63"/>
			<point x="779" y="101"/>
			<point x="789" y="148" type="curve" smooth="yes"/>
			<point x="828" y="333" type="line" smooth="yes"/>
			<point x="834" y="358"/>
			<point x="838" y="380"/>
			<point x="841" y="403" type="curve" smooth="yes"/>
			<point x="852" y="490"/>
			<point x="808" y="543"/>
			<point x="691" y="543" type="curve" smooth="yes"/>
			<point x="620" y="543"/>
			<point x="557" y="516"/>
			<point x="513" y="470" type="curve"/>
			<point x="493" y="516"/>
			<point x="445" y="543"/>
			<point x="371" y="543" type="curve" smooth="yes"/>
			<point x="312" y="543"/>
			<point x="262" y="527"/>
			<point x="210" y="484" type="curve"/>
			<point x="169" y="427" type="line"/>
			<point x="191" y="529" type="line"/>
			<point x="129" y="529" type="line"/>
			<point x="17" y="0" type="line"/>
			<point x="79" y="0" type="line"/>
			<point x="135" y="263" type="line" smooth="yes"/>
			<point x="170" y="428"/>
			<point x="260" y="492"/>
			<point x="348" y="492" type="curve" smooth="yes"/>
			<point x="437" y="492"/>
			<point x="466" y="441"/>
			<point x="458" y="369" type="curve" smooth="yes"/>
			<point x="454" y="342"/>
			<point x="449" y="319"/>
			<point x="443" y="289" type="curve" smooth="yes"/>
			<point x="428" y="220" type="line"/>
			<point x="406" y="196"/>
			<point x="391" y="167"/>
			<point x="384" y="133" type="curve" smooth="yes"/>
			<point x="364" y="37"/>
			<point x="423" y="-14"/>
			<point x="521" y="-14" type="curve" smooth="yes"/>
			<point x="579" y="-14"/>
			<point x="634" y="3"/>
			<point x="679" y="40" type="curve"/>
		</contour>
		<contour>
			<point x="453" y="138" type="curve" smooth="yes"/>
			<point x="475" y="240"/>
			<point x="605" y="275"/>
			<point x="752" y="265" type="curve"/>
			<point x="739" y="204" type="line" smooth="yes"/>
			<point x="718" y="105"/>
			<point x="642" y="35"/>
			<point x="550" y="35" type="curve" smooth="yes"/>
			<point x="473" y="35"/>
			<point x="439" y="71"/>
		</contour>
		<contour>
			<point x="522" y="372" type="curve"/>
			<point x="547" y="454"/>
			<point x="607" y="493"/>
			<point x="680" y="493" type="curve" smooth="yes"/>
			<point x="756" y="493"/>
			<point x="786" y="458"/>
			<point x="778" y="397" type="curve" smooth="yes"/>
			<point x="776" y="376"/>
			<point x="771" y="356"/>
			<point x="766" y="332" type="curve" smooth="yes"/>
			<point x="762" y="313" type="line"/>
			<point x="728" y="313" type="line" smooth="yes"/>
			<point x="637" y="313"/>
			<point x="560" y="299"/>
			<point x="501" y="272" type="curve"/>
			<point x="507" y="296" type="line" smooth="yes"/>
			<point x="514" y="332"/>
			<point x="518" y="351"/>
		</contour>
	</outline>
</glyph>
<glyph name="n_n_e" format="2">
	<advance width="1360"/>
	<unicode hex="F3750"/>
	<outline>
		<contour>
			<point x="1324" y="506" type="curve" smooth="yes"/>
			<point x="1355" y="652"/>
			<point x="1303" y="770"/>
			<point x="1155" y="770" type="curve" smooth="yes"/>
			<point x="1073" y="770"/>
			<point x="994" y="732"/>
			<point x="936" y="665" type="curve"/>
			<point x="925" y="731"/>
			<point x="874" y="770"/>
			<point x="784" y="770" type="curve" smooth="yes"/>
			<point x="725" y="770"/>
			<point x="675" y="754"/>
			<point x="623" y="711" type="curve"/>
			<point x="583" y="654" type="line"/>
			<point x="604" y="756" type="line"/>
			<point x="542" y="756" type="line"/>
			<point x="489" y="505" type="line"/>
			<point x="463" y="529"/>
			<point x="424" y="543"/>
			<point x="371" y="543" type="curve" smooth="yes"/>
			<point x="312" y="543"/>
			<point x="262" y="527"/>
			<point x="210" y="484" type="curve"/>
			<point x="169" y="427" type="line"/>
			<point x="191" y="529" type="line"/>
			<point x="129" y="529" type="line"/>
			<point x="17" y="0" type="line"/>
			<point x="79" y="0" type="line"/>
			<point x="135" y="263" type="line" smooth="yes"/>
			<point x="170" y="428"/>
			<point x="260" y="492"/>
			<point x="348" y="492" type="curve" smooth="yes"/>
			<point x="437" y="492"/>
			<point x="466" y="441"/>
			<point x="458" y="369" type="curve" smooth="yes"/>
			<point x="454" y="342"/>
			<point x="449" y="319"/>
			<point x="443" y="289" type="curve" smooth="yes"/>
			<point x="382" y="0" type="line"/>
			<point x="444" y="0" type="line"/>
			<point x="548" y="490" type="line" smooth="yes"/>
			<point x="583" y="655"/>
			<point x="674" y="719"/>
			<point x="762" y="719" type="curve" smooth="yes"/>
			<point x="851" y="719"/>
			<point x="880" y="668"/>
			<point x="871" y="596" type="curve" smooth="yes"/>
			<point x="868" y="569"/>
			<point x="863" y="546"/>
			<point x="856" y="516" type="curve" smooth="yes"/>
			<point x="851" y="491" type="line" smooth="yes"/>
			<point x="812" y="305"/>
			<point x="895" y="213"/>
			<point x="1027" y="213" type="curve"/>
			<point x="1041" y="262" type="line"/>
			<point x="955" y="262"/>
			<point x="888" y="317"/>
			<point x="914" y="473" type="curve"/>
			<point x="1315" y="473" type="line"/>
			<point x="1321" y="489"/>
			<point x="1323" y="499"/>
		</contour>
		<contour>
			<point x="925" y="522" type="line"/>
			<point x="962" y="654"/>
			<point x="1056" y="720"/>
			<point x="1143" y="720" type="curve" smooth="yes"/>
			<point x="1232" y="720"/>
			<point x="1287" y="658"/>
			<point x="1265" y="522" type="curve"/>
		</contour>
	</outline>
</glyph>
<glyph name="O_T_E" format="2">
	<advance width="1344"/>
	<unicode hex="F3850"/>
	<outline>
		<contour>
			<point x="462" y="704" type="curve" smooth="yes"/>
			<point x="261" y="704"/>
			<point x="111" y="555"/>
			<point x="66" y="345" type="curve" smooth="yes"/>
			<point x="22" y="137"/>
			<point x="109" y="-14"/>
			<point x="310" y="-14" type="curve" smooth="yes"/>
			<point x="501" y="-14"/>
			<point x="647" y="121"/>
			<point x="699" y="312" type="curve"/>
			<point x="633" y="0" type="line"/>
			<point x="695" y="0" type="line"/>
			<point x="830" y="639" type="line"/>
			<point x="946" y="639" type="line"/>
			<point x="811" y="0" type="line"/>
			<point x="1258" y="0" type="line"/>
			<point x="1269" y="51" type="line"/>
			<point x="884" y="51" type="line"/>
			<point x="940" y="319" type="line"/>
			<point x="1289" y="319" type="line"/>
			<point x="1301" y="371" type="line"/>
			<point x="952" y="371" type="line"/>
			<point x="1008" y="639" type="line"/>
			<point x="1383" y="639" type="line"/>
			<point x="1394" y="690" type="line"/>
			<point x="560" y="690" type="line"/>
			<point x="531" y="699"/>
			<point x="499" y="704"/>
		</contour>
		<contour>
			<point x="135" y="345" type="curve" smooth="yes"/>
			<point x="176" y="539"/>
			<point x="304" y="654"/>
			<point x="452" y="654" type="curve" smooth="yes"/>
			<point x="601" y="654"/>
			<point x="679" y="539"/>
			<point x="638" y="345" type="curve" smooth="yes"/>
			<point x="597" y="152"/>
			<point x="469" y="36"/>
			<point x="320" y="36" type="curve" smooth="yes"/>
			<point x="172" y="36"/>
			<point x="94" y="152"/>
		</contour>
		<contour>
			<point x="648" y="639" type="curve"/>
			<point x="768" y="639" type="line"/>
			<point x="713" y="378" type="line"/>
			<point x="730" y="490"/>
			<point x="707" y="582"/>
		</contour>
	</outline>
</glyph>
<glyph name="O_Idieresis" format="2">
	<advance width="765"/>
	<unicode hex="F3870"/>
	<outline>
		<contour>
			<point x="462" y="704" type="curve" smooth="yes"/>
			<point x="261" y="704"/>
			<point x="111" y="555"/>
			<point x="66" y="345" type="curve" smooth="yes"/>
			<point x="22" y="137"/>
			<point x="109" y="-14"/>
			<point x="310" y="-14" type="curve" smooth="yes"/>
			<point x="512" y="-14"/>
			<point x="663" y="137"/>
			<point x="707" y="345" type="curve" smooth="yes"/>
			<point x="707" y="346" type="line"/>
			<point x="780" y="690" type="line"/>
			<point x="718" y="690" type="line"/>
			<point x="694" y="573" type="line"/>
			<point x="656" y="655"/>
			<point x="578" y="704"/>
		</contour>
		<contour>
			<point x="135" y="345" type="curve" smooth="yes"/>
			<point x="176" y="539"/>
			<point x="304" y="654"/>
			<point x="452" y="654" type="curve" smooth="yes"/>
			<point x="601" y="654"/>
			<point x="679" y="539"/>
			<point x="638" y="345" type="curve" smooth="yes"/>
			<point x="597" y="152"/>
			<point x="469" y="36"/>
			<point x="320" y="36" type="curve" smooth="yes"/>
			<point x="172" y="36"/>
			<point x="94" y="152"/>
		</contour>
		<contour>
			<point x="671" y="749" type="line"/>
			<point x="743" y="749" type="line"/>
			<point x="758" y="821" type="line"/>
			<point x="686" y="821" type="line"/>
		</contour>
		<contour>
			<point x="785" y="749" type="line"/>
			<point x="857" y="749" type="line"/>
			<point x="872" y="821" type="line"/>
			<point x="800" y="821" type="line"/>
		</contour>
	</outline>
</glyph>
<glyph name="o_f" format="2">
	<advance width="675"/>
	<unicode hex="F3910"/>
	<outline>
		<contour>
			<point x="346" y="543" type="line" smooth="yes"/>
			<point x="178" y="543"/>
			<point x="63" y="420"/>
			<point x="30" y="264" type="curve" smooth="yes"/>
			<point x="-3" y="109"/>
			<point x="60" y="-14"/>
			<point x="228" y="-14" type="curve" smooth="yes"/>
			<point x="396" y="-14"/>
			<point x="511" y="109"/>
			<point x="544" y="264" type="curve" smooth="yes"/>
			<point x="547" y="282" type="line"/>
			<point x="549" y="282" type="line"/>
			<point x="593" y="493" type="line"/>
			<point x="701" y="493" type="line"/>
			<point x="712" y="543" type="line"/>
			<point x="604" y="543" type="line"/>
			<point x="618" y="607" type="line" smooth="yes"/>
			<point x="621" y="622"/>
			<point x="625" y="642"/>
			<point x="631" y="659" type="curve" smooth="yes"/>
			<point x="647" y="706"/>
			<point x="692" y="729"/>
			<point x="759" y="715" type="curve"/>
			<point x="770" y="767" type="line"/>
			<point x="752" y="770"/>
			<point x="736" y="772"/>
			<point x="715" y="772" type="curve" smooth="yes"/>
			<point x="650" y="772"/>
			<point x="593" y="734"/>
			<point x="569" y="661" type="curve" smooth="yes"/>
			<point x="563" y="642"/>
			<point x="558" y="620"/>
			<point x="555" y="602" type="curve" smooth="yes"/>
			<point x="542" y="543" type="line"/>
		</contour>
		<contour>
			<point x="98" y="264" type="curve" smooth="yes"/>
			<point x="128" y="408"/>
			<point x="225" y="493"/>
			<point x="335" y="493" type="curve" smooth="yes"/>
			<point x="445" y="493"/>
			<point x="506" y="408"/>
			<point x="476" y="264" type="curve" smooth="yes"/>
			<point x="445" y="120"/>
			<point x="348" y="35"/>
			<point x="238" y="35" type="curve" smooth="yes"/>
			<point x="128" y="35"/>
			<point x="67" y="120"/>
		</contour>
		<contour>
			<point x="494" y="493" type="curve"/>
			<point x="531" y="493" type="line"/>
			<point x="524" y="457" type="line"/>
			<point x="516" y="470"/>
			<point x="506" y="482"/>
		</contour>
	</outline>
</glyph>
<glyph name="o_t_e" format="2">
	<advance width="1178"/>
	<unicode hex="F3950"/>
	<outline>
		<contour>
			<point x="346" y="543" type="curve" smooth="yes"/>
			<point x="178" y="543"/>
			<point x="63" y="420"/>
			<point x="30" y="264" type="curve" smooth="yes"/>
			<point x="-3" y="109"/>
			<point x="60" y="-14"/>
			<point x="228" y="-14" type="curve" smooth="yes"/>
			<point x="315" y="-14"/>
			<point x="388" y="19"/>
			<point x="442" y="73" type="curve"/>
			<point x="437" y="17"/>
			<point x="462" y="-8"/>
			<point x="520" y="-8" type="curve" smooth="yes"/>
			<point x="541" y="-8"/>
			<point x="563" y="-7"/>
			<point x="585" y="-3" type="curve"/>
			<point x="595" y="43" type="line"/>
			<point x="522" y="34"/>
			<point x="503" y="47"/>
			<point x="510" y="98" type="curve" smooth="yes"/>
			<point x="511" y="112"/>
			<point x="514" y="123"/>
			<point x="518" y="145" type="curve" smooth="yes"/>
			<point x="589" y="477" type="line"/>
			<point x="1133" y="477" type="line"/>
			<point x="1138" y="493"/>
			<point x="1141" y="503"/>
			<point x="1142" y="510" type="curve" smooth="yes"/>
			<point x="1173" y="656"/>
			<point x="1121" y="774"/>
			<point x="973" y="774" type="curve" smooth="yes"/>
			<point x="842" y="774"/>
			<point x="721" y="678"/>
			<point x="676" y="525" type="curve"/>
			<point x="599" y="525" type="line"/>
			<point x="624" y="642" type="line"/>
			<point x="562" y="642" type="line"/>
			<point x="537" y="525" type="line"/>
			<point x="444" y="525" type="line"/>
			<point x="417" y="537"/>
			<point x="384" y="543"/>
		</contour>
		<contour>
			<point x="98" y="264" type="curve" smooth="yes"/>
			<point x="128" y="408"/>
			<point x="225" y="493"/>
			<point x="335" y="493" type="curve" smooth="yes"/>
			<point x="445" y="493"/>
			<point x="506" y="408"/>
			<point x="476" y="264" type="curve" smooth="yes"/>
			<point x="445" y="120"/>
			<point x="348" y="35"/>
			<point x="238" y="35" type="curve" smooth="yes"/>
			<point x="128" y="35"/>
			<point x="67" y="120"/>
		</contour>
		<contour>
			<point x="509" y="477" type="curve"/>
			<point x="527" y="477" type="line"/>
			<point x="523" y="458" type="line"/>
			<point x="519" y="465"/>
			<point x="514" y="471"/>
		</contour>
		<contour>
			<point x="742" y="526" type="line"/>
			<point x="780" y="658"/>
			<point x="874" y="724"/>
			<point x="961" y="724" type="curve" smooth="yes"/>
			<point x="1050" y="724"/>
			<point x="1104" y="662"/>
			<point x="1082" y="526" type="curve"/>
		</contour>
	</outline>
</glyph>
<glyph name="p_m" format="2">
	<advance width="1214"/>
	<unicode hex="F4110"/>
	<outline>
		<contour>
			<point x="379" y="543" type="curve" smooth="yes"/>
			<point x="318" y="543"/>
			<point x="262" y="525"/>
			<point x="218" y="489" type="curve"/>
			<point x="170" y="431" type="line"/>
			<point x="192" y="532" type="line"/>
			<point x="130" y="532" type="line"/>
			<point x="-25" y="-196" type="line"/>
			<point x="37" y="-196" type="line"/>
			<point x="98" y="90" type="line"/>
			<point x="119" y="33" type="line"/>
			<point x="145" y="2"/>
			<point x="193" y="-14"/>
			<point x="245" y="-14" type="curve" smooth="yes"/>
			<point x="379" y="-14"/>
			<point x="516" y="79"/>
			<point x="557" y="271" type="curve" smooth="yes"/>
			<point x="568" y="321"/>
			<point x="569" y="367"/>
			<point x="560" y="406" type="curve"/>
			<point x="596" y="468"/>
			<point x="643" y="493"/>
			<point x="692" y="493" type="curve" smooth="yes"/>
			<point x="762" y="493"/>
			<point x="793" y="452"/>
			<point x="787" y="381" type="curve" smooth="yes"/>
			<point x="784" y="354"/>
			<point x="779" y="327"/>
			<point x="770" y="284" type="curve" smooth="yes"/>
			<point x="710" y="0" type="line"/>
			<point x="772" y="0" type="line"/>
			<point x="831" y="277" type="line" smooth="yes"/>
			<point x="864" y="434"/>
			<point x="934" y="493"/>
			<point x="1009" y="493" type="curve" smooth="yes"/>
			<point x="1079" y="493"/>
			<point x="1110" y="452"/>
			<point x="1104" y="381" type="curve" smooth="yes"/>
			<point x="1101" y="354"/>
			<point x="1096" y="327"/>
			<point x="1087" y="284" type="curve" smooth="yes"/>
			<point x="1027" y="0" type="line"/>
			<point x="1089" y="0" type="line"/>
			<point x="1155" y="312" type="line" smooth="yes"/>
			<point x="1164" y="355"/>
			<point x="1167" y="374"/>
			<point x="1169" y="401" type="curve" smooth="yes"/>
			<point x="1175" y="485"/>
			<point x="1134" y="543"/>
			<point x="1039" y="543" type="curve" smooth="yes"/>
			<point x="989" y="543"/>
			<point x="944" y="529"/>
			<point x="907" y="497" type="curve"/>
			<point x="852" y="430" type="line"/>
			<point x="849" y="498"/>
			<point x="806" y="543"/>
			<point x="722" y="543" type="curve" smooth="yes"/>
			<point x="672" y="543"/>
			<point x="628" y="529"/>
			<point x="590" y="497" type="curve"/>
			<point x="549" y="440" type="line"/>
			<point x="523" y="504"/>
			<point x="465" y="543"/>
		</contour>
		<contour>
			<point x="129" y="237" type="curve" smooth="yes"/>
			<point x="138" y="277" type="line" smooth="yes"/>
			<point x="172" y="437"/>
			<point x="265" y="493"/>
			<point x="359" y="493" type="curve" smooth="yes"/>
			<point x="475" y="493"/>
			<point x="515" y="390"/>
			<point x="488" y="263" type="curve" smooth="yes"/>
			<point x="457" y="120"/>
			<point x="361" y="35"/>
			<point x="255" y="35" type="curve" smooth="yes"/>
			<point x="177" y="35"/>
			<point x="97" y="86"/>
		</contour>
	</outline>
</glyph>
<glyph name="r_e" format="2">
	<advance width="788"/>
	<unicode hex="F4510"/>
	<outline>
		<contour>
			<point x="752" y="522" type="curve" smooth="yes"/>
			<point x="783" y="668"/>
			<point x="731" y="786"/>
			<point x="583" y="786" type="curve" smooth="yes"/>
			<point x="452" y="786"/>
			<point x="329" y="689"/>
			<point x="285" y="535" type="curve"/>
			<point x="263" y="529"/>
			<point x="242" y="517"/>
			<point x="223" y="501" type="curve"/>
			<point x="171" y="433" type="line"/>
			<point x="191" y="529" type="line"/>
			<point x="129" y="529" type="line"/>
			<point x="17" y="0" type="line"/>
			<point x="79" y="0" type="line"/>
			<point x="142" y="297" type="line" smooth="yes"/>
			<point x="164" y="401"/>
			<point x="213" y="459"/>
			<point x="273" y="480" type="curve"/>
			<point x="247" y="312"/>
			<point x="329" y="229"/>
			<point x="454" y="229" type="curve"/>
			<point x="469" y="278" type="line"/>
			<point x="383" y="278"/>
			<point x="316" y="333"/>
			<point x="341" y="488" type="curve"/>
			<point x="342" y="488" type="line"/>
			<point x="343" y="489" type="line"/>
			<point x="743" y="489" type="line"/>
			<point x="748" y="505"/>
			<point x="750" y="515"/>
		</contour>
		<contour>
			<point x="352" y="538" type="line"/>
			<point x="389" y="670"/>
			<point x="483" y="736"/>
			<point x="570" y="736" type="curve" smooth="yes"/>
			<point x="659" y="736"/>
			<point x="714" y="674"/>
			<point x="692" y="538" type="curve"/>
		</contour>
	</outline>
</glyph>
<glyph name="r_s" format="2">
	<advance width="469"/>
	<unicode hex="F45C0"/>
	<outline>
		<contour>
			<point x="328" y="541" type="curve" smooth="yes"/>
			<point x="294" y="541"/>
			<point x="257" y="526"/>
			<point x="228" y="501" type="curve"/>
			<point x="176" y="433" type="line"/>
			<point x="196" y="529" type="line"/>
			<point x="134" y="529" type="line"/>
			<point x="22" y="0" type="line" smooth="yes"/>
			<point x="-5" y="-125"/>
			<point x="84" y="-170"/>
			<point x="189" y="-170" type="curve" smooth="yes"/>
			<point x="298" y="-170"/>
			<point x="389" y="-118"/>
			<point x="409" y="-24" type="curve" smooth="yes"/>
			<point x="427" y="65"/>
			<point x="379" y="109"/>
			<point x="263" y="139" type="curve" smooth="yes"/>
			<point x="191" y="158"/>
			<point x="146" y="182"/>
			<point x="159" y="243" type="curve" smooth="yes"/>
			<point x="172" y="301"/>
			<point x="222" y="337"/>
			<point x="286" y="337" type="curve" smooth="yes"/>
			<point x="357" y="337"/>
			<point x="392" y="298"/>
			<point x="391" y="225" type="curve"/>
			<point x="456" y="225" type="line"/>
			<point x="464" y="318"/>
			<point x="417" y="387"/>
			<point x="302" y="387" type="curve" smooth="yes"/>
			<point x="246" y="387"/>
			<point x="196" y="370"/>
			<point x="158" y="340" type="curve"/>
			<point x="194" y="450"/>
			<point x="267" y="494"/>
			<point x="347" y="488" type="curve"/>
			<point x="358" y="537" type="line"/>
			<point x="349" y="540"/>
			<point x="339" y="541"/>
		</contour>
		<contour>
			<point x="84" y="0" type="curve" smooth="yes"/>
			<point x="114" y="142" type="line"/>
			<point x="139" y="114"/>
			<point x="180" y="97"/>
			<point x="228" y="84" type="curve" smooth="yes"/>
			<point x="325" y="59"/>
			<point x="357" y="30"/>
			<point x="345" y="-29" type="curve" smooth="yes"/>
			<point x="332" y="-90"/>
			<point x="270" y="-121"/>
			<point x="203" y="-121" type="curve" smooth="yes"/>
			<point x="132" y="-121"/>
			<point x="63" y="-95"/>
		</contour>
	</outline>
</glyph>
<glyph name="S_S_E" format="2">
	<advance width="1380"/>
	<unicode hex="F46A0"/>
	<outline>
		<contour>
			<point x="396" y="704" type="curve" smooth="yes"/>
			<point x="274" y="704"/>
			<point x="157" y="630"/>
			<point x="133" y="518" type="curve" smooth="yes"/>
			<point x="109" y="407"/>
			<point x="177" y="361"/>
			<point x="301" y="327" type="curve" smooth="yes"/>
			<point x="423" y="295"/>
			<point x="467" y="257"/>
			<point x="448" y="168" type="curve" smooth="yes"/>
			<point x="431" y="88"/>
			<point x="347" y="36"/>
			<point x="256" y="36" type="curve" smooth="yes"/>
			<point x="157" y="36"/>
			<point x="93" y="91"/>
			<point x="97" y="190" type="curve"/>
			<point x="31" y="190" type="line"/>
			<point x="18" y="57"/>
			<point x="104" y="-14"/>
			<point x="244" y="-14" type="curve" smooth="yes"/>
			<point x="376" y="-14"/>
			<point x="492" y="64"/>
			<point x="517" y="178" type="curve" smooth="yes"/>
			<point x="541" y="292"/>
			<point x="479" y="348"/>
			<point x="339" y="386" type="curve" smooth="yes"/>
			<point x="227" y="416"/>
			<point x="185" y="447"/>
			<point x="203" y="531" type="curve" smooth="yes"/>
			<point x="220" y="613"/>
			<point x="302" y="654"/>
			<point x="381" y="654" type="curve" smooth="yes"/>
			<point x="472" y="654"/>
			<point x="520" y="599"/>
			<point x="512" y="505" type="curve" smooth="yes"/>
			<point x="499" y="372"/>
			<point x="585" y="301"/>
			<point x="725" y="301" type="curve" smooth="yes"/>
			<point x="790" y="301"/>
			<point x="849" y="320"/>
			<point x="894" y="353" type="curve"/>
			<point x="846" y="130" type="line"/>
			<point x="1293" y="130" type="line"/>
			<point x="1304" y="181" type="line"/>
			<point x="919" y="181" type="line"/>
			<point x="976" y="449" type="line"/>
			<point x="1325" y="449" type="line"/>
			<point x="1336" y="501" type="line"/>
			<point x="987" y="501" type="line"/>
			<point x="1044" y="769" type="line"/>
			<point x="1419" y="769" type="line"/>
			<point x="1430" y="820" type="line"/>
			<point x="1058" y="820" type="line"/>
			<point x="1078" y="932"/>
			<point x="1015" y="1019"/>
			<point x="877" y="1019" type="curve" smooth="yes"/>
			<point x="755" y="1019"/>
			<point x="638" y="945"/>
			<point x="614" y="833" type="curve" smooth="yes"/>
			<point x="590" y="722"/>
			<point x="658" y="676"/>
			<point x="782" y="642" type="curve" smooth="yes"/>
			<point x="904" y="610"/>
			<point x="935" y="572"/>
			<point x="916" y="483" type="curve" smooth="yes"/>
			<point x="899" y="403"/>
			<point x="828" y="351"/>
			<point x="737" y="351" type="curve" smooth="yes"/>
			<point x="638" y="351"/>
			<point x="573" y="406"/>
			<point x="577" y="505" type="curve"/>
			<point x="588" y="617"/>
			<point x="534" y="704"/>
		</contour>
		<contour>
			<point x="683" y="846" type="curve" smooth="yes"/>
			<point x="701" y="928"/>
			<point x="783" y="969"/>
			<point x="862" y="969" type="curve" smooth="yes"/>
			<point x="953" y="969"/>
			<point x="1013" y="914"/>
			<point x="993" y="820" type="curve" smooth="yes"/>
			<point x="954" y="636" type="line"/>
			<point x="926" y="664"/>
			<point x="882" y="684"/>
			<point x="820" y="701" type="curve" smooth="yes"/>
			<point x="708" y="731"/>
			<point x="666" y="762"/>
		</contour>
	</outline>
</glyph>
